<svg xmlns="http://www.w3.org/2000/svg" width="195.114" height="82.795" viewBox="0 0 195.114 82.795"><g transform="translate(-461.708 -371.291)"><g transform="translate(461.708 371.291)"><path d="M501.849,398.157l-.127-.026c.041.009.083.019.124.03l.006,0Z" transform="translate(-467.634 -375.266)" fill="none"/><path d="M555.156,403.153a49.511,49.511,0,0,0-5.172-1.963C551.679,401.771,553.4,402.418,555.156,403.153Z" transform="translate(-474.782 -375.719)" fill="none"/><path d="M503.787,380.865c2.43.678,5.122,1.526,8.057,2.582-2.271-.824-4.4-1.524-6.377-2.1Q504.608,381.091,503.787,380.865Z" transform="translate(-467.94 -372.709)" fill="none"/><path d="M514.334,384.292c-.074-.028-.151-.055-.224-.084Z" transform="translate(-469.469 -373.204)" fill="none"/><path d="M546.648,400.105c.151.047.3.1.456.144-.123-.04-.246-.079-.369-.121C546.706,400.121,546.678,400.114,546.648,400.105Z" transform="translate(-474.288 -375.559)" fill="none"/><path d="M503.1,440.3a20.117,20.117,0,0,1-19.934-17.445h0a205.98,205.98,0,0,0-21.458-2.91,41.39,41.39,0,0,0,74.8,24.383,111.624,111.624,0,0,0-18.487-10.656A20.063,20.063,0,0,1,503.1,440.3Z" transform="translate(-461.708 -378.497)" fill="#2e6a4d"/><path d="M486.9,423.36h0Z" transform="translate(-465.439 -379.003)" fill="#2fa444"/><path d="M545.348,419.258c-3.511-.153-7.751-.326-12.374-.409.021.387.036.776.036,1.171a20.041,20.041,0,0,1-5.14,13.428c-.017.02-.036.039-.052.06a111.629,111.629,0,0,1,18.487,10.656,41.18,41.18,0,0,0,7.981-24.144C553.075,419.893,549.843,419.572,545.348,419.258Z" transform="translate(-471.499 -378.335)" fill="#2fa444"/><path d="M495.92,397.453c-.041-.011-.084-.02-.124-.03-10.885-2.132-24.88-3.912-27.367-4.07a41.2,41.2,0,0,0-6.721,22.6c0,.016,0,.034,0,.049a205.978,205.978,0,0,1,21.458,2.91h0c-.008-.063-.014-.124-.023-.186a20.511,20.511,0,0,1-.158-2.486A20.118,20.118,0,0,1,495.92,397.453Z" transform="translate(-461.708 -374.559)" fill="#54ab34"/><path d="M545.7,417.588a83.949,83.949,0,0,0-15.407-9.925,19.977,19.977,0,0,1,3.034,9.353c0,.06.011.118.014.176,4.622.083,8.863.256,12.374.409A.042.042,0,0,1,545.7,417.588Z" transform="translate(-471.866 -376.678)" fill="#54ab34"/><path d="M486.9,423.36h0Z" transform="translate(-465.439 -379.003)" fill="#54ab34"/><path d="M501.886,398.158l-.015,0h0Z" transform="translate(-467.656 -375.27)" fill="#6ab451"/><path d="M548.393,419.327c4.495.314,7.727.635,8.937.762-1.237-.131-4.477-.465-8.953-.775A.068.068,0,0,0,548.393,419.327Z" transform="translate(-474.544 -378.403)" fill="#6ab451"/><path d="M548.393,419.327a.068.068,0,0,1-.015-.013h0A.045.045,0,0,0,548.393,419.327Z" transform="translate(-474.544 -378.403)" fill="#6ab451"/><path d="M507.741,383.323l-.224-.084c-.252-.092-.492-.177-.737-.266-2.936-1.056-5.628-1.9-8.057-2.582a71.579,71.579,0,0,0-14.94-2.728A41.655,41.655,0,0,0,469.6,391.03c2.487.158,16.483,1.937,27.367,4.07l.127.026.014,0a20.077,20.077,0,0,1,7.166-1.32c.285,0,1.008.026,1.085.029a81.793,81.793,0,0,1,29.879,2.949c.03.009.058.016.087.023A171.8,171.8,0,0,0,507.741,383.323Z" transform="translate(-462.876 -372.235)" fill="#bdc21a"/><path d="M501.886,398.158l-.015,0,.015,0Z" transform="translate(-467.656 -375.27)" fill="#bdc21a"/><path d="M502.87,379.925c13.04-2.673,26.9.442,30.994,1.505a41.365,41.365,0,0,0-47.614-4.711,69.842,69.842,0,0,1,14.94,2.728Q502.011,379.673,502.87,379.925Z" transform="translate(-465.343 -371.291)" fill="#21b8d9"/><path d="M486.25,377.663a71.58,71.58,0,0,1,14.94,2.728A69.84,69.84,0,0,0,486.25,377.663Z" transform="translate(-465.343 -372.235)" fill="#21b8d9"/><path d="M549.569,401.054q-1.206-.414-2.386-.78Q548.374,400.661,549.569,401.054Z" transform="translate(-474.367 -375.584)" fill="#4ec0db"/><path d="M513.982,384.162c-.249-.091-.494-.177-.737-.266C513.49,383.985,513.73,384.07,513.982,384.162Z" transform="translate(-469.341 -373.158)" fill="#4ec0db"/><path d="M541.955,397.788a162.613,162.613,0,0,0-27.582-13.481A171.812,171.812,0,0,1,541.955,397.788Z" transform="translate(-469.508 -373.219)" fill="#4ec0db"/><path d="M486.9,423.36" transform="translate(-465.439 -379.003)" fill="#fff"/><line transform="translate(21.461 44.357)" fill="#fff"/><g transform="translate(37.527 7.577)"><path d="M555.722,403.361c-.428-.194-1.116-.465-1.916-.763C554.443,402.846,555.079,403.091,555.722,403.361Z" transform="translate(-512.875 -383.505)" fill="none"/><path d="M543.434,398.079c1.072.369,2.16.774,3.256,1.2.8.3,1.488.569,1.916.763a41.518,41.518,0,0,0-11.852-17.294c-4.1-1.063-17.955-4.178-30.995-1.505,1.974.58,7.264,2.426,7.338,2.454a162.623,162.623,0,0,1,27.582,13.481l.186.063.183.058Q542.239,397.686,543.434,398.079Z" transform="translate(-505.759 -380.186)" fill="#4ec0db"/><path d="M549.467,402.423c-.643-.27-1.279-.515-1.916-.763-1.1-.425-2.184-.831-3.256-1.2q-1.2-.394-2.386-.78c-.062-.019-.123-.038-.183-.058-.091-.03-.183-.059-.273-.086a81.8,81.8,0,0,0-29.879-2.949,20.1,20.1,0,0,1,15.907,9.327l.039.061a83.939,83.939,0,0,1,15.406,9.925h0c4.476.31,7.716.644,8.953.775,0-.1,0-.193,0-.287A41.362,41.362,0,0,0,549.467,402.423Z" transform="translate(-506.62 -382.566)" fill="#6ab451"/></g></g><g transform="translate(557.458 397.413)"><g transform="translate(0 23.322)"><g transform="translate(32.837 0.298)"><path d="M615.149,433.432a1.322,1.322,0,0,1,.544.263,1.212,1.212,0,0,1,.319.423,1.934,1.934,0,0,1,.142.555,4.912,4.912,0,0,1,.041.644,5.442,5.442,0,0,1-.055.745,1.856,1.856,0,0,1-.246.69,1.459,1.459,0,0,1-.526.508,2.142,2.142,0,0,1-1.812,0,1.449,1.449,0,0,1-.529-.508,1.914,1.914,0,0,1-.244-.69,5.07,5.07,0,0,1-.057-.745,5.606,5.606,0,0,1,.038-.644,1.985,1.985,0,0,1,.148-.555,1.206,1.206,0,0,1,.314-.423,1.367,1.367,0,0,1,.549-.263l-.019-.022a1.114,1.114,0,0,1-.495-.238,1.208,1.208,0,0,1-.288-.406,1.96,1.96,0,0,1-.145-.532,4.628,4.628,0,0,1-.035-.608c0-.172.009-.365.03-.579a1.527,1.527,0,0,1,.2-.61,1.288,1.288,0,0,1,.492-.48,1.916,1.916,0,0,1,.951-.193,1.87,1.87,0,0,1,.94.193,1.315,1.315,0,0,1,.494.48,1.509,1.509,0,0,1,.2.61,5.2,5.2,0,0,1,.032.579,4.938,4.938,0,0,1-.036.608,2.094,2.094,0,0,1-.143.532,1.281,1.281,0,0,1-.293.406,1.182,1.182,0,0,1-.506.238Zm-.684,3.514a1.085,1.085,0,0,0,.536-.121.879.879,0,0,0,.342-.325,1.449,1.449,0,0,0,.185-.493,3.07,3.07,0,0,0,.06-.6c0-.2-.012-.4-.031-.6a1.515,1.515,0,0,0-.144-.545.972.972,0,0,0-.34-.4,1.277,1.277,0,0,0-1.226,0,1,1,0,0,0-.339.4,1.533,1.533,0,0,0-.144.545c-.019.2-.027.405-.027.6a2.963,2.963,0,0,0,.056.6,1.583,1.583,0,0,0,.186.493.878.878,0,0,0,.345.325A1.088,1.088,0,0,0,614.465,436.946Zm0-3.76a1.045,1.045,0,0,0,.5-.106.857.857,0,0,0,.329-.308,1.327,1.327,0,0,0,.172-.461,2.813,2.813,0,0,0,.056-.594,3.861,3.861,0,0,0-.045-.6,1.226,1.226,0,0,0-.169-.453.836.836,0,0,0-.321-.291,1.414,1.414,0,0,0-1.043,0,.837.837,0,0,0-.325.291,1.273,1.273,0,0,0-.164.453,3.366,3.366,0,0,0-.051.6,3.064,3.064,0,0,0,.055.594,1.315,1.315,0,0,0,.177.461.811.811,0,0,0,.325.308A1.043,1.043,0,0,0,614.465,433.186Z" transform="translate(-612.662 -429.693)" fill="#131313"/><path d="M614.454,437.515a1.888,1.888,0,0,1-.944-.209,1.51,1.51,0,0,1-.55-.532,1.871,1.871,0,0,1-.257-.714,5.634,5.634,0,0,1-.052-.755,5.2,5.2,0,0,1,.037-.655,2.061,2.061,0,0,1,.15-.571,1.236,1.236,0,0,1,.334-.445,1.266,1.266,0,0,1,.386-.219,1.3,1.3,0,0,1-.353-.206,1.272,1.272,0,0,1-.3-.43,2.047,2.047,0,0,1-.148-.55,5.243,5.243,0,0,1-.038-.617,5.583,5.583,0,0,1,.034-.585,1.59,1.59,0,0,1,.2-.638,1.373,1.373,0,0,1,.518-.506,2.464,2.464,0,0,1,1.958,0,1.4,1.4,0,0,1,.52.506,1.7,1.7,0,0,1,.205.638c.019.216.032.413.032.585a4.111,4.111,0,0,1-.043.617,2.156,2.156,0,0,1-.142.55,1.265,1.265,0,0,1-.314.43.249.249,0,1,0,.039.425,1.192,1.192,0,0,1,.333.445,1.946,1.946,0,0,1,.154.571,5.36,5.36,0,0,1,.039.655,4.741,4.741,0,0,1-.062.755,1.812,1.812,0,0,1-.251.714,1.478,1.478,0,0,1-.553.532A1.844,1.844,0,0,1,614.454,437.515Zm0-7.7a1.87,1.87,0,0,0-.913.181,1.23,1.23,0,0,0-.472.459,1.514,1.514,0,0,0-.188.584c-.019.21-.031.4-.031.571a4.518,4.518,0,0,0,.038.6,1.98,1.98,0,0,0,.137.512,1.067,1.067,0,0,0,.274.382,1.05,1.05,0,0,0,.463.224l.018.006.108.122-.108.025a1.265,1.265,0,0,0-.516.248,1.112,1.112,0,0,0-.3.4,1.892,1.892,0,0,0-.145.531,5.1,5.1,0,0,0-.035.639,5.4,5.4,0,0,0,.055.735,1.824,1.824,0,0,0,.239.667,1.39,1.39,0,0,0,.5.485,1.759,1.759,0,0,0,.876.188,1.719,1.719,0,0,0,.865-.188,1.359,1.359,0,0,0,.508-.485,1.873,1.873,0,0,0,.233-.667,5,5,0,0,0,.056-.735,5.471,5.471,0,0,0-.036-.639,2.019,2.019,0,0,0-.143-.531,1.2,1.2,0,0,0-.293-.4,1.375,1.375,0,0,0-.524-.248l-.052-.013v-.123l.055-.017a1.131,1.131,0,0,0,.474-.224,1.044,1.044,0,0,0,.274-.382,1.846,1.846,0,0,0,.14-.512,4.719,4.719,0,0,0,.037-.6c0-.169-.013-.36-.034-.571a1.442,1.442,0,0,0-.187-.584,1.22,1.22,0,0,0-.469-.459A1.848,1.848,0,0,0,614.454,429.817Zm0,7.183a1.2,1.2,0,0,1-.574-.124,1.027,1.027,0,0,1-.37-.35,1.625,1.625,0,0,1-.193-.516,2.98,2.98,0,0,1-.06-.619c0-.2.009-.406.026-.61a1.644,1.644,0,0,1,.154-.568,1,1,0,0,1,.358-.422,1.126,1.126,0,0,1,.657-.169,1.142,1.142,0,0,1,.653.169,1.045,1.045,0,0,1,.356.422,1.758,1.758,0,0,1,.151.568c.018.2.031.41.031.61a2.849,2.849,0,0,1-.063.619,1.664,1.664,0,0,1-.194.516.945.945,0,0,1-.365.35A1.173,1.173,0,0,1,614.454,437Zm0-3.244a1,1,0,0,0-.578.144.879.879,0,0,0-.317.371,1.55,1.55,0,0,0-.137.52c-.019.2-.032.4-.032.6a2.919,2.919,0,0,0,.057.593,1.439,1.439,0,0,0,.181.469.829.829,0,0,0,.319.306,1.244,1.244,0,0,0,1.01,0,.865.865,0,0,0,.316-.306,1.393,1.393,0,0,0,.179-.469,3.085,3.085,0,0,0,.056-.593c0-.2-.008-.4-.026-.6a1.579,1.579,0,0,0-.14-.52.9.9,0,0,0-.317-.371A.986.986,0,0,0,614.454,433.756Zm0-.511a1.175,1.175,0,0,1-.541-.117.914.914,0,0,1-.349-.33,1.507,1.507,0,0,1-.186-.487,3.258,3.258,0,0,1-.052-.607,3.689,3.689,0,0,1,.047-.608,1.319,1.319,0,0,1,.176-.48.862.862,0,0,1,.352-.313,1.257,1.257,0,0,1,.553-.108,1.234,1.234,0,0,1,.544.108.838.838,0,0,1,.354.313,1.422,1.422,0,0,1,.175.48,3.914,3.914,0,0,1,.05.608,3.653,3.653,0,0,1-.052.607,1.584,1.584,0,0,1-.19.487.881.881,0,0,1-.356.33A1.142,1.142,0,0,1,614.454,433.245Zm0-2.915a1.061,1.061,0,0,0-.491.1.676.676,0,0,0-.3.264,1.2,1.2,0,0,0-.163.429,3.923,3.923,0,0,0-.043.586,3.354,3.354,0,0,0,.05.577,1.287,1.287,0,0,0,.168.444.794.794,0,0,0,.3.28.989.989,0,0,0,.476.1,1.018,1.018,0,0,0,.467-.1.8.8,0,0,0,.3-.28,1.264,1.264,0,0,0,.162-.444,2.677,2.677,0,0,0,.055-.577,3.34,3.34,0,0,0-.048-.586,1.12,1.12,0,0,0-.159-.429.71.71,0,0,0-.3-.264A1.082,1.082,0,0,0,614.454,430.33Z" transform="translate(-612.651 -429.681)" fill="#131313"/></g><path d="M577.265,431.517a4.468,4.468,0,0,0-.066-.636,1.22,1.22,0,0,0-.175-.48.872.872,0,0,0-.349-.306,1.346,1.346,0,0,0-.572-.107,1.381,1.381,0,0,0-.889.256,1.16,1.16,0,0,0-.325.942,2.006,2.006,0,0,0,.092.675,1.167,1.167,0,0,0,.262.425,2.308,2.308,0,0,0,.409.326,6.343,6.343,0,0,1,.536.386,5.624,5.624,0,0,0,.62.448,2.857,2.857,0,0,1,.555.442,1.808,1.808,0,0,1,.389.591,2.334,2.334,0,0,1,.148.9,2.245,2.245,0,0,1-.463,1.547,2.1,2.1,0,0,1-2.835-.086,2.538,2.538,0,0,1-.421-1.728h.634c0,.211.006.423.026.631a1.721,1.721,0,0,0,.15.561.975.975,0,0,0,.388.4,1.457,1.457,0,0,0,.722.151,1.12,1.12,0,0,0,.9-.351,1.549,1.549,0,0,0,.293-1.021,1.7,1.7,0,0,0-.114-.664,1.566,1.566,0,0,0-.319-.488,2.851,2.851,0,0,0-.508-.421c-.2-.135-.421-.291-.668-.459a5.6,5.6,0,0,1-.78-.616,2.668,2.668,0,0,1-.417-.522,1.47,1.47,0,0,1-.173-.488,3.765,3.765,0,0,1-.029-.527,2.506,2.506,0,0,1,.131-.861,1.554,1.554,0,0,1,.377-.59,1.446,1.446,0,0,1,.59-.338,2.716,2.716,0,0,1,.768-.106,1.961,1.961,0,0,1,.875.172,1.332,1.332,0,0,1,.526.466,1.858,1.858,0,0,1,.26.675,4.066,4.066,0,0,1,.076.794Z" transform="translate(-574.116 -429.343)" fill="#131313"/><path d="M576.059,437.494a1.829,1.829,0,0,1-1.524-.619,2.662,2.662,0,0,1-.425-1.774v-.061h.762v.065a5.171,5.171,0,0,0,.031.622,1.423,1.423,0,0,0,.142.542.858.858,0,0,0,.359.374,1.373,1.373,0,0,0,.687.138,1.049,1.049,0,0,0,.843-.325,1.477,1.477,0,0,0,.279-.976,1.645,1.645,0,0,0-.111-.639,1.581,1.581,0,0,0-.306-.467,2.821,2.821,0,0,0-.494-.414c-.2-.134-.424-.287-.672-.459a5.865,5.865,0,0,1-.786-.623,2.392,2.392,0,0,1-.431-.533,1.51,1.51,0,0,1-.175-.511,3.976,3.976,0,0,1-.035-.538,2.493,2.493,0,0,1,.139-.886,1.483,1.483,0,0,1,1.009-.968,2.732,2.732,0,0,1,.786-.109,2,2,0,0,1,.9.176,1.38,1.38,0,0,1,.554.493,1.9,1.9,0,0,1,.275.7,4.4,4.4,0,0,1,.071.807v.068h-.751l0-.064a3.528,3.528,0,0,0-.062-.628,1.193,1.193,0,0,0-.171-.456.777.777,0,0,0-.318-.281,1.22,1.22,0,0,0-.542-.1,1.333,1.333,0,0,0-.846.243,1.075,1.075,0,0,0-.3.888,1.931,1.931,0,0,0,.087.653,1.065,1.065,0,0,0,.246.4,2.149,2.149,0,0,0,.4.314,5.849,5.849,0,0,1,.538.393c.211.164.418.315.622.445a3.309,3.309,0,0,1,.565.447,1.974,1.974,0,0,1,.4.616,2.4,2.4,0,0,1,.152.929,2.352,2.352,0,0,1-.477,1.595A1.838,1.838,0,0,1,576.059,437.494Zm-1.82-2.321a2.493,2.493,0,0,0,.4,1.619,2.041,2.041,0,0,0,2.74.079,2.184,2.184,0,0,0,.443-1.5,2.3,2.3,0,0,0-.144-.877,1.8,1.8,0,0,0-.377-.572,2.591,2.591,0,0,0-.54-.427,6.719,6.719,0,0,1-.63-.457,6.052,6.052,0,0,0-.526-.384,2.152,2.152,0,0,1-.424-.334,1.311,1.311,0,0,1-.278-.446,2.195,2.195,0,0,1-.093-.7,1.213,1.213,0,0,1,.352-.993,1.456,1.456,0,0,1,.928-.272,1.362,1.362,0,0,1,.6.115.9.9,0,0,1,.371.327,1.33,1.33,0,0,1,.2.506c.027.177.048.372.061.58h.487a4.69,4.69,0,0,0-.071-.714,1.739,1.739,0,0,0-.255-.651,1.3,1.3,0,0,0-.5-.443,1.823,1.823,0,0,0-.839-.163,2.587,2.587,0,0,0-.749.1,1.4,1.4,0,0,0-.562.321,1.446,1.446,0,0,0-.36.563,2.4,2.4,0,0,0-.127.839,5,5,0,0,0,.029.521,1.4,1.4,0,0,0,.165.463,2.47,2.47,0,0,0,.4.5,5.375,5.375,0,0,0,.773.608c.248.17.47.325.67.461a2.914,2.914,0,0,1,.517.432,1.684,1.684,0,0,1,.331.506,1.772,1.772,0,0,1,.121.691,1.621,1.621,0,0,1-.31,1.065,1.173,1.173,0,0,1-.945.372,1.545,1.545,0,0,1-.755-.158,1.018,1.018,0,0,1-.415-.43,1.625,1.625,0,0,1-.156-.587c-.017-.185-.026-.377-.026-.568Z" transform="translate(-574.105 -429.331)" fill="#131313"/><g transform="translate(4.959 0.149)"><path d="M583.12,429.588v.576h-2.507v2.891H583v.579h-2.388v3.105h2.571v.578H580v-7.728Z" transform="translate(-579.938 -429.518)" fill="#131313"/><path d="M583.244,437.372h-3.317v-7.866h3.246v.714h-2.5v2.754h2.394v.713h-2.394v2.97h2.575Zm-3.186-.135h3.051v-.445h-2.575v-3.242h2.392v-.444h-2.392v-3.022h2.508v-.442h-2.983Z" transform="translate(-579.927 -429.506)" fill="#131313"/></g><g transform="translate(9.045)"><path d="M584.8,433.422c0-.347,0-.689.008-1.021a7.877,7.877,0,0,1,.071-.946,4.527,4.527,0,0,1,.188-.825,1.885,1.885,0,0,1,.354-.649,1.612,1.612,0,0,1,.584-.418,2.2,2.2,0,0,1,.871-.152,2.181,2.181,0,0,1,.867.152,1.6,1.6,0,0,1,.585.418,1.9,1.9,0,0,1,.356.649,5.169,5.169,0,0,1,.189.825,8.861,8.861,0,0,1,.069.946c0,.332.009.675.009,1.021s-.005.693-.009,1.022a8.846,8.846,0,0,1-.069.949,5,5,0,0,1-.189.822,1.868,1.868,0,0,1-.356.651,1.609,1.609,0,0,1-.585.423,2.248,2.248,0,0,1-.867.148,2.271,2.271,0,0,1-.871-.148,1.625,1.625,0,0,1-.584-.423,1.855,1.855,0,0,1-.354-.651,4.393,4.393,0,0,1-.188-.822,7.868,7.868,0,0,1-.071-.949C584.806,434.115,584.8,433.776,584.8,433.422Zm.608,0c0,.516.008.983.025,1.4a4.327,4.327,0,0,0,.164,1.087,1.47,1.47,0,0,0,.438.7,1.548,1.548,0,0,0,1.678,0,1.483,1.483,0,0,0,.439-.7,4.322,4.322,0,0,0,.167-1.087c.018-.422.024-.889.024-1.4s-.006-.98-.024-1.4a4.279,4.279,0,0,0-.167-1.083,1.5,1.5,0,0,0-.439-.7,1.558,1.558,0,0,0-1.678,0,1.483,1.483,0,0,0-.438.7,4.284,4.284,0,0,0-.164,1.083C585.419,432.443,585.411,432.911,585.411,433.422Z" transform="translate(-584.735 -429.343)" fill="#131313"/><path d="M586.867,437.494a2.337,2.337,0,0,1-.893-.152,1.694,1.694,0,0,1-.615-.446,1.92,1.92,0,0,1-.367-.669,4.615,4.615,0,0,1-.188-.836,7.849,7.849,0,0,1-.073-.956c-.008-.329-.008-.675-.008-1.025s0-.693.008-1.021a7.765,7.765,0,0,1,.073-.954,4.687,4.687,0,0,1,.188-.839,2.01,2.01,0,0,1,.367-.669,1.715,1.715,0,0,1,.615-.442,2.661,2.661,0,0,1,1.785,0,1.624,1.624,0,0,1,.607.442,1.893,1.893,0,0,1,.373.669,5.778,5.778,0,0,1,.189.839,8.3,8.3,0,0,1,.072.954c0,.332.01.681.01,1.021s-.007.693-.01,1.025a8.39,8.39,0,0,1-.072.956,5.68,5.68,0,0,1-.189.836,1.814,1.814,0,0,1-.373.669,1.6,1.6,0,0,1-.607.446A2.341,2.341,0,0,1,586.867,437.494Zm0-8.027a2.209,2.209,0,0,0-.841.141,1.537,1.537,0,0,0-.56.406,1.8,1.8,0,0,0-.346.625,4.408,4.408,0,0,0-.182.814,7.588,7.588,0,0,0-.074.935c0,.329,0,.676,0,1.021s0,.693,0,1.022a7.636,7.636,0,0,0,.074.94,4.314,4.314,0,0,0,.182.811,1.725,1.725,0,0,0,.346.629,1.518,1.518,0,0,0,.56.4,2.5,2.5,0,0,0,1.682,0,1.564,1.564,0,0,0,.56-.4,1.993,1.993,0,0,0,.348-.625,4.424,4.424,0,0,0,.179-.814,6.838,6.838,0,0,0,.071-.94c.009-.33.015-.676.015-1.022s-.006-.683-.015-1.021a6.741,6.741,0,0,0-.071-.935,4.42,4.42,0,0,0-.179-.814,1.956,1.956,0,0,0-.348-.625,1.584,1.584,0,0,0-.56-.406A2.2,2.2,0,0,0,586.867,429.466Zm0,7.45a1.359,1.359,0,0,1-.885-.261,1.506,1.506,0,0,1-.454-.735,3.968,3.968,0,0,1-.17-1.1c-.017-.416-.028-.89-.028-1.406s.011-.985.028-1.4a3.963,3.963,0,0,1,.17-1.1,1.492,1.492,0,0,1,.454-.732,1.349,1.349,0,0,1,.885-.264,1.321,1.321,0,0,1,.878.264,1.478,1.478,0,0,1,.462.732,4.274,4.274,0,0,1,.169,1.1c.015.422.025.894.025,1.4s-.01.985-.025,1.406a4.269,4.269,0,0,1-.169,1.1,1.517,1.517,0,0,1-.457.735A1.35,1.35,0,0,1,586.867,436.916Zm0-6.873a1.239,1.239,0,0,0-.8.23,1.4,1.4,0,0,0-.414.67,4.059,4.059,0,0,0-.162,1.07c-.019.416-.027.888-.027,1.4s.008.985.027,1.4a4.058,4.058,0,0,0,.162,1.072,1.371,1.371,0,0,0,.414.67,1.5,1.5,0,0,0,1.593,0,1.41,1.41,0,0,0,.418-.67,4.322,4.322,0,0,0,.162-1.072c.017-.416.026-.888.026-1.4s-.009-.98-.026-1.4a4.325,4.325,0,0,0-.162-1.07,1.414,1.414,0,0,0-.418-.67A1.232,1.232,0,0,0,586.867,430.043Z" transform="translate(-584.723 -429.331)" fill="#131313"/></g><g transform="translate(14.409 0.149)"><path d="M591.708,434.446c0,.249.009.519.026.8a2.583,2.583,0,0,0,.154.791,1.324,1.324,0,0,0,.41.606,1.469,1.469,0,0,0,1.618,0,1.315,1.315,0,0,0,.415-.606,2.663,2.663,0,0,0,.153-.791c.017-.285.025-.555.025-.8v-4.858h.615v5.362a3.922,3.922,0,0,1-.168,1.236,1.966,1.966,0,0,1-.438.77,1.547,1.547,0,0,1-.64.4,2.682,2.682,0,0,1-.772.11,2.645,2.645,0,0,1-.763-.11,1.518,1.518,0,0,1-.642-.4,1.884,1.884,0,0,1-.439-.77,3.935,3.935,0,0,1-.163-1.236v-5.362h.61Z" transform="translate(-591.032 -429.518)" fill="#131313"/><path d="M593.094,437.52a2.753,2.753,0,0,1-.784-.113,1.572,1.572,0,0,1-.672-.415,2.12,2.12,0,0,1-.454-.8,4.076,4.076,0,0,1-.164-1.257v-5.432h.743v4.928c0,.249.009.519.023.8a3,3,0,0,0,.148.774,1.376,1.376,0,0,0,.4.577,1.428,1.428,0,0,0,1.531,0,1.34,1.34,0,0,0,.4-.577,2.764,2.764,0,0,0,.147-.774c.013-.284.023-.551.023-.8v-4.928h.741v5.432a4.173,4.173,0,0,1-.16,1.257,2.056,2.056,0,0,1-.457.8,1.569,1.569,0,0,1-.671.415A2.773,2.773,0,0,1,593.094,437.52Zm-1.941-7.877v5.295a4.011,4.011,0,0,0,.158,1.215,1.977,1.977,0,0,0,.422.745,1.431,1.431,0,0,0,.616.38,2.5,2.5,0,0,0,.745.11,2.542,2.542,0,0,0,.751-.11,1.458,1.458,0,0,0,.613-.38,1.933,1.933,0,0,0,.423-.745,4.078,4.078,0,0,0,.156-1.215v-5.295h-.473v4.791c0,.249-.011.519-.026.808a2.8,2.8,0,0,1-.154.809,1.439,1.439,0,0,1-.432.635,1.306,1.306,0,0,1-.859.257,1.291,1.291,0,0,1-.85-.257,1.416,1.416,0,0,1-.434-.635,2.924,2.924,0,0,1-.159-.809c-.015-.284-.022-.559-.022-.808v-4.791Z" transform="translate(-591.02 -429.506)" fill="#131313"/></g><g transform="translate(19.708 0.149)"><path d="M597.319,437.316v-7.728h.607v7.151H600.2v.578Z" transform="translate(-597.252 -429.518)" fill="#131313"/><path d="M600.259,437.372H597.24v-7.866h.744v7.151h2.276Zm-2.884-.135h2.747v-.445h-2.275v-7.15h-.473Z" transform="translate(-597.24 -429.506)" fill="#131313"/></g><g transform="translate(24.808 0.415)"><path d="M603.313,431.066c.219-.17.435-.352.641-.543a3.956,3.956,0,0,0,.559-.625h.532v7.464h-.571v-6.6c-.187.189-.375.377-.566.55a7.6,7.6,0,0,1-.6.5Z" transform="translate(-603.24 -429.83)" fill="#131313"/><path d="M605.1,437.419h-.708v-6.507c-.148.151-.3.3-.447.433-.192.175-.4.344-.6.5l-.112.08v-.907l.029-.019c.221-.17.435-.351.64-.539a3.813,3.813,0,0,0,.547-.616l.021-.028h.635Zm-.568-.135h.434v-7.33h-.429a4.248,4.248,0,0,1-.549.61,7.383,7.383,0,0,1-.623.52v.572c.17-.13.335-.268.491-.411.19-.175.378-.354.556-.547l.121-.124Z" transform="translate(-603.227 -429.818)" fill="#131313"/></g><g transform="translate(28.604 0.298)"><path d="M609.349,434.4a1.33,1.33,0,0,1-1.235-.578,3.488,3.488,0,0,1-.356-1.769,5.8,5.8,0,0,1,.071-.91,2.1,2.1,0,0,1,.265-.721,1.385,1.385,0,0,1,.508-.481,1.692,1.692,0,0,1,.827-.177,1.974,1.974,0,0,1,.976.2,1.217,1.217,0,0,1,.521.572,2.708,2.708,0,0,1,.2.913c.023.355.036.757.036,1.206v.925q0,1.012-.036,1.752a4.556,4.556,0,0,1-.194,1.211,1.306,1.306,0,0,1-.506.7,1.711,1.711,0,0,1-.953.228,1.615,1.615,0,0,1-1.228-.414,1.983,1.983,0,0,1-.412-1.366h.614a1.463,1.463,0,0,0,.208.878.817.817,0,0,0,.744.319,1.234,1.234,0,0,0,.69-.16.973.973,0,0,0,.336-.538,3.979,3.979,0,0,0,.127-.968c.006-.4.019-.89.036-1.468h-.018a1.336,1.336,0,0,1-.542.5A1.51,1.51,0,0,1,609.349,434.4Zm.06-.578a.98.98,0,0,0,.643-.2,1.178,1.178,0,0,0,.341-.457,1.93,1.93,0,0,0,.136-.558c.012-.194.025-.349.025-.47,0-.238-.006-.461-.019-.675a2.017,2.017,0,0,0-.121-.576.935.935,0,0,0-.333-.4,1.121,1.121,0,0,0-.635-.149.91.91,0,0,0-.894.54,1.558,1.558,0,0,0-.15.545c-.02.2-.036.413-.036.626s.015.418.036.626a2.147,2.147,0,0,0,.135.569,1.036,1.036,0,0,0,.319.412A.878.878,0,0,0,609.41,433.821Z" transform="translate(-607.693 -429.693)" fill="#131313"/><path d="M609.464,437.515a1.69,1.69,0,0,1-1.278-.432,2.1,2.1,0,0,1-.428-1.411V435.6h.747v.068a1.421,1.421,0,0,0,.2.835.762.762,0,0,0,.69.292,1.134,1.134,0,0,0,.652-.152.892.892,0,0,0,.314-.5,4.465,4.465,0,0,0,.118-.955c.008-.351.023-.768.033-1.274a1.355,1.355,0,0,1-.451.367,1.622,1.622,0,0,1-.718.164,1.4,1.4,0,0,1-1.291-.608,3.576,3.576,0,0,1-.365-1.805,4.987,4.987,0,0,1,.076-.92,1.887,1.887,0,0,1,.273-.746,1.425,1.425,0,0,1,.531-.508,1.775,1.775,0,0,1,.856-.185,2.032,2.032,0,0,1,1.01.21,1.28,1.28,0,0,1,.547.6,2.623,2.623,0,0,1,.211.935c.027.355.035.764.035,1.211v.925c0,.671-.008,1.264-.035,1.756a4.526,4.526,0,0,1-.2,1.229,1.357,1.357,0,0,1-.529.73A1.771,1.771,0,0,1,609.464,437.515Zm-1.567-1.777a1.854,1.854,0,0,0,.389,1.247,1.547,1.547,0,0,0,1.178.4,1.65,1.65,0,0,0,.918-.214,1.258,1.258,0,0,0,.477-.665,4.275,4.275,0,0,0,.19-1.188c.022-.491.035-1.079.035-1.751v-.925c0-.444-.013-.848-.035-1.2a2.577,2.577,0,0,0-.2-.89,1.17,1.17,0,0,0-.49-.54,1.938,1.938,0,0,0-.946-.188,1.613,1.613,0,0,0-.791.168,1.309,1.309,0,0,0-.483.457,1.913,1.913,0,0,0-.255.7,5.318,5.318,0,0,0-.071.9,3.4,3.4,0,0,0,.344,1.731,1.26,1.26,0,0,0,1.176.546,1.535,1.535,0,0,0,.655-.147,1.217,1.217,0,0,0,.506-.474l.025-.032h.126l-.006.07c-.01.594-.022,1.073-.035,1.468a4.376,4.376,0,0,1-.129.983,1.012,1.012,0,0,1-.36.574,1.277,1.277,0,0,1-.73.177.91.91,0,0,1-.8-.349,1.547,1.547,0,0,1-.222-.849Zm1.5-1.863a.952.952,0,0,1-.595-.175,1.053,1.053,0,0,1-.337-.44,2.435,2.435,0,0,1-.143-.584c-.019-.212-.032-.427-.032-.635s.013-.43.032-.634a1.9,1.9,0,0,1,.154-.566,1.013,1.013,0,0,1,.356-.417,1,1,0,0,1,.6-.165,1.175,1.175,0,0,1,.669.163.92.92,0,0,1,.352.431,1.72,1.72,0,0,1,.13.594c.017.217.023.443.023.681,0,.121-.011.276-.025.474a2,2,0,0,1-.133.577,1.309,1.309,0,0,1-.365.489A1.062,1.062,0,0,1,609.4,433.875Zm.037-3.48a.926.926,0,0,0-.529.136.9.9,0,0,0-.307.368,1.508,1.508,0,0,0-.14.522,5.521,5.521,0,0,0-.035.618,5.893,5.893,0,0,0,.035.623,1.94,1.94,0,0,0,.129.547.928.928,0,0,0,.3.383.814.814,0,0,0,.513.151.932.932,0,0,0,.6-.18,1.1,1.1,0,0,0,.321-.433,1.76,1.76,0,0,0,.133-.538c.017-.191.023-.35.023-.465,0-.234,0-.461-.019-.675a1.679,1.679,0,0,0-.118-.546.808.808,0,0,0-.309-.376A1.077,1.077,0,0,0,609.436,430.395Z" transform="translate(-607.682 -429.681)" fill="#131313"/></g><g transform="translate(37.036 0.298)"><path d="M620.081,433.432a1.383,1.383,0,0,1,.55.263,1.26,1.26,0,0,1,.313.423,1.921,1.921,0,0,1,.145.555,5.408,5.408,0,0,1,.037.644,4.955,4.955,0,0,1-.055.745,1.784,1.784,0,0,1-.245.69,1.417,1.417,0,0,1-.526.508,2.136,2.136,0,0,1-1.809,0,1.458,1.458,0,0,1-.529-.508,1.89,1.89,0,0,1-.245-.69,5.354,5.354,0,0,1-.016-1.389,2.077,2.077,0,0,1,.145-.555,1.206,1.206,0,0,1,.317-.423,1.326,1.326,0,0,1,.545-.263l-.016-.022a1.092,1.092,0,0,1-.492-.238,1.236,1.236,0,0,1-.294-.406,2.021,2.021,0,0,1-.139-.532,4.616,4.616,0,0,1-.038-.608c0-.172.012-.365.029-.579a1.693,1.693,0,0,1,.2-.61,1.344,1.344,0,0,1,.493-.48,2.412,2.412,0,0,1,1.889,0,1.313,1.313,0,0,1,.5.48,1.563,1.563,0,0,1,.2.61,4.8,4.8,0,0,1,.03.579,4.643,4.643,0,0,1-.032.608,2.049,2.049,0,0,1-.146.532,1.085,1.085,0,0,1-.295.406,1.132,1.132,0,0,1-.5.238Zm-.687,3.514a1.08,1.08,0,0,0,.538-.121.851.851,0,0,0,.345-.325,1.5,1.5,0,0,0,.183-.493,3.087,3.087,0,0,0,.059-.6c0-.2-.011-.4-.03-.6a1.547,1.547,0,0,0-.141-.545.964.964,0,0,0-.337-.4,1.285,1.285,0,0,0-1.23,0,.989.989,0,0,0-.337.4,1.53,1.53,0,0,0-.144.545,6,6,0,0,0-.027.6,2.739,2.739,0,0,0,.057.6,1.518,1.518,0,0,0,.183.493.908.908,0,0,0,.343.325A1.088,1.088,0,0,0,619.394,436.946Zm0-3.76a1.039,1.039,0,0,0,.5-.106.831.831,0,0,0,.329-.308,1.223,1.223,0,0,0,.177-.461,3.063,3.063,0,0,0,.056-.594,3.278,3.278,0,0,0-.052-.6,1.227,1.227,0,0,0-.167-.453.8.8,0,0,0-.319-.291,1.185,1.185,0,0,0-.523-.1,1.16,1.16,0,0,0-.519.1.827.827,0,0,0-.326.291,1.258,1.258,0,0,0-.167.453,3.447,3.447,0,0,0-.048.6,3,3,0,0,0,.055.594,1.415,1.415,0,0,0,.176.461.828.828,0,0,0,.325.308A1.041,1.041,0,0,0,619.394,433.186Z" transform="translate(-617.592 -429.693)" fill="#131313"/><path d="M619.382,437.515a1.872,1.872,0,0,1-.94-.209,1.5,1.5,0,0,1-.551-.532,1.986,1.986,0,0,1-.254-.714,5.132,5.132,0,0,1-.057-.755,5.867,5.867,0,0,1,.038-.655,2.147,2.147,0,0,1,.154-.571,1.209,1.209,0,0,1,.336-.445,1.171,1.171,0,0,1,.383-.219,1.228,1.228,0,0,1-.349-.206,1.156,1.156,0,0,1-.3-.43,2.026,2.026,0,0,1-.15-.55,4.76,4.76,0,0,1-.037-.617,4.947,4.947,0,0,1,.033-.585,1.6,1.6,0,0,1,.2-.638,1.412,1.412,0,0,1,.517-.506,2.014,2.014,0,0,1,.981-.2,1.976,1.976,0,0,1,.976.2,1.4,1.4,0,0,1,.522.506,1.671,1.671,0,0,1,.2.638c.019.216.036.413.036.585a5.1,5.1,0,0,1-.041.617,2.142,2.142,0,0,1-.145.55,1.208,1.208,0,0,1-.314.43,1.187,1.187,0,0,1-.352.2,1.167,1.167,0,0,1,.391.224,1.2,1.2,0,0,1,.332.445,2.008,2.008,0,0,1,.157.571,5.933,5.933,0,0,1,.036.655,5.515,5.515,0,0,1-.056.755,1.951,1.951,0,0,1-.252.714,1.492,1.492,0,0,1-.554.532A1.866,1.866,0,0,1,619.382,437.515Zm0-7.7a1.828,1.828,0,0,0-.906.181,1.222,1.222,0,0,0-.474.459,1.553,1.553,0,0,0-.186.584,5.5,5.5,0,0,0-.035.571,4.267,4.267,0,0,0,.04.6,1.793,1.793,0,0,0,.14.512,1.054,1.054,0,0,0,.274.382,1.032,1.032,0,0,0,.46.224l.017.006.111.122-.111.025a1.3,1.3,0,0,0-.521.248,1.181,1.181,0,0,0-.3.4,1.948,1.948,0,0,0-.139.531,5.1,5.1,0,0,0-.037.639,4.994,4.994,0,0,0,.056.735,1.843,1.843,0,0,0,.234.667,1.4,1.4,0,0,0,.5.485,2.111,2.111,0,0,0,1.743,0,1.413,1.413,0,0,0,.5-.485,1.781,1.781,0,0,0,.233-.667,4.692,4.692,0,0,0,.055-.735,5.12,5.12,0,0,0-.031-.639,1.974,1.974,0,0,0-.147-.531,1.1,1.1,0,0,0-.295-.4,1.319,1.319,0,0,0-.523-.248l-.048-.013v-.123l.052-.017a1.155,1.155,0,0,0,.476-.224,1.061,1.061,0,0,0,.278-.382,1.973,1.973,0,0,0,.137-.512,4.735,4.735,0,0,0,.033-.6c0-.169-.009-.36-.026-.571a1.607,1.607,0,0,0-.188-.584,1.234,1.234,0,0,0-.473-.459A1.85,1.85,0,0,0,619.382,429.817Zm0,7.183a1.2,1.2,0,0,1-.571-.124,1.038,1.038,0,0,1-.369-.35,1.511,1.511,0,0,1-.191-.516,2.924,2.924,0,0,1-.061-.619c0-.2.011-.406.03-.61a1.523,1.523,0,0,1,.15-.568,1.036,1.036,0,0,1,.358-.422,1.141,1.141,0,0,1,.654-.169,1.128,1.128,0,0,1,.653.169,1.062,1.062,0,0,1,.363.422,1.83,1.83,0,0,1,.147.568c.016.2.027.41.027.61a2.79,2.79,0,0,1-.059.619,1.606,1.606,0,0,1-.193.516.943.943,0,0,1-.369.35A1.173,1.173,0,0,1,619.382,437Zm0-3.244a1,1,0,0,0-.577.144.886.886,0,0,0-.314.371,1.473,1.473,0,0,0-.138.52,5.969,5.969,0,0,0-.031.6,3.249,3.249,0,0,0,.059.593,1.451,1.451,0,0,0,.176.469.87.87,0,0,0,.32.306,1.243,1.243,0,0,0,1.01,0,.892.892,0,0,0,.319-.306,1.5,1.5,0,0,0,.177-.469,3.179,3.179,0,0,0,.06-.593,5.671,5.671,0,0,0-.033-.6,1.634,1.634,0,0,0-.134-.52.9.9,0,0,0-.319-.371A1,1,0,0,0,619.382,433.756Zm0-.511a1.156,1.156,0,0,1-.537-.117.935.935,0,0,1-.35-.33,1.56,1.56,0,0,1-.182-.487,2.961,2.961,0,0,1-.057-.607,3.258,3.258,0,0,1,.053-.608,1.318,1.318,0,0,1,.175-.48.854.854,0,0,1,.353-.313,1.225,1.225,0,0,1,.547-.108,1.264,1.264,0,0,1,.551.108.836.836,0,0,1,.35.313,1.349,1.349,0,0,1,.176.48,3.83,3.83,0,0,1,.047.608,3.412,3.412,0,0,1-.05.607,1.467,1.467,0,0,1-.189.487.876.876,0,0,1-.354.33A1.147,1.147,0,0,1,619.382,433.245Zm0-2.915a1.082,1.082,0,0,0-.489.1.7.7,0,0,0-.3.264,1.212,1.212,0,0,0-.16.429,3.626,3.626,0,0,0-.041.586,3.3,3.3,0,0,0,.047.577,1.3,1.3,0,0,0,.167.444.793.793,0,0,0,.3.28,1.139,1.139,0,0,0,.943,0,.782.782,0,0,0,.3-.28,1.34,1.34,0,0,0,.164-.444,2.916,2.916,0,0,0,.054-.577,3.4,3.4,0,0,0-.05-.586,1.105,1.105,0,0,0-.158-.429.671.671,0,0,0-.3-.264A1.079,1.079,0,0,0,619.382,430.33Z" transform="translate(-617.58 -429.681)" fill="#131313"/></g></g><path d="M577.988,401.954q-3.878,0-3.883,3.974v7.631a3.827,3.827,0,0,0,.843,2.741,3.973,3.973,0,0,0,3.039,1q3.913,0,3.912-3.971V405.7a3.887,3.887,0,0,0-.849-2.76A4.056,4.056,0,0,0,577.988,401.954ZM579.6,413.69c0,1.322-.539,1.986-1.611,1.986q-1.585,0-1.584-1.986v-7.928c0-1.45.528-2.178,1.584-2.178,1.072,0,1.611.728,1.611,2.178Z" transform="translate(-574.105 -401.954)" fill="#131313"/><path d="M587.742,402.1h-2.294v15.1H591.6v-1.754h-3.863Z" transform="translate(-575.785 -401.976)" fill="#131313"/><path d="M594.973,408.461h-.049l-2-6.359h-2.3l3.179,8.91v6.19H596.1v-6.19l3.2-8.91h-2.026Z" transform="translate(-576.552 -401.976)" fill="#131313"/><path d="M608.3,413.6h-.049l-2.117-11.5h-3.658v15.1H604.5v-13.6l2.608,13.6h2.328l2.378-13.6v13.6h2.159V402.1h-3.565Z" transform="translate(-578.307 -401.976)" fill="#131313"/><path d="M622.041,402.1h-3.792v15.1h2.3v-6.566h1.491c1.553,0,2.56-.277,3.025-.818s.706-1.692.706-3.448-.238-2.913-.706-3.452S623.594,402.1,622.041,402.1Zm1.155,6.378c-.183.266-.67.4-1.452.4H620.55v-5.021h1.194c.781,0,1.269.133,1.452.4a8.319,8.319,0,0,1,0,4.225Z" transform="translate(-580.643 -401.976)" fill="#131313"/><rect width="2.301" height="15.1" transform="translate(46.717 0.126)" fill="#131313"/><path d="M637.416,401.954q-3.886,0-3.887,3.974v7.631a3.874,3.874,0,0,0,.831,2.741,3.917,3.917,0,0,0,3.012,1q3.38,0,3.377-2.8v-1.671h-2.157v1.043c0,1.2-.465,1.8-1.4,1.8q-1.362,0-1.36-2.095v-7.4a6.675,6.675,0,0,1,.14-1.677,1.232,1.232,0,0,1,1.289-.922c.889,0,1.336.526,1.336,1.568V406.2h2.157v-1.507Q640.749,401.958,637.416,401.954Z" transform="translate(-582.906 -401.954)" fill="#131313"/><path d="M655.71,402.919c-.464-.545-1.478-.817-3.025-.817h-3.8v15.1h2.3v-6.566h1.5c1.547,0,2.561-.277,3.025-.818s.7-1.692.7-3.448S656.181,403.458,655.71,402.919Zm-1.871,5.561c-.19.266-.668.4-1.451.4h-1.2v-5.021h1.2c.783,0,1.261.133,1.451.4a8.27,8.27,0,0,1,0,4.225Z" transform="translate(-585.181 -401.976)" fill="#131313"/><path d="M660.624,402.1l-3.662,15.1h2.3l.758-3.85h3.589l.756,3.85h2.3l-3.385-15.1Zm-.258,9.5,1.453-7.278h.042l1.426,7.278Z" transform="translate(-586.377 -401.976)" fill="#131313"/><path d="M676.8,408.5a4.845,4.845,0,0,0,.389-2.282c0-1.713-.2-2.813-.6-3.3-.441-.545-1.479-.817-3.1-.817H669.92v15.1h2.3v-6.566h.785a2.093,2.093,0,0,1,1.461.354,2.234,2.234,0,0,1,.331,1.442v3.412a2.7,2.7,0,0,0,.275,1.358h2.117a14.456,14.456,0,0,1-.093-1.924V412a2.457,2.457,0,0,0-.472-1.643,2.314,2.314,0,0,0-1.62-.659v-.043A2.775,2.775,0,0,0,676.8,408.5Zm-2.268-.062c-.239.293-.8.439-1.715.439h-.6v-5.021h1.107c.719,0,1.16.13,1.321.389a5.032,5.032,0,0,1,.241,2.061A3.942,3.942,0,0,1,674.536,408.44Z" transform="translate(-588.296 -401.976)" fill="#131313"/><path d="M685.112,409.193l3.868-7.091h-2.32L683,408.983V402.1h-2.3v15.1H683v-7.551l3.665,7.551h2.594Z" transform="translate(-589.892 -401.976)" fill="#131313"/></g></g></svg>