<svg xmlns="http://www.w3.org/2000/svg" width="25" height="479.949" viewBox="0 0 25 479.949">
  <g id="그룹_17917" data-name="그룹 17917" transform="translate(-649 -238.051)">
    <g id="i2" transform="translate(649.026 238.051)">
      <g id="logo_olympic" transform="translate(0 0)">
        <g id="그룹_897" data-name="그룹 897" transform="translate(0)">
          <path id="패스_79" data-name="패스 79" d="M237.458,165.751l-.038-.008.038.009h0Z" transform="translate(-227.182 -158.876)" fill="none"/>
          <path id="패스_80" data-name="패스 80" d="M363.764,174.245a14.987,14.987,0,0,0-1.564-.594C362.713,173.827,363.234,174.023,363.764,174.245Z" transform="translate(-339.631 -166.003)" fill="none"/>
          <path id="패스_81" data-name="패스 81" d="M242.759,121.105c.735.205,1.549.461,2.437.781-.687-.249-1.332-.461-1.929-.636Q243.008,121.173,242.759,121.105Z" transform="translate(-232.001 -118.638)" fill="none"/>
          <path id="패스_82" data-name="패스 82" d="M269.517,129.774l-.068-.026Z" transform="translate(-256.042 -126.419)" fill="none"/>
          <path id="패스_83" data-name="패스 83" d="M353.575,170.848l.138.043-.111-.036Z" transform="translate(-331.866 -163.476)" fill="none"/>
          <path id="패스_84" data-name="패스 84" d="M146.393,228.294a6.054,6.054,0,0,1-5.982-5.277h0a61.6,61.6,0,0,0-6.439-.881,12.4,12.4,0,0,0,22.449,7.376,33.463,33.463,0,0,0-5.548-3.224A6,6,0,0,1,146.393,228.294Z" transform="translate(-133.97 -209.779)" fill="#2e6a4d"/>
          <path id="패스_85" data-name="패스 85" d="M199.091,230.97h0Z" transform="translate(-192.646 -217.649)" fill="#2fa444"/>
          <path id="패스_86" data-name="패스 86" d="M310.193,219.43c-1.062-.046-2.345-.1-3.743-.124.006.117.011.235.011.354a6.062,6.062,0,0,1-1.555,4.062l-.016.018a33.806,33.806,0,0,1,5.593,3.224,12.456,12.456,0,0,0,2.414-7.3C312.531,219.622,311.553,219.525,310.193,219.43Z" transform="translate(-288.033 -207.178)" fill="#2fa444"/>
          <path id="패스_87" data-name="패스 87" d="M144.315,154.633l-.038-.009c-3.293-.645-7.527-1.183-8.279-1.231a12.462,12.462,0,0,0-2.033,6.838s0,.01,0,.014a62.567,62.567,0,0,1,6.491.881h0c0-.019,0-.037-.007-.056a6.184,6.184,0,0,1-.048-.752A6.087,6.087,0,0,1,144.315,154.633Z" transform="translate(-133.965 -147.767)" fill="#54ab34"/>
          <path id="패스_88" data-name="패스 88" d="M315.951,193.388a25.4,25.4,0,0,0-4.661-3,6.044,6.044,0,0,1,.918,2.83c0,.018,0,.035,0,.053,1.4.025,2.681.078,3.743.124Z" transform="translate(-293.795 -181.089)" fill="#54ab34"/>
          <path id="패스_89" data-name="패스 89" d="M199.091,230.97h0Z" transform="translate(-192.646 -217.649)" fill="#54ab34"/>
          <path id="패스_90" data-name="패스 90" d="M237.809,165.812h0Z" transform="translate(-227.529 -158.938)" fill="#6ab451"/>
          <path id="패스_91" data-name="패스 91" d="M358.053,220.517c1.36.094,2.338.192,2.7.23-.374-.039-1.354-.14-2.708-.234Z" transform="translate(-335.893 -208.227)" fill="#6ab451"/>
          <path id="패스_92" data-name="패스 92" d="M358.053,220.517l0,0h0Z" transform="translate(-335.893 -208.226)" fill="#6ab451"/>
          <path id="패스_93" data-name="패스 93" d="M165.8,114.54l-.067-.026-.221-.081c-.88-.32-1.687-.576-2.415-.781a21.266,21.266,0,0,0-4.479-.825,12.532,12.532,0,0,0-4.253,4.044c.745.048,4.941.586,8.2,1.231l.038.008h0a5.966,5.966,0,0,1,2.148-.4c.086,0,.3.008.325.009a24.309,24.309,0,0,1,8.957.892l.026.007A51.321,51.321,0,0,0,165.8,114.54Z" transform="translate(-152.328 -111.186)" fill="#bdc21a"/>
          <path id="패스_94" data-name="패스 94" d="M237.809,165.812h0Z" transform="translate(-227.529 -158.938)" fill="#bdc21a"/>
          <path id="패스_95" data-name="패스 95" d="M202.444,98.964a22.527,22.527,0,0,1,9.376.455,12.514,12.514,0,0,0-14.4-1.425,21.127,21.127,0,0,1,4.52.825Q202.184,98.888,202.444,98.964Z" transform="translate(-191.199 -96.352)" fill="#21b8d9"/>
          <path id="패스_96" data-name="패스 96" d="M197.416,112.828a21.641,21.641,0,0,1,4.52.825A21.126,21.126,0,0,0,197.416,112.828Z" transform="translate(-191.147 -111.186)" fill="#21b8d9"/>
          <path id="패스_97" data-name="패스 97" d="M355.68,171.517q-.365-.125-.722-.236Z" transform="translate(-333.111 -163.867)" fill="#4ec0db"/>
          <path id="패스_98" data-name="패스 98" d="M267.435,129.021l-.223-.081Z" transform="translate(-254.027 -125.692)" fill="#4ec0db"/>
          <path id="패스_99" data-name="패스 99" d="M278.475,134.082A49.233,49.233,0,0,0,270.131,130,52,52,0,0,1,278.475,134.082Z" transform="translate(-256.739 -126.65)" fill="#4ec0db"/>
          <path id="패스_100" data-name="패스 100" d="M199.1,230.97" transform="translate(-192.652 -217.648)" fill="#fff"/>
          <line id="선_6" data-name="선 6" transform="translate(6.445 13.322)" fill="#fff"/>
          <g id="그룹_896" data-name="그룹 896" transform="translate(11.172 2.292)">
            <path id="패스_101" data-name="패스 101" d="M372.661,177.524c-.129-.059-.338-.14-.579-.231C372.275,177.368,372.467,177.442,372.661,177.524Z" transform="translate(-359.699 -171.517)" fill="none"/>
            <path id="패스_102" data-name="패스 102" d="M259.255,124.762c.324.111.654.234.985.363.242.09.45.172.579.231a12.559,12.559,0,0,0-3.586-5.231,22.527,22.527,0,0,0-9.376-.455c.6.175,2.2.734,2.22.743a49.236,49.236,0,0,1,8.344,4.078l.056.019.055.017Z" transform="translate(-247.858 -119.349)" fill="#4ec0db"/>
            <path id="패스_103" data-name="패스 103" d="M274.354,162.771c-.195-.081-.387-.156-.579-.231-.331-.129-.661-.252-.985-.363l-.722-.236-.055-.017-.083-.026a24.749,24.749,0,0,0-9.039-.892,6.081,6.081,0,0,1,4.813,2.822l.012.018a25.4,25.4,0,0,1,4.661,3h0c1.354.094,2.334.195,2.708.234,0-.029,0-.058,0-.087A12.517,12.517,0,0,0,274.354,162.771Z" transform="translate(-261.392 -156.765)" fill="#6ab451"/>
          </g>
        </g>
      </g>
    </g>
    <g id="i9" transform="translate(649.392 483)">
      <rect id="bg" width="25" height="25" rx="8" transform="translate(-0.392)" fill="#3459da"/>
      <g id="그룹_16965" data-name="그룹 16965" transform="translate(7.046 6.209)">
        <path id="패스_29083" data-name="패스 29083" d="M7.355,5.059H4.631V7.711c-.03.953-.725.953-.953.953s-.923,0-.954-.973V0H0V7.711a3.574,3.574,0,0,0,3.677,3.677A3.574,3.574,0,0,0,7.355,7.711Z" transform="translate(11.642 0) rotate(90)" fill="#fff"/>
        <path id="패스_29084" data-name="패스 29084" d="M7.355,11.6H4.631V3.677c-.03-.953-.725-.953-.953-.953s-.923,0-.954.973V5.967H0V3.677A3.574,3.574,0,0,1,3.677,0,3.574,3.574,0,0,1,7.355,3.677Z" transform="translate(11.604 4.637) rotate(90)" fill="#fff"/>
      </g>
    </g>
    <g id="i3" transform="translate(649.831 273.206)">
      <g id="logo_misa" transform="translate(0 0)">
        <path id="패스_198" data-name="패스 198" d="M19.183,65.916H8.484V62.659L2.207,61.577V72.192H25.462V65.568l-6.279-1.08Z" transform="translate(-2.207 -48.934)" fill="#00578f"/>
        <path id="패스_199" data-name="패스 199" d="M13.9,64.789l6.279,1.08V60.908l-6.279.925Z" transform="translate(3.074 -49.237)" fill="#0087c1"/>
        <path id="패스_200" data-name="패스 200" d="M8.445,58.029l.97.258h6.951v1.822l.312.078,5.967-.2V54.772L9.294,58.222Z" transform="translate(0.61 -52.007)" fill="#bdc21a"/>
        <path id="패스_201" data-name="패스 201" d="M8.484,57.917h3.748l-.97-.258L2.207,55.591v4.822L8.484,60.2Z" transform="translate(-2.207 -51.637)" fill="#abdbd6"/>
        <path id="패스_202" data-name="패스 202" d="M14.214,58.528l-.312-.08v.091Z" transform="translate(3.074 -50.347)" fill="#abdbd6"/>
        <path id="패스_203" data-name="패스 203" d="M2.207,52.867v.983l23.255,1.067v-2.05Z" transform="translate(-2.207 -52.867)" fill="#5aae40"/>
        <path id="패스_204" data-name="패스 204" d="M2.207,56.517,9.463,58.1l1.8.479.849.193,13.351-3.45v-.714L2.207,53.544Z" transform="translate(-2.207 -52.562)" fill="#85ba34"/>
        <path id="패스_205" data-name="패스 205" d="M9.463,57.18,2.207,55.592l9.055,2.067Z" transform="translate(-2.207 -51.637)" fill="#85ba34"/>
        <path id="패스_206" data-name="패스 206" d="M8.484,58.766l-6.276.215v3.867l6.276,1.081Z" transform="translate(-2.207 -50.204)" fill="#00abdc"/>
        <path id="패스_207" data-name="패스 207" d="M13.9,58.577v4.4l6.279-.925V58.365l-4.327.151Z" transform="translate(3.074 -50.385)" fill="#00abdc"/>
      </g>
    </g>
    <g id="i10" transform="translate(649.392 518.375)">
      <rect id="bg-2" data-name="bg" width="25" height="25" rx="8" transform="translate(-0.392 -0.375)" fill="#1093ce"/>
      <g id="그룹_16959" data-name="그룹 16959" transform="translate(5.085 5.965)">
        <path id="패스_29075" data-name="패스 29075" d="M891.2-940.034a4.428,4.428,0,0,1-4.556-4.556v-3.286h3.375v3.286c.037,1.181.9,1.181,1.181,1.181s1.144,0,1.182-1.2v-2.055h3.375v2.078A4.428,4.428,0,0,1,891.2-940.034Z" transform="translate(-886.643 953.303)" fill="#fff"/>
        <g id="그룹_16958" data-name="그룹 16958" transform="translate(5.737 0)">
          <path id="패스_126" data-name="패스 126" d="M912.755-956.114H909.38V-959.4c-.037-1.181-.9-1.181-1.181-1.181s-1.144,0-1.182,1.205v2.054h-3.375V-959.4a4.428,4.428,0,0,1,4.556-4.556,4.428,4.428,0,0,1,4.556,4.556Z" transform="translate(-903.643 963.956)" fill="#fff"/>
        </g>
      </g>
    </g>
    <g id="i4" transform="translate(649 307.751)">
      <rect id="bg-3" data-name="bg" width="25" height="25" rx="8" transform="translate(0 0.249)" fill="#d62478"/>
      <g id="그룹_16952" data-name="그룹 16952" transform="translate(4.153 5.814)">
        <path id="패스_29070" data-name="패스 29070" d="M552.82-954.422l3.573-2.82v-4l-8.638,6.817,8.638,6.816v-4Z" transform="translate(-547.755 961.239)" fill="#fff"/>
        <path id="패스_29071" data-name="패스 29071" d="M575.283-961.239v4l3.573,2.82-3.573,2.819v4l8.638-6.816Z" transform="translate(-566.646 961.239)" fill="#fff"/>
      </g>
    </g>
    <g id="i11" transform="translate(649.392 552.751)">
      <rect id="bg-4" data-name="bg" width="25" height="25" rx="8" transform="translate(-0.392 0.249)" fill="#2d57c7"/>
      <g id="그룹_16957" data-name="그룹 16957" transform="translate(4.558 5.723)">
        <path id="패스_29074" data-name="패스 29074" d="M891.837-1010.871h-2.564a5.186,5.186,0,0,1-5.336-5.336,5.186,5.186,0,0,1,5.336-5.336h2.564v3.6h-2.564a1.613,1.613,0,0,0-1.74,1.74,1.62,1.62,0,0,0,1.762,1.741h2.542Z" transform="translate(-883.937 1021.544)" fill="#fff"/>
        <g id="그룹_16956" data-name="그룹 16956" transform="translate(7.9 3.538)">
          <path id="패스_38" data-name="패스 38" d="M908.47-1001.032h-2.564v-3.6h2.564a1.613,1.613,0,0,0,1.74-1.74,1.62,1.62,0,0,0-1.762-1.741h-2.542v-3.6h2.564a5.187,5.187,0,0,1,5.336,5.336A5.186,5.186,0,0,1,908.47-1001.032Z" transform="translate(-905.907 1011.705)" fill="#fff"/>
        </g>
      </g>
    </g>
    <g id="i5" transform="translate(649 343.126)">
      <rect id="bg-5" data-name="bg" width="25" height="25" rx="8" transform="translate(0 -0.126)" fill="#e26b0f"/>
      <g id="그룹_16955" data-name="그룹 16955" transform="translate(4.153 8.306)">
        <path id="패스_29068" data-name="패스 29068" d="M580.325-889.955a10.135,10.135,0,0,0-10.041,10.123h3.185a6.947,6.947,0,0,1,6.856-6.938Z" transform="translate(-563.427 889.955)" fill="#fff"/>
        <path id="패스_29069" data-name="패스 29069" d="M548.757-889.955v3.185a6.947,6.947,0,0,1,6.856,6.938H558.8A10.135,10.135,0,0,0,548.757-889.955Z" transform="translate(-548.757 889.955)" fill="#fff"/>
      </g>
    </g>
    <g id="i12" transform="translate(649.223 588.126)">
      <rect id="bg-6" data-name="bg" width="25" height="25" rx="8" transform="translate(-0.223 -0.126)" fill="#179bae"/>
      <g id="그룹_16960" data-name="그룹 16960" transform="translate(4.983 5.814)">
        <path id="패스_204-2" data-name="패스 204" d="M524.256,397.05H520.8a5.554,5.554,0,0,1,0-11.107h3.454a5.554,5.554,0,0,1,0,11.107Zm-3.454-7.579a2.025,2.025,0,0,0,0,4.051h3.454a2.025,2.025,0,0,0,0-4.051Z" transform="translate(-515.305 -385.943)" fill="#fff"/>
        <rect id="사각형_48" data-name="사각형 48" width="3.493" height="6.222" transform="translate(5.478 7.578)" fill="#fff"/>
      </g>
    </g>
    <g id="i6" transform="translate(649 377.502)">
      <rect id="bg-7" data-name="bg" width="25" height="25" rx="8" transform="translate(0 0.498)" fill="#0aab42"/>
      <g id="그룹_16953" data-name="그룹 16953" transform="translate(5.805 7.242)">
        <path id="패스_29072" data-name="패스 29072" d="M555.4-803.341a3.723,3.723,0,0,1,3.614-2.915,3.724,3.724,0,0,1,3.614,2.915h2.9a6.6,6.6,0,0,0-6.51-5.773,6.6,6.6,0,0,0-6.511,5.773Z" transform="translate(-552.505 814.6)" fill="#fff"/>
        <path id="패스_29073" data-name="패스 29073" d="M565.026-820.1a4.11,4.11,0,0,1-4.105-4.105,4.11,4.11,0,0,1,4.105-4.1,4.109,4.109,0,0,1,4.1,4.1A4.11,4.11,0,0,1,565.026-820.1Zm0-5.352a1.248,1.248,0,0,0-1.247,1.246,1.249,1.249,0,0,0,1.247,1.247,1.248,1.248,0,0,0,1.246-1.247A1.248,1.248,0,0,0,565.026-825.45Z" transform="translate(-558.515 828.308)" fill="#fff"/>
      </g>
    </g>
    <g id="i13" transform="translate(649.223 622.502)">
      <rect id="bg-8" data-name="bg" width="25" height="25" rx="8" transform="translate(-0.223 0.498)" fill="#1da520"/>
      <g id="그룹_16961" data-name="그룹 16961" transform="translate(4.983 7.475)">
        <path id="패스_29076" data-name="패스 29076" d="M900.007-890.967h-3.573v-7.224h-7.628v7.224h-3.573v-10.8h14.774Z" transform="translate(-885.233 901.765)" fill="#fff"/>
        <rect id="사각형_2041" data-name="사각형 2041" width="14.774" height="3.573" fill="#fff"/>
      </g>
    </g>
    <g id="i7" transform="translate(649 412.877)">
      <rect id="bg-9" data-name="bg" width="25" height="25" rx="8" transform="translate(0 0.123)" fill="#2b6acc"/>
      <path id="on" d="M-6.228-1.544a4.153,4.153,0,0,1-2.077-.5,3.4,3.4,0,0,1-1.38-1.483,5.363,5.363,0,0,1-.492-2.42,5.338,5.338,0,0,1,.492-2.439A3.236,3.236,0,0,1-8.306-9.82a4.375,4.375,0,0,1,2.077-.47,4.279,4.279,0,0,1,2.1.492A3.353,3.353,0,0,1-2.746-8.34a5.233,5.233,0,0,1,.492,2.392A5.426,5.426,0,0,1-2.746-3.5a3.318,3.318,0,0,1-1.386,1.47A4.3,4.3,0,0,1-6.228-1.544Zm0-1.788a1.665,1.665,0,0,0,1.4-.688,3.149,3.149,0,0,0,.523-1.94A2.984,2.984,0,0,0-4.833-7.82a1.67,1.67,0,0,0-1.4-.682A1.646,1.646,0,0,0-7.6-7.82a3.006,3.006,0,0,0-.523,1.872A3.125,3.125,0,0,0-7.6-4.02,1.641,1.641,0,0,0-6.228-3.332ZM-1.083-10.1H1L4.355-5.045H4.218V-10.1H6.212v8.36H4.287L.58-7.3h.33v5.556H-1.083Z" transform="translate(14.183 18.355)" fill="#fff"/>
    </g>
    <g id="i14" transform="translate(649.223 657.877)">
      <rect id="bg-10" data-name="bg" width="25" height="25" rx="8" transform="translate(-0.223 0.123)" fill="#e4550b"/>
      <g id="그룹_16963" data-name="그룹 16963" transform="translate(6.077 6.585)">
        <g id="그룹_16962" data-name="그룹 16962" transform="translate(0)">
          <g id="그룹_29" data-name="그룹 29">
            <rect id="사각형_16" data-name="사각형 16" width="13.441" height="3.483" transform="translate(0 8.915)" fill="#fff"/>
            <rect id="사각형_17" data-name="사각형 17" width="3.483" height="12.398" transform="translate(4.979)" fill="#fff"/>
          </g>
        </g>
        <rect id="사각형_2042" data-name="사각형 2042" width="13.441" height="3.483" transform="translate(0)" fill="#fff"/>
      </g>
    </g>
    <g id="i8" transform="translate(649 448.083)">
      <rect id="bg-11" data-name="bg" width="25" height="25" rx="8" transform="translate(0 -0.083)" fill="#dd328a"/>
      <path id="패스_29090" data-name="패스 29090" d="M-.688-1.853A4.457,4.457,0,0,1-3-2.444,3.974,3.974,0,0,1-4.56-4.2a6.653,6.653,0,0,1-.561-2.893,6.711,6.711,0,0,1,.557-2.9,3.968,3.968,0,0,1,1.559-1.76,4.455,4.455,0,0,1,2.317-.594,4.182,4.182,0,0,1,2.893.9A3.659,3.659,0,0,1,3.386-9.126L.844-8.685A2.612,2.612,0,0,0,.3-9.75a1.251,1.251,0,0,0-.99-.422,1.532,1.532,0,0,0-.975.333,2.116,2.116,0,0,0-.654,1.013A5.466,5.466,0,0,0-2.55-7.093,5.19,5.19,0,0,0-2.31-5.385,2.135,2.135,0,0,0-1.649-4.38a1.522,1.522,0,0,0,.961.329A1.5,1.5,0,0,0,.463-4.458a1.4,1.4,0,0,0,.381-.99H3.371A3.845,3.845,0,0,1,2.9-3.486,2.968,2.968,0,0,1,1.532-2.268,5.31,5.31,0,0,1-.688-1.853Z" transform="translate(13.326 19.534)" fill="#fff" stroke="rgba(0,0,0,0)" stroke-width="1"/>
    </g>
    <g id="i15" transform="translate(649.223 693.253)">
      <rect id="bg-12" data-name="bg" width="25" height="25" rx="8" transform="translate(-0.223 -0.253)" fill="#86b718"/>
      <g id="그룹_16964" data-name="그룹 16964" transform="translate(5.722 6.408)">
        <path id="패스_29077" data-name="패스 29077" d="M896.832-706.273h-5.621v-3.669h5.621c.326,0,.706-.15.706-.574s-.381-.575-.706-.575H886.611v-3.669h10.221a4.056,4.056,0,0,1,3.939,4.244A4.056,4.056,0,0,1,896.832-706.273Z" transform="translate(-886.611 714.76)" fill="#fff"/>
        <path id="패스_29078" data-name="패스 29078" d="M896.832-693.139H886.611v-3.669h10.221c.326,0,.706-.15.706-.575s-.381-.574-.706-.574h-5.621v-3.669h5.621a4.056,4.056,0,0,1,3.939,4.243A4.056,4.056,0,0,1,896.832-693.139Z" transform="translate(-886.611 706.444)" fill="#fff"/>
      </g>
    </g>
  </g>
</svg>
