<svg xmlns="http://www.w3.org/2000/svg" width="124.302" height="21.517" viewBox="0 0 124.302 21.517">
  <g id="i1" transform="translate(-80.93 -279.455)">
    <g id="그룹_15171" data-name="그룹 15171" transform="translate(80.93 286.474)">
      <path id="패스_10611" data-name="패스 10611" d="M151.543,296.342h-5.956a4.277,4.277,0,0,0-4.393,3.087l-2.36,8.8h.918c1.272,0,2.2-.388,2.417-1.107l1.96-7.316a1.554,1.554,0,0,1,1.415-1.1l4.363,0c.758,0,1.688.123,1.269,1.52q-.353,1.243-2.234,1.246h-1.953c-1.287,0-2.229.4-2.427,1.135l-.336,1.24h4.244c2.616,0,4.92-.552,5.77-3.712C154.957,297.472,153.693,296.342,151.543,296.342Z" transform="translate(-106.986 -294.073)" fill="#003c7b"/>
      <path id="패스_10612" data-name="패스 10612" d="M175.481,295.73h-.606a8.026,8.026,0,0,0-7.717,5.592l-.37,1.383c-.89,3.314,1.286,5.591,4.721,5.591h.606a8.031,8.031,0,0,0,7.718-5.591l.37-1.383C181.093,298.005,178.917,295.73,175.481,295.73Zm1.507,6.081-.131.488a4.638,4.638,0,0,1-4.118,3.68h-.59c-1.566,0-2.786-1.294-2.144-3.68l.131-.488a4.633,4.633,0,0,1,4.116-3.68h.591C176.408,298.131,177.627,299.423,176.988,301.811Z" transform="translate(-119.475 -293.798)" fill="#003c7b"/>
      <path id="패스_10613" data-name="패스 10613" d="M246.974,295.73h-.607a8.027,8.027,0,0,0-7.717,5.592l-.371,1.383c-.89,3.314,1.287,5.591,4.722,5.591h.607a8.031,8.031,0,0,0,7.718-5.591l.37-1.383C252.584,298.005,250.409,295.73,246.974,295.73Zm1.506,6.081-.132.488a4.639,4.639,0,0,1-4.117,3.68h-.591c-1.564,0-2.786-1.294-2.142-3.68l.13-.488a4.633,4.633,0,0,1,4.117-3.68h.591C247.9,298.131,249.118,299.423,248.48,301.811Z" transform="translate(-151.645 -293.798)" fill="#003c7b"/>
      <path id="패스_10614" data-name="패스 10614" d="M100.807,292.217h-3.08a4.509,4.509,0,0,0-2.858.917L87.423,298.5c.6-2.22,1.18-4.4,1.684-6.283H86.956c-1.334,0-2.309.4-2.54,1.155L80.93,306.378h2.145c1.357,0,2.349-.417,2.557-1.195v.007c.431-1.61.9-3.374,1.381-5.154l4.3,5.384a2.545,2.545,0,0,0,2.406.957h3.289L91.4,299.413Z" transform="translate(-80.93 -292.217)" fill="#003c7b"/>
      <path id="패스_10615" data-name="패스 10615" d="M124.683,300.991l-4.129,0c-1.119,0-1.643-.222-1.357-1.183.235-.827.941-1.093,2.191-1.093h5.217c1.288,0,2.227-.4,2.426-1.132l.332-1.244h-7.5c-2.614,0-4.936.6-5.729,3.562-.552,2.055.454,3.474,2.783,3.465h4.128c1.15,0,1.635.247,1.34,1.245q-.355,1.244-2.234,1.244h-5.278c-1.289,0-2.228.394-2.427,1.133l-.333,1.244h7.565c2.829,0,4.954-.672,5.77-3.711C128.09,302.122,126.726,300.991,124.683,300.991Z" transform="translate(-95.862 -294.073)" fill="#003c7b"/>
      <path id="패스_10616" data-name="패스 10616" d="M204.027,303.043H202.65a1.66,1.66,0,0,0-1.454.721,6.116,6.116,0,0,1-1.025,1.406l-1.627-2.147c3.419-1.26,3.812-3.614,2.67-4.642-1-.9-3.219-.991-4.931-.019-2.109,1.195-1.654,2.922-.845,4.212l-.329.146c-1.807.8-2.923,1.635-3.288,3.159-.391,1.633.988,3.231,3.435,3.231a7.333,7.333,0,0,0,4.131-1.208l.705.954h2.816l-1.663-2.234A11.3,11.3,0,0,0,204.027,303.043ZM198.5,299.15c1.9,0,1.123,1.479.37,1.9-.222.126-.931.506-1.311.658a6.008,6.008,0,0,1-.538-.9C196.544,299.9,197.48,299.15,198.5,299.15Zm-2.835,8.233c-1.486,0-1.84-1.01-1.713-1.482.22-.827,1.291-1.373,2.51-1.939l1.891,2.554A5.407,5.407,0,0,1,195.67,307.383Z" transform="translate(-130.8 -294.671)" fill="#003c7b"/>
      <path id="패스_10617" data-name="패스 10617" d="M219.841,299.81a1.554,1.554,0,0,1,1.414-1.1h5.671a1.725,1.725,0,0,0,1.721-1.019l.363-1.357H221.3a4.28,4.28,0,0,0-4.393,3.087l-1.456,5.342c-.536,2,.4,3.474,2.785,3.463h6.446a1.72,1.72,0,0,0,1.72-1.021l.364-1.356h-6.932c-1.059-.006-1.608-.209-1.315-1.18C218.517,304.676,219.35,301.643,219.841,299.81Z" transform="translate(-141.397 -294.072)" fill="#003c7b"/>
    </g>
    <g id="그룹_15173" data-name="그룹 15173" transform="translate(175.934 279.455)">
      <path id="패스_10618" data-name="패스 10618" d="M271.5,287.74c-.246-.141-.357-.144-.558.074-.8.865-2.232,2.494-2.955,3.313a9.152,9.152,0,0,1,1.284,6.555h0c-.058.2.063.331.239.153l0,0a58.071,58.071,0,0,1,5.69-5.259A9.165,9.165,0,0,0,271.5,287.74Z" transform="translate(-260.106 -283.139)" fill="#f77e0b"/>
      <g id="그룹_15172" data-name="그룹 15172" transform="translate(0)">
        <path id="패스_10619" data-name="패스 10619" d="M253.734,283.58c-.1.056-.1.2,0,.2a8.828,8.828,0,0,1,5.756,1.577,46.911,46.911,0,0,1,5.752-4.128,13.257,13.257,0,0,1,2.126-.261c-.562.6-1.351,1.478-1.8,1.972-.116.128,0,.239.134.187a46.319,46.319,0,0,1,12.546-2.84A35.564,35.564,0,0,0,253.734,283.58Z" transform="translate(-253.661 -279.455)" fill="#003c7b"/>
        <path id="패스_10620" data-name="패스 10620" d="M291.837,281.529a37.292,37.292,0,0,0-10.694,3.235c-.337.175-.272.3-.017.413a7.425,7.425,0,0,1,2.976,2.442,57.961,57.961,0,0,1,11.12-5.145C294.1,282.109,292.925,281.786,291.837,281.529Z" transform="translate(-265.924 -280.389)" fill="#0097e0"/>
      </g>
    </g>
  </g>
</svg>
