<?xml version="1.0" encoding="utf-8"?>
<!-- Generator: Adobe Illustrator 26.0.1, SVG Export Plug-In . SVG Version: 6.00 Build 0)  -->
<svg version="1.1" id="Layer_1" xmlns="http://www.w3.org/2000/svg" xmlns:xlink="http://www.w3.org/1999/xlink" x="0px" y="0px"
	 viewBox="0 0 16.6 40" style="enable-background:new 0 0 16.6 40;" xml:space="preserve">
<style type="text/css">
	.st0{fill:#333333;}
	.st1{fill:#CCCCCC;}
</style>
<g transform="translate(-5 -3.5)">
	<path class="st0" d="M20.6,42.4c-0.6,0-1-0.4-1-1v-1.8c0-1.5-1.2-2.6-2.6-2.6H9.6C8.2,37,7,38.2,7,39.6v1.8c0,0.6-0.4,1-1,1
		s-1-0.4-1-1v-1.8C5,37.1,7.1,35,9.6,35l0,0h7.3c2.6,0,4.6,2.1,4.6,4.6v1.8C21.6,42,21.1,42.4,20.6,42.4z"/>
	<path class="st0" d="M13.3,24.1c2.6,0,4.6,2.1,4.6,4.6s-2.1,4.6-4.6,4.6s-4.6-2.1-4.6-4.6C8.6,26.2,10.7,24.1,13.3,24.1z
		 M13.3,31.4c1.5,0,2.6-1.2,2.6-2.6c0-1.5-1.2-2.6-2.6-2.6s-2.6,1.2-2.6,2.6C10.6,30.2,11.8,31.4,13.3,31.4z"/>
</g>
<g transform="translate(-5 -3.5)">
	<path class="st1" d="M20.6,22.4c-0.6,0-1-0.4-1-1v-1.8c0-1.5-1.2-2.6-2.6-2.6H9.6C8.2,17,7,18.2,7,19.6v1.8c0,0.6-0.4,1-1,1
		s-1-0.4-1-1v-1.8C5,17.1,7.1,15,9.6,15l0,0h7.3c2.6,0,4.6,2.1,4.6,4.6v1.8C21.6,22,21.1,22.4,20.6,22.4z"/>
	<path class="st1" d="M13.3,4.1c2.6,0,4.6,2.1,4.6,4.6s-2.1,4.6-4.6,4.6s-4.6-2.1-4.6-4.6C8.6,6.2,10.7,4.1,13.3,4.1z M13.3,11.4
		c1.5,0,2.6-1.2,2.6-2.6s-1.2-2.6-2.6-2.6s-2.6,1.2-2.6,2.6C10.6,10.2,11.8,11.4,13.3,11.4z"/>
</g>
</svg>
