<svg xmlns="http://www.w3.org/2000/svg" width="19.139" height="15.093" viewBox="0 0 19.139 15.093"><g transform="translate(-19.59 -431.816)"><path d="M20.881-20.25v1.855H15.293l.143,12.738H13.56l-.143-12.738H7.829V-20.25ZM2.241-15.6h9.32v1.877H7.829l.143,8.067H6.117l-.143-8.067H2.241Z" transform="translate(17.599 452.316)" fill="#333"/><path d="M7.829-20.5H20.881a.25.25,0,0,1,.25.25v1.855a.25.25,0,0,1-.25.25H15.546l.141,12.485a.25.25,0,0,1-.072.179.25.25,0,0,1-.178.074H13.56a.25.25,0,0,1-.25-.247l-.141-12.491H7.829a.25.25,0,0,1-.25-.25V-20.25A.25.25,0,0,1,7.829-20.5Zm12.8.5H8.079v1.355h5.337a.25.25,0,0,1,.25.247l.141,12.491h1.377l-.141-12.485a.25.25,0,0,1,.072-.179.25.25,0,0,1,.178-.074h5.337ZM2.241-15.851h9.32a.25.25,0,0,1,.25.25v1.877a.25.25,0,0,1-.25.25H8.083l.139,7.813a.25.25,0,0,1-.072.18.25.25,0,0,1-.178.075H6.117a.25.25,0,0,1-.25-.246l-.139-7.822H2.241a.25.25,0,0,1-.25-.25V-15.6A.25.25,0,0,1,2.241-15.851Zm9.07.5H2.491v1.377H5.973a.25.25,0,0,1,.25.246l.139,7.822H7.718L7.579-13.72a.25.25,0,0,1,.072-.18.25.25,0,0,1,.178-.075h3.482Z" transform="translate(17.599 452.316)" fill="#333"/></g></svg>