<svg xmlns="http://www.w3.org/2000/svg" width="18.055" height="18.055" viewBox="0 0 18.055 18.055"><path d="M0,0H18.055V18.055H0Z" fill="none"/><path d="M6.991-1A7.991,7.991,0,1,1-1,6.991,8,8,0,0,1,6.991-1Zm0,13.983A5.991,5.991,0,1,0,1,6.991,6,6,0,0,0,6.991,12.983Z" transform="translate(2.036 2.036)" fill="#333"/><path d="M0,14.983a1,1,0,0,1-1-1V0A1,1,0,0,1,0-1,1,1,0,0,1,1,0V13.983A1,1,0,0,1,0,14.983Z" transform="translate(9.027 2.036)" fill="#333"/><path d="M0,4.5a1,1,0,0,1-.707-.293,1,1,0,0,1,0-1.414l3.5-3.5a1,1,0,0,1,1.414,0,1,1,0,0,1,0,1.414l-3.5,3.5A1,1,0,0,1,0,4.5Z" transform="translate(9.027 3.272)" fill="#333"/><path d="M0,6.544a1,1,0,0,1-.707-.293,1,1,0,0,1,0-1.414L4.837-.707a1,1,0,0,1,1.414,0,1,1,0,0,1,0,1.414L.707,6.251A1,1,0,0,1,0,6.544Z" transform="translate(9.027 5.213)" fill="#333"/><path d="M0,7.658a1,1,0,0,1-.707-.293,1,1,0,0,1,0-1.414L5.951-.707a1,1,0,0,1,1.414,0,1,1,0,0,1,0,1.414L.707,7.365A1,1,0,0,1,0,7.658Z" transform="translate(9.027 8.087)" fill="#333"/></svg>