<?xml version="1.0" encoding="utf-8"?>
<!-- Generator: Adobe Illustrator 26.0.1, SVG Export Plug-In . SVG Version: 6.00 Build 0)  -->
<svg version="1.1" id="Layer_1" xmlns="http://www.w3.org/2000/svg" xmlns:xlink="http://www.w3.org/1999/xlink" x="0px" y="0px"
	 viewBox="0 0 22 44" style="enable-background:new 0 0 22 44;" xml:space="preserve">
<style type="text/css">
	.st0{fill:#151515;}
	.st1{fill:#FFFFFF;}
</style>
<g transform="translate(-3.75 -2.25)">
	<path class="st0" d="M20.6,3C22.5,3,24,4.6,24,6.5S22.5,10,20.6,10s-3.5-1.6-3.5-3.5C17.1,4.6,18.6,3,20.6,3z M20.6,8.5
		c1.1,0,2-0.9,2-2s-0.9-2-2-2s-2,0.9-2,2C18.6,7.6,19.5,8.5,20.6,8.5z"/>
	<path class="st0" d="M8.9,9.8c1.9,0,3.5,1.6,3.5,3.5s-1.6,3.5-3.5,3.5s-3.5-1.6-3.5-3.5C5.5,11.3,7,9.8,8.9,9.8z M8.9,15.2
		c1.1,0,2-0.9,2-2s-0.9-2-2-2s-2,0.9-2,2C7,14.3,7.8,15.2,8.9,15.2z"/>
	<path class="st0" d="M20.6,23.5c-1.9,0-3.5-1.6-3.5-3.5s1.6-3.5,3.5-3.5S24,18.1,24,20C24,21.9,22.5,23.5,20.6,23.5z M20.6,18
		c-1.1,0-2,0.9-2,2s0.9,2,2,2s2-0.9,2-2C22.5,18.9,21.7,18,20.6,18z"/>
	<path class="st0" d="M17.1,19.1l-6.2-3.6l0.8-1.3l6.2,3.6L17.1,19.1z"/>
	<path class="st0" d="M11.7,12.3L10.9,11l6.2-3.6l0.8,1.3L11.7,12.3z"/>
</g>
<g transform="translate(-3.75 -2.25)">
	<path class="st1" d="M20.6,25c1.9,0,3.5,1.6,3.5,3.5S22.5,32,20.6,32s-3.5-1.6-3.5-3.5C17.1,26.6,18.6,25,20.6,25z M20.6,30.5
		c1.1,0,2-0.9,2-2s-0.9-2-2-2s-2,0.9-2,2C18.6,29.6,19.5,30.5,20.6,30.5z"/>
	<path class="st1" d="M8.9,31.8c1.9,0,3.5,1.6,3.5,3.5s-1.6,3.5-3.5,3.5s-3.5-1.6-3.5-3.5C5.5,33.3,7,31.8,8.9,31.8z M8.9,37.2
		c1.1,0,2-0.9,2-2s-0.9-2-2-2s-2,0.9-2,2C7,36.3,7.8,37.2,8.9,37.2z"/>
	<path class="st1" d="M20.6,45.5c-1.9,0-3.5-1.6-3.5-3.5c0-1.9,1.6-3.5,3.5-3.5S24,40.1,24,42C24,43.9,22.5,45.5,20.6,45.5z
		 M20.6,40c-1.1,0-2,0.9-2,2s0.9,2,2,2s2-0.9,2-2C22.5,40.9,21.7,40,20.6,40z"/>
	<path class="st1" d="M17.1,41.1l-6.2-3.6l0.8-1.3l6.2,3.6L17.1,41.1z"/>
	<path class="st1" d="M11.7,34.3L10.9,33l6.2-3.6l0.8,1.3L11.7,34.3z"/>
</g>
</svg>
