<?xml version="1.0" encoding="utf-8"?>
<!-- Generator: Adobe Illustrator 26.0.1, SVG Export Plug-In . SVG Version: 6.00 Build 0)  -->
<svg version="1.1" id="Layer_1" xmlns="http://www.w3.org/2000/svg" xmlns:xlink="http://www.w3.org/1999/xlink" x="0px" y="0px"
	 viewBox="0 0 16.6 40" style="enable-background:new 0 0 16.6 40;" xml:space="preserve">
<style type="text/css">
	.st0{fill:#CCCCCC;}
	.st1{fill:#333333;}
</style>
<g transform="translate(-3.5 -2)">
	<path class="st0" d="M6.1,10.2h11.3c1.4,0,2.6,1.2,2.6,2.6v5.7c0,1.4-1.2,2.6-2.6,2.6H6.1c-1.4,0-2.6-1.2-2.6-2.6v-5.7
		C3.5,11.4,4.7,10.2,6.1,10.2z M17.4,19.1c0.3,0,0.6-0.3,0.6-0.6v-5.7c0-0.3-0.3-0.6-0.6-0.6H6.1c-0.3,0-0.6,0.3-0.6,0.6v5.7
		c0,0.3,0.3,0.6,0.6,0.6H17.4z"/>
	<path class="st0" d="M15.8,12.2c-0.6,0-1-0.4-1-1V8c0-1.7-1.4-3-3-3s-3,1.4-3,3v3.2c0,0.6-0.4,1-1,1s-1-0.4-1-1V8c0-2.8,2.3-5,5-5
		c2.8,0,5,2.3,5,5v3.2C16.8,11.7,16.4,12.2,15.8,12.2z"/>
</g>
<g transform="translate(-3.5 -2)">
	<path class="st1" d="M6.1,30.2h11.3c1.4,0,2.6,1.2,2.6,2.6v5.7c0,1.4-1.2,2.6-2.6,2.6H6.1c-1.4,0-2.6-1.2-2.6-2.6v-5.7
		C3.5,31.4,4.7,30.2,6.1,30.2z M17.4,39.1c0.3,0,0.6-0.3,0.6-0.6v-5.7c0-0.3-0.3-0.6-0.6-0.6H6.1c-0.3,0-0.6,0.3-0.6,0.6v5.7
		c0,0.3,0.3,0.6,0.6,0.6H17.4z"/>
	<path class="st1" d="M15.8,32.2c-0.6,0-1-0.4-1-1V28c0-1.7-1.4-3-3-3s-3,1.4-3,3v3.2c0,0.6-0.4,1-1,1s-1-0.4-1-1V28
		c0-2.8,2.3-5,5-5c2.8,0,5,2.3,5,5v3.2C16.8,31.7,16.4,32.2,15.8,32.2z"/>
</g>
</svg>
