<?xml version="1.0" encoding="utf-8"?>
<!-- Generator: Adobe Illustrator 26.0.1, SVG Export Plug-In . SVG Version: 6.00 Build 0)  -->
<svg version="1.1" id="Layer_1" xmlns="http://www.w3.org/2000/svg" xmlns:xlink="http://www.w3.org/1999/xlink" x="0px" y="0px"
	 viewBox="0 0 21.6 44" style="enable-background:new 0 0 21.6 44;" xml:space="preserve">
<style type="text/css">
	.st0{fill:#151515;}
	.st1{fill:#FFFFFF;}
</style>
<g transform="translate(-2.212 -2.25)">
	<path class="st0" d="M19.8,10h-1.5V3.8H7.8V10H6.3V2.2h13.5V10z"/>
	<path class="st0" d="M21,19.8h-2v-1.5h2c0.7,0,1.3-0.6,1.3-1.3v-5c0-0.7-0.6-1.3-1.3-1.3H5c-0.7,0-1.3,0.6-1.3,1.3v5
		c0,0.7,0.6,1.3,1.3,1.3h2v1.5H5c-1.5,0-2.8-1.2-2.8-2.8v-5c0-1.5,1.2-2.8,2.8-2.8H21c1.5,0,2.8,1.2,2.8,2.8v5
		C23.8,18.6,22.6,19.8,21,19.8z"/>
	<path class="st0" d="M6.3,14.3h13.5v9.5H6.3V14.3z M18.3,15.8H7.8v6.5h10.5V15.8z"/>
</g>
<g transform="translate(-2.212 -2.25)">
	<path class="st1" d="M19.8,32.1h-1.5v-6.3H7.8v6.3H6.3v-7.8h13.5V32.1z"/>
	<path class="st1" d="M21,41.8h-2v-1.5h2c0.7,0,1.3-0.6,1.3-1.3v-5c0-0.7-0.6-1.3-1.3-1.3H5c-0.7,0-1.3,0.6-1.3,1.3v5
		c0,0.7,0.6,1.3,1.3,1.3h2v1.5H5c-1.5,0-2.8-1.2-2.8-2.8v-5c0-1.5,1.2-2.8,2.8-2.8H21c1.5,0,2.8,1.2,2.8,2.8v5
		C23.8,40.6,22.6,41.8,21,41.8z"/>
	<path class="st1" d="M6.3,36.3h13.5v9.5H6.3V36.3z M18.3,37.8H7.8v6.5h10.5V37.8z"/>
</g>
</svg>
