<svg xmlns="http://www.w3.org/2000/svg" width="256" height="47.59" viewBox="0 0 256 47.59">
  <g id="logo" transform="translate(-432.072 -363.838)">
    <g id="그룹_15125" data-name="그룹 15125" transform="translate(583.343 382.952)">
      <rect id="사각형_376" data-name="사각형 376" width="1.174" height="8.979" transform="translate(24.558 0.401)" fill="#fff"/>
      <path id="패스_10469" data-name="패스 10469" d="M667.432,393.293h-1.347v.865h1.347v5.088h1.174v-8.979h-1.174Z" transform="translate(-644.563 -389.866)" fill="#fff"/>
      <path id="패스_10470" data-name="패스 10470" d="M663.816,392.434v-.417h1.477v-.868h-1.477v-1.041h-1.238v1.041H661.1v.868h1.48v.417a4.6,4.6,0,0,1-1.727,3.789l.7.585a4.457,4.457,0,0,0,1.639-2.07,4.547,4.547,0,0,0,1.641,2.07l.707-.585A4.589,4.589,0,0,1,663.816,392.434Z" transform="translate(-643.194 -389.824)" fill="#fff"/>
      <path id="패스_10471" data-name="패스 10471" d="M677.914,393.737c1.512,0,2.493-.783,2.493-2.007s-.981-2.006-2.493-2.006-2.492.78-2.492,2.006S676.4,393.737,677.914,393.737Zm0-3.118a1.115,1.115,0,1,1-1.206,1.111A1.088,1.088,0,0,1,677.914,390.619Z" transform="translate(-647.006 -389.724)" fill="#fff"/>
      <path id="패스_10472" data-name="패스 10472" d="M673.126,396.632h2.127v.95H674.17v.868h4.721a.123.123,0,0,1,.126.124v2.191h1.249v-2.582a.6.6,0,0,0-.6-.6h-.292v-.95H681.5v-.865h-8.376Zm3.377,0h1.62v.95H676.5Z" transform="translate(-646.405 -391.305)" fill="#fff"/>
      <path id="패스_10473" data-name="패스 10473" d="M729.9,390.268h-1.26v4.565h1.26v-2.014h1.283v-.867H729.9Z" transform="translate(-660.929 -389.866)" fill="#fff"/>
      <path id="패스_10474" data-name="패스 10474" d="M656.414,391.286v-.39a.6.6,0,0,0-.6-.6h-5.339v.867h4.56a.126.126,0,0,1,.126.126v.3a6.246,6.246,0,0,1-.329,1.994h-5.561v.866h3.552v1.411h-2.3v.865h4.5a.126.126,0,0,1,.125.126v2.45H656.4v-2.841a.6.6,0,0,0-.6-.6h-1.719V394.45h3.562v-.866h-1.593A7.248,7.248,0,0,0,656.414,391.286Z" transform="translate(-640.164 -389.873)" fill="#fff"/>
      <path id="패스_10475" data-name="패스 10475" d="M704.427,398.2H701.3v-1.027h-1.259v3.129a.6.6,0,0,0,.6.6h4.433a.6.6,0,0,0,.607-.6v-3.129h-1.26Zm0,1.7a.13.13,0,0,1-.128.128H701.43a.129.129,0,0,1-.129-.128v-.831h3.126Z" transform="translate(-653.447 -391.674)" fill="#fff"/>
      <path id="패스_10476" data-name="패스 10476" d="M703.776,392.1h-1.434a2.3,2.3,0,1,0,.009.871h1.425v2.044h1.26v-4.752h-1.26Zm-3.809,1.777c-.66,0-1.092-.51-1.092-1.307s.432-1.309,1.092-1.309,1.094.509,1.094,1.309S700.631,393.881,699.967,393.881Z" transform="translate(-652.796 -389.866)" fill="#fff"/>
      <path id="패스_10477" data-name="패스 10477" d="M688.934,400.121v-2.168h-1.255v2.55a.607.607,0,0,0,.606.608H693.4v-.866h-4.34A.128.128,0,0,1,688.934,400.121Z" transform="translate(-650.212 -391.877)" fill="#fff"/>
      <path id="패스_10478" data-name="패스 10478" d="M689.7,395.179l.477-.8a3.664,3.664,0,0,1-2.072-3.535v-.4h-1.275v.4a3.644,3.644,0,0,1-2.07,3.535l.475.8a4.615,4.615,0,0,0,2.233-1.869A4.612,4.612,0,0,0,689.7,395.179Z" transform="translate(-649.449 -389.912)" fill="#fff"/>
      <path id="패스_10479" data-name="패스 10479" d="M717.046,392.832h-.68v-2.564h-1.175v8.979h1.175V393.7h.68v5.548h1.173v-8.979h-1.173Z" transform="translate(-657.41 -389.866)" fill="#fff"/>
      <path id="패스_10480" data-name="패스 10480" d="M712.3,390.613h-3.116v.866h2.3a.128.128,0,0,1,.128.12A6.11,6.11,0,0,1,709,396.471l.631.623a6.881,6.881,0,0,0,3.283-5.615v-.326A.61.61,0,0,0,712.3,390.613Z" transform="translate(-655.79 -389.957)" fill="#fff"/>
      <path id="패스_10481" data-name="패스 10481" d="M725.524,394.064v-3.55h-1.261v1.228H722.4v-1.228h-1.261v3.55a.6.6,0,0,0,.6.6h3.176A.6.6,0,0,0,725.524,394.064Zm-1.261-.4a.128.128,0,0,1-.127.127h-1.607a.126.126,0,0,1-.127-.127v-1.057h1.861Z" transform="translate(-658.966 -389.931)" fill="#fff"/>
      <path id="패스_10482" data-name="패스 10482" d="M724.092,399.927v-.4a.122.122,0,0,1,.123-.125H727.8a.593.593,0,0,0,.594-.592v-1.148a.6.6,0,0,0-.594-.594h-4.972v.83h4.182a.123.123,0,0,1,.124.123v.431a.123.123,0,0,1-.124.123h-3.585a.6.6,0,0,0-.6.594v1.122a.6.6,0,0,0,.6.592h5.021v-.825h-4.23A.124.124,0,0,1,724.092,399.927Z" transform="translate(-659.407 -391.644)" fill="#fff"/>
      <path id="패스_10483" data-name="패스 10483" d="M640.914,400.154V398.09h-1.258v2.451a.6.6,0,0,0,.6.6h5.186v-.866h-4.41A.123.123,0,0,1,640.914,400.154Z" transform="translate(-637.649 -391.913)" fill="#fff"/>
      <path id="패스_10484" data-name="패스 10484" d="M646.841,390.268H645.58v6.161h1.261V393.3H648.1v-.875h-1.263Z" transform="translate(-639.199 -389.866)" fill="#fff"/>
      <path id="패스_10485" data-name="패스 10485" d="M641.907,393.17a2.027,2.027,0,0,0-.488-1.359h.9v-.865h-2.07V389.9h-1.239v1.043h-2.071v.865h.9a2.034,2.034,0,0,0-.487,1.359,2.285,2.285,0,0,0,4.557,0Zm-3.281,0c0-.748.4-1.224,1-1.224s1,.476,1,1.224-.4,1.226-1,1.226S638.626,393.916,638.626,393.17Z" transform="translate(-636.938 -389.771)" fill="#fff"/>
      <path id="패스_10486" data-name="패스 10486" d="M694.663,390.268H693.4v6.161h1.263V393.3h1.262v-.875h-1.262Z" transform="translate(-651.709 -389.866)" fill="#fff"/>
      <path id="패스_10487" data-name="패스 10487" d="M770.384,391.689v-1.246H769.1v1.246a5.349,5.349,0,0,1-2.222,4.509l.548.673a5.734,5.734,0,0,0,2.318-2.432,5.721,5.721,0,0,0,2.317,2.432l.548-.673A5.347,5.347,0,0,1,770.384,391.689Z" transform="translate(-670.93 -389.912)" fill="#fff"/>
      <path id="패스_10488" data-name="패스 10488" d="M776.6,392.918v-2.651h-1.257v8.979H776.6v-5.463h1.273v-.865Z" transform="translate(-673.147 -389.866)" fill="#fff"/>
      <path id="패스_10489" data-name="패스 10489" d="M746.418,393.31a4.6,4.6,0,0,0,2.23,1.869l.478-.8a3.656,3.656,0,0,1-2.071-3.535v-.4h-1.276v.4a3.645,3.645,0,0,1-2.069,3.535l.474.8A4.616,4.616,0,0,0,746.418,393.31Z" transform="translate(-664.87 -389.912)" fill="#fff"/>
      <rect id="사각형_377" data-name="사각형 377" width="1.26" height="4.957" transform="translate(85.181 0.401)" fill="#fff"/>
      <path id="패스_10490" data-name="패스 10490" d="M751.334,397.825H746.1v.868h4.459a.125.125,0,0,1,.124.126v2.406h1.256v-2.8A.6.6,0,0,0,751.334,397.825Z" transform="translate(-665.495 -391.843)" fill="#fff"/>
      <path id="패스_10491" data-name="패스 10491" d="M761.95,395.477a4.012,4.012,0,0,1-2.53.767c-.049,0-.17.009-.213.01v-1.07a1.891,1.891,0,0,0,1.6-1.864,1.794,1.794,0,0,0-.46-1.229h.953v-.868h-2.094v-1.116h-1.235v1.116h-2.095v.868h.951a1.8,1.8,0,0,0-.459,1.229,1.886,1.886,0,0,0,1.581,1.859v1.092h-2.234v.868h2.319a7.74,7.74,0,0,0,3.915-.7V399.2h1.26v-8.98h-1.26Zm-4.3-2.156a.949.949,0,1,1,.943,1.049A.937.937,0,0,1,757.646,393.321Z" transform="translate(-668.011 -389.824)" fill="#fff"/>
      <path id="패스_10492" data-name="패스 10492" d="M732.286,397.842h3.545V401h1.249v-3.159h3.538v-.867h-8.332Z" transform="translate(-661.882 -391.621)" fill="#fff"/>
      <path id="패스_10493" data-name="패스 10493" d="M733.095,393.687l.253.795a4.218,4.218,0,0,1,6.633,0l.253-.795c-1.372-.275-2.694-.9-2.907-2.333H739.6v-.859h-5.875v.859H736C735.786,392.79,734.465,393.411,733.095,393.687Z" transform="translate(-662.094 -389.926)" fill="#fff"/>
    </g>
    <g id="그룹_15129" data-name="그룹 15129" transform="translate(432.072 363.838)">
      <g id="그룹_15126" data-name="그룹 15126" transform="translate(0 9.435)">
        <path id="패스_10494" data-name="패스 10494" d="M507.132,380.744h-8.006a5.751,5.751,0,0,0-5.9,4.15l-3.174,11.835h1.234c1.71,0,2.96-.52,3.249-1.487.659-2.465,1.974-7.368,2.635-9.834a2.089,2.089,0,0,1,1.9-1.473c2.157,0,5.866,0,5.866,0,1.02,0,2.27.165,1.707,2.044-.317,1.113-1.319,1.675-3,1.675h-2.624c-1.732,0-3,.531-3.264,1.525l-.45,1.666H503c3.518,0,6.616-.742,7.758-4.989C511.721,382.264,510.023,380.744,507.132,380.744Z" transform="translate(-447.239 -377.695)" fill="#fff"/>
        <path id="패스_10495" data-name="패스 10495" d="M529.791,380.133h-.815c-4.614,0-9.181,3.057-10.372,7.517l-.5,1.859c-1.2,4.454,1.73,7.515,6.345,7.515h.817c4.616,0,9.177-3.061,10.372-7.515l.5-1.859C537.335,383.19,534.411,380.133,529.791,380.133Zm2.026,8.174-.177.657c-.859,3.205-3.427,4.944-5.534,4.944h-.794c-2.105,0-3.746-1.739-2.881-4.944l.176-.657c.858-3.211,3.425-4.947,5.533-4.947h.792C531.039,383.36,532.677,385.1,531.817,388.307Z" transform="translate(-454.509 -377.535)" fill="#fff"/>
        <path id="패스_10496" data-name="패스 10496" d="M601.374,380.133h-.814c-4.617,0-9.18,3.057-10.373,7.517l-.5,1.859c-1.2,4.454,1.729,7.515,6.348,7.515h.814c4.617,0,9.181-3.061,10.374-7.515l.5-1.859C608.917,383.19,605.993,380.133,601.374,380.133Zm2.026,8.174-.177.657c-.862,3.205-3.425,4.944-5.535,4.944h-.8c-2.1,0-3.743-1.739-2.878-4.944l.174-.657c.856-3.211,3.425-4.947,5.533-4.947h.794C602.621,383.36,604.261,385.1,603.4,388.307Z" transform="translate(-473.235 -377.535)" fill="#fff"/>
        <path id="패스_10497" data-name="패스 10497" d="M458.791,376.615H454.65a6.066,6.066,0,0,0-3.841,1.232L440.8,385.06c.8-2.983,1.586-5.919,2.264-8.445h-2.892c-1.793,0-3.106.543-3.415,1.553l-4.687,17.481h2.884c1.822,0,3.155-.56,3.436-1.606v.01c.582-2.164,1.215-4.535,1.857-6.928l5.785,7.238c.565.7,1.192,1.286,3.234,1.286h4.422l-7.546-9.361Z" transform="translate(-432.072 -376.615)" fill="#fff"/>
        <path id="패스_10498" data-name="패스 10498" d="M479.506,386.993l-5.55,0c-1.5,0-2.209-.3-1.824-1.59.316-1.111,1.266-1.47,2.946-1.47h7.014c1.731,0,2.993-.531,3.26-1.521l.446-1.672H475.714c-3.513,0-6.635.811-7.7,4.788-.743,2.762.61,4.67,3.741,4.657H477.3c1.546,0,2.2.332,1.8,1.675q-.477,1.672-3,1.671h-7.1c-1.732,0-2.993.529-3.26,1.523l-.448,1.671h10.169c3.8,0,6.66-.9,7.755-4.988C484.085,388.514,482.252,386.993,479.506,386.993Z" transform="translate(-440.764 -377.695)" fill="#fff"/>
        <path id="패스_10499" data-name="패스 10499" d="M559.533,389.3h-1.851a2.228,2.228,0,0,0-1.953.97,8.178,8.178,0,0,1-1.382,1.89l-2.184-2.884c4.6-1.695,5.125-4.859,3.589-6.24-1.342-1.21-4.326-1.332-6.628-.025-2.835,1.607-2.223,3.927-1.136,5.661l-.442.2c-2.429,1.068-3.93,2.2-4.419,4.246-.527,2.2,1.327,4.343,4.617,4.343a9.854,9.854,0,0,0,5.551-1.624l.95,1.283h3.783l-2.233-3A15.178,15.178,0,0,0,559.533,389.3Zm-7.423-5.232c2.559,0,1.509,1.988.5,2.557-.3.169-1.25.68-1.763.885a8.144,8.144,0,0,1-.722-1.2C549.476,385.076,550.733,384.064,552.11,384.064ZM548.3,395.13c-2,0-2.472-1.357-2.3-1.992.3-1.111,1.736-1.845,3.373-2.607l2.543,3.434A7.265,7.265,0,0,1,548.3,395.13Z" transform="translate(-461.101 -378.043)" fill="#fff"/>
        <path id="패스_10500" data-name="패스 10500" d="M572.714,385.407a2.091,2.091,0,0,1,1.9-1.473h7.622a2.321,2.321,0,0,0,2.315-1.368l.487-1.825H574.675a5.754,5.754,0,0,0-5.9,4.148l-1.958,7.182c-.721,2.694.544,4.67,3.742,4.656h8.665a2.311,2.311,0,0,0,2.312-1.371l.489-1.823H572.7c-1.423-.008-2.161-.281-1.767-1.587C570.935,391.947,572.054,387.871,572.714,385.407Z" transform="translate(-467.27 -377.695)" fill="#fff"/>
      </g>
      <g id="그룹_15128" data-name="그룹 15128" transform="translate(127.704)">
        <path id="패스_10501" data-name="패스 10501" d="M624.085,372.167c-.33-.191-.481-.195-.749.1-1.079,1.162-3,3.353-3.973,4.454a12.292,12.292,0,0,1,1.726,8.811h0c-.078.264.084.442.323.2l0,0a77.948,77.948,0,0,1,7.647-7.07A12.3,12.3,0,0,0,624.085,372.167Z" transform="translate(-608.773 -365.982)" fill="#fff"/>
        <g id="그룹_15127" data-name="그룹 15127">
          <path id="패스_10502" data-name="패스 10502" d="M605.119,369.382c-.131.076-.131.268,0,.267a11.868,11.868,0,0,1,7.739,2.12,62.93,62.93,0,0,1,7.73-5.549,17.75,17.75,0,0,1,2.859-.349c-.756.807-1.816,1.985-2.423,2.649-.154.171,0,.32.181.252a62.288,62.288,0,0,1,16.866-3.818C625.857,362.4,614.032,364.37,605.119,369.382Z" transform="translate(-605.021 -363.838)" fill="#fff"/>
          <path id="패스_10503" data-name="패스 10503" d="M646.993,365.913a50.072,50.072,0,0,0-14.375,4.35c-.453.235-.366.4-.024.555a9.949,9.949,0,0,1,4,3.284,77.787,77.787,0,0,1,14.947-6.917C650.039,366.693,648.456,366.259,646.993,365.913Z" transform="translate(-612.159 -364.381)" fill="#fff"/>
        </g>
      </g>
    </g>
    <g id="그룹_15130" data-name="그룹 15130" transform="translate(491.223 398.624)">
      <rect id="사각형_378" data-name="사각형 378" width="1.827" height="12.772" transform="translate(9.672 0)" fill="#fff"/>
      <path id="패스_10504" data-name="패스 10504" d="M519.272,414.425H517.8a7.892,7.892,0,0,0,.276-2.052v-.466a.868.868,0,0,0-.873-.768h-4.757v1.234h3.541a.18.18,0,0,1,.182.168,8.131,8.131,0,0,1-.246,1.884h-3.634v1.235h3.188a8.263,8.263,0,0,1-3.3,3.821l.9.885a10.681,10.681,0,0,0,4.281-4.706h1.912v8.06h1.763V410.948h-1.763Z" transform="translate(-512.18 -410.948)" fill="#fff"/>
      <path id="패스_10505" data-name="패스 10505" d="M533.4,411.274a3.737,3.737,0,1,0,3.715,3.736A3.5,3.5,0,0,0,533.4,411.274Zm0,6.2c-1.072,0-1.77-.96-1.77-2.462s.7-2.46,1.77-2.46,1.767.955,1.767,2.46S534.474,417.472,533.4,417.472Z" transform="translate(-516.76 -411.033)" fill="#fff"/>
      <rect id="사각형_379" data-name="사각형 379" width="1.952" height="12.804" transform="translate(21.795 0)" fill="#fff"/>
      <rect id="사각형_380" data-name="사각형 380" width="11.979" height="1.233" transform="translate(24.911 9.094)" fill="#fff"/>
      <path id="패스_10506" data-name="패스 10506" d="M552.178,414.767c1.25,2.022,3.2,2.593,4.663,3.086l.559-1.209c-3.928-1.222-4.166-4.226-4.166-4.972V411.3h-2.112v.377c0,.747-.24,3.75-4.168,4.972l.563,1.209C548.977,417.36,550.928,416.789,552.178,414.767Z" transform="translate(-521.277 -411.039)" fill="#fff"/>
      <path id="패스_10507" data-name="패스 10507" d="M603.085,422.235v-2.907h-1.951v2.907h-4.248v1.233h11.98v-1.233Z" transform="translate(-534.34 -413.14)" fill="#fff"/>
      <path id="패스_10508" data-name="패스 10508" d="M605.3,418.555h1.9a19.142,19.142,0,0,0,.738-5.363V412.17a.871.871,0,0,0-.882-.859h-7.911v1.235H605.8a.182.182,0,0,1,.184.177v.9c0,.306-.012.651-.035,1.015h-6.873v1.233h6.753A17.9,17.9,0,0,1,605.3,418.555Z" transform="translate(-534.914 -411.043)" fill="#fff"/>
      <path id="패스_10509" data-name="패스 10509" d="M570.034,417.9h3.5v-1.233h-1.528a22.14,22.14,0,0,0,.253-4v-.124h1.4v-1.235h-9.2v1.235h1.509v.124a21.94,21.94,0,0,0,.253,4h-1.643V417.9h3.508v2.239h-5.016v1.232h11.98v-1.232h-5.013Zm-2.116-4.893v-.46h2.39v.46a25.22,25.22,0,0,1-.2,3.66h-1.987A25.711,25.711,0,0,1,567.918,413.006Z" transform="translate(-525.492 -411.043)" fill="#fff"/>
      <path id="패스_10510" data-name="패스 10510" d="M591.375,415.142h.663v3.866h1.555v-8.06h-1.555v2.962h-.663v-2.962h-1.558v8.06h1.558Z" transform="translate(-532.491 -410.948)" fill="#fff"/>
      <path id="패스_10511" data-name="패스 10511" d="M586.542,414.532a3.283,3.283,0,1,0-3.282,3.258A3.075,3.075,0,0,0,586.542,414.532Zm-4.758,0c0-1.246.583-2.042,1.475-2.042s1.476.8,1.476,2.042-.583,2.041-1.476,2.041S581.784,415.778,581.784,414.532Z" transform="translate(-529.916 -411.033)" fill="#fff"/>
      <path id="패스_10512" data-name="패스 10512" d="M585.879,425.147V422.2h-1.872v3.489a.845.845,0,0,0,.856.834h7.259v-1.2h-6.064A.175.175,0,0,1,585.879,425.147Z" transform="translate(-530.971 -413.891)" fill="#fff"/>
    </g>
  </g>
</svg>
