<?xml version="1.0" encoding="utf-8"?>
<!-- Generator: Adobe Illustrator 26.0.1, SVG Export Plug-In . SVG Version: 6.00 Build 0)  -->
<svg version="1.1" id="Layer_1" xmlns="http://www.w3.org/2000/svg" xmlns:xlink="http://www.w3.org/1999/xlink" x="0px" y="0px"
	 viewBox="0 0 40 80" style="enable-background:new 0 0 40 80;" xml:space="preserve">
<style type="text/css">
	.st0{fill:#151515;}
	.st1{fill:#FFFFFF;}
</style>
<g transform="translate(1.894 3.371)">
	<g>
		<g>
			<g transform="translate(-1.894 -3)">
				<path class="st0" d="M21.9,38.8h-1.8V34c0-1-1.3-1.8-2.1-2.1c-1.3-0.6-2.7-0.9-4.1-0.9l0,0c-1.4,0-2.8,0.3-4.1,0.9
					C9,32.2,7.7,33,7.7,34v4.8H6V34c0-3.4,5.3-4.8,7.9-4.8c1.7,0,3.3,0.4,4.8,1.1c0.8,0.3,1.5,0.8,2.1,1.4c0.6,0.6,1,1.5,1,2.3
					L21.9,38.8z"/>
				<path class="st0" d="M14,28.8c-2.7,0-4.8-2.2-4.8-4.8v-0.8c0-2.7,2.2-4.8,4.9-4.8c2.6,0,4.7,2.1,4.8,4.8V24
					C18.8,26.6,16.7,28.8,14,28.8z M14,20.2c-1.7,0-3,1.3-3,3V24c0,1.7,1.3,3,3,3.1s3-1.3,3.1-3V24v-0.8C17,21.5,15.7,20.2,14,20.2z
					"/>
				<path class="st0" d="M22.6,29.5c-0.3,0-0.5-0.1-0.7-0.2C21.3,29,21,28.4,21,27.8v-4.6h-1.4v-1.8h3.3v6l5.5-6h5.3
					c0.8,0,1.4-0.6,1.4-1.4V5.2c0-0.8-0.6-1.4-1.4-1.4H6.9c-0.8,0-1.4,0.6-1.4,1.4V20c0,0.8,0.6,1.4,1.4,1.4h1.6v1.8H6.9
					c-1.8,0-3.3-1.5-3.3-3.3V5.2c0-1.8,1.5-3.3,3.3-3.3h26.6c1.8,0,3.3,1.5,3.3,3.3V20c0,1.8-1.5,3.3-3.3,3.3H29l-5.3,5.8h-0.1
					C23.4,29.4,23,29.5,22.6,29.5z"/>
				<path class="st0" d="M27.8,10.1H12.2V8.3h15.6V10.1z"/>
				<path class="st0" d="M27.8,13.4H12.2v-1.8h15.6V13.4z"/>
				<path class="st0" d="M22,16.7h-9.9v-1.8H22V16.7z"/>
			</g>
		</g>
	</g>
</g>
<g transform="translate(1.894 3.371)">
	<g>
		<g>
			<g transform="translate(-1.894 -3)">
				<path class="st1" d="M21.9,78.8h-1.8V74c0-1-1.3-1.8-2.1-2.1c-1.3-0.6-2.7-0.9-4.1-0.9l0,0c-1.4,0-2.8,0.3-4.1,0.9
					C9,72.2,7.7,73,7.7,74v4.8H6V74c0-3.4,5.3-4.8,7.9-4.8c1.7,0,3.3,0.4,4.8,1.1c0.8,0.3,1.5,0.8,2.1,1.4s1,1.5,1,2.3L21.9,78.8z"
					/>
				<path class="st1" d="M14,68.8c-2.7,0-4.8-2.2-4.8-4.8v-0.8c0-2.7,2.2-4.8,4.9-4.8c2.6,0,4.7,2.1,4.8,4.8V64
					C18.8,66.6,16.7,68.8,14,68.8z M14,60.2c-1.7,0-3,1.3-3,3V64c0,1.7,1.3,3,3,3.1s3-1.3,3.1-3V64v-0.8C17,61.5,15.7,60.2,14,60.2z
					"/>
				<path class="st1" d="M22.6,69.5c-0.3,0-0.5-0.1-0.7-0.2C21.3,69,21,68.4,21,67.8v-4.6h-1.4v-1.8h3.3v6l5.5-6h5.3
					c0.8,0,1.4-0.6,1.4-1.4V45.2c0-0.8-0.6-1.4-1.4-1.4H6.9c-0.8,0-1.4,0.6-1.4,1.4V60c0,0.8,0.6,1.4,1.4,1.4h1.6v1.8H6.9
					c-1.8,0-3.3-1.5-3.3-3.3V45.2c0-1.8,1.5-3.3,3.3-3.3h26.6c1.8,0,3.3,1.5,3.3,3.3V60c0,1.8-1.5,3.3-3.3,3.3H29l-5.3,5.8h-0.1
					C23.4,69.4,23,69.5,22.6,69.5z"/>
				<path class="st1" d="M27.8,50.1H12.2v-1.8h15.6V50.1z"/>
				<path class="st1" d="M27.8,53.4H12.2v-1.8h15.6V53.4z"/>
				<path class="st1" d="M22,56.7h-9.9v-1.8H22V56.7z"/>
			</g>
		</g>
	</g>
</g>
</svg>
