<?xml version="1.0" encoding="utf-8"?>
<!-- Generator: Adobe Illustrator 26.0.1, SVG Export Plug-In . SVG Version: 6.00 Build 0)  -->
<svg version="1.1" id="Layer_1" xmlns="http://www.w3.org/2000/svg" xmlns:xlink="http://www.w3.org/1999/xlink" x="0px" y="0px"
	 viewBox="0 0 40 80" style="enable-background:new 0 0 40 80;" xml:space="preserve">
<style type="text/css">
	.st0{fill:#333333;}
	.st1{fill:#FFFFFF;}
</style>
<g transform="translate(2.473 2.473)">
	<g>
		<g transform="translate(-0.473 -0.473)">
			<path class="st0" d="M18.1,36c-9.9,0-17.9-8-17.9-18s8-18,17.9-18C28,0,36,8.1,36,18C36,27.9,28,36,18.1,36 M18.1,1.4
				C9,1.4,1.6,8.8,1.6,18c0,9.2,7.4,16.6,16.5,16.6c9.1,0,16.5-7.5,16.5-16.6C34.7,8.8,27.3,1.4,18.1,1.4"/>
			<path class="st0" d="M18.1,36.2C8.1,36.2,0,28.1,0,18C0,7.9,8.1-0.2,18.1-0.2c10,0,18.1,8.2,18.1,18.2
				C36.2,28.1,28.1,36.2,18.1,36.2z M18.1,0.3C8.4,0.3,0.5,8.2,0.5,18c0,9.8,7.9,17.7,17.6,17.7c9.7,0,17.6-7.9,17.6-17.7
				C35.7,8.2,27.8,0.3,18.1,0.3z M18.1,34.9C8.9,34.9,1.3,27.3,1.3,18S8.9,1.1,18.1,1.1c9.3,0,16.8,7.6,16.8,16.9
				C34.9,27.3,27.4,34.9,18.1,34.9z M18.1,1.6C9.1,1.6,1.8,8.9,1.8,18s7.3,16.4,16.3,16.4c9,0,16.3-7.3,16.3-16.4
				C34.4,9,27.1,1.6,18.1,1.6z"/>
			<path class="st0" d="M18.1,33.1c-8.3,0-15-6.8-15-15.1c0-8.3,6.7-15.1,15-15.1c8.3,0,15,6.8,15,15.1c0,0,0,0,0,0
				C33.1,26.3,26.4,33.1,18.1,33.1 M18.1,4.2C10.6,4.2,4.4,10.4,4.4,18s6.1,13.8,13.7,13.8S31.8,25.6,31.8,18l0,0
				C31.8,10.4,25.7,4.2,18.1,4.2"/>
			<path class="st0" d="M18.1,33.4C9.7,33.4,2.9,26.5,2.9,18S9.7,2.6,18.1,2.6S33.4,9.5,33.4,18C33.4,26.5,26.6,33.3,18.1,33.4z
				 M18.1,3.2C10,3.2,3.4,9.8,3.4,18S10,32.9,18.1,32.9c8.1,0,14.8-6.6,14.8-14.9c0,0,0,0,0,0C32.9,9.8,26.3,3.2,18.1,3.2L18.1,3.2z
				 M18.1,32c-7.7,0-13.9-6.3-13.9-14S10.4,4,18.1,4c7.7,0,13.9,6.3,13.9,14C32.1,25.7,25.8,32,18.1,32L18.1,32z M18.1,4.5
				C10.7,4.5,4.7,10.5,4.7,18s6,13.5,13.4,13.5S31.6,25.5,31.6,18c0,0,0,0,0,0C31.6,10.5,25.5,4.5,18.1,4.5L18.1,4.5z"/>
			<path class="st0" d="M18.1,9c-0.4,0-0.7-0.3-0.7-0.7c0,0,0,0,0,0v-2c0-0.4,0.3-0.7,0.7-0.6c0.3,0,0.6,0.3,0.6,0.6v2
				C18.8,8.7,18.5,9,18.1,9L18.1,9"/>
			<path class="st0" d="M18.1,9.2c-0.5,0-0.9-0.4-0.9-0.9v-2c0-0.5,0.4-0.9,0.9-0.9c0.5,0,0.9,0.4,0.9,0.9v2
				C19,8.8,18.6,9.2,18.1,9.2z M18.1,5.9c-0.2,0-0.4,0.2-0.4,0.4c0,0,0,0,0,0v2c0,0.2,0.2,0.4,0.4,0.4c0.2,0,0.4-0.2,0.4-0.4v-2
				C18.5,6.1,18.4,5.9,18.1,5.9C18.1,5.9,18.1,5.9,18.1,5.9L18.1,5.9z"/>
			<path class="st0" d="M18.1,30.3c-0.4,0-0.7-0.3-0.7-0.7v-2c0-0.4,0.3-0.7,0.7-0.6c0.3,0,0.6,0.3,0.6,0.6v2
				C18.8,30,18.5,30.3,18.1,30.3"/>
			<path class="st0" d="M18.1,30.6c-0.5,0-0.9-0.4-0.9-0.9v-2c0-0.5,0.4-0.9,0.9-0.9c0.5,0,0.9,0.4,0.9,0.9v2
				C19,30.2,18.6,30.6,18.1,30.6z M18.1,27.3c-0.2,0-0.4,0.2-0.4,0.4v2c0,0.2,0.2,0.4,0.4,0.4c0.2,0,0.4-0.2,0.4-0.4v-2
				C18.5,27.4,18.4,27.3,18.1,27.3z"/>
			<path class="st0" d="M29.7,18.7h-2c-0.4,0-0.7-0.3-0.7-0.6c0-0.4,0.3-0.7,0.6-0.7c0,0,0,0,0.1,0h2c0.4,0,0.7,0.3,0.7,0.6
				C30.4,18.3,30.1,18.7,29.7,18.7C29.8,18.7,29.7,18.7,29.7,18.7"/>
			<path class="st0" d="M29.7,18.9h-2c-0.5,0-0.9-0.4-0.9-0.9c0-0.5,0.4-0.9,0.9-0.9c0,0,0,0,0.1,0h2c0.5,0,0.9,0.4,0.9,0.9
				C30.7,18.5,30.3,18.9,29.7,18.9C29.8,18.9,29.7,18.9,29.7,18.9z M27.7,17.6c-0.2,0-0.4,0.2-0.4,0.4c0,0.2,0.2,0.4,0.4,0.4
				c0,0,0,0,0,0h2c0.2,0,0.4-0.2,0.4-0.4c0-0.2-0.2-0.4-0.4-0.4c0,0,0,0,0,0H27.7z"/>
			<path class="st0" d="M8.5,18.7h-2c-0.4,0-0.6-0.3-0.6-0.7c0-0.3,0.3-0.6,0.6-0.6h2c0.4,0,0.7,0.3,0.7,0.6
				C9.2,18.3,8.9,18.7,8.5,18.7C8.6,18.7,8.5,18.7,8.5,18.7"/>
			<path class="st0" d="M8.5,18.9h-2c-0.5,0-0.9-0.4-0.9-0.9c0-0.5,0.4-0.9,0.9-0.9h2c0.5,0,0.9,0.4,0.9,0.9
				C9.4,18.5,9,18.9,8.5,18.9z M6.5,17.6c-0.2,0-0.4,0.2-0.4,0.4c0,0.2,0.2,0.4,0.4,0.4h2c0.2,0,0.4-0.2,0.4-0.4
				c0-0.2-0.2-0.4-0.4-0.4H6.5z"/>
			<path class="st0" d="M19.6,17.8c-0.4,0-0.7-0.3-0.7-0.7c0-0.2,0.1-0.4,0.3-0.6l6.7-4.2c0.3-0.2,0.7-0.1,0.9,0.2
				c0.2,0.3,0.1,0.7-0.2,0.9c0,0,0,0,0,0l-6.7,4.2C19.8,17.7,19.7,17.8,19.6,17.8"/>
			<path class="st0" d="M19.6,18c-0.5,0-0.9-0.4-0.9-0.9c0-0.3,0.2-0.6,0.4-0.8l6.7-4.2c0.4-0.3,1-0.1,1.3,0.3
				c0.3,0.4,0.1,1-0.3,1.3c0,0,0,0,0,0L20,17.9C19.9,18,19.7,18,19.6,18z M26.3,12.5c-0.1,0-0.1,0-0.2,0.1l-6.7,4.2
				c-0.2,0.1-0.3,0.4-0.1,0.6c0.1,0.2,0.4,0.3,0.6,0.1c0,0,0,0,0,0l6.7-4.2c0.2-0.1,0.3-0.4,0.1-0.6C26.6,12.6,26.4,12.5,26.3,12.5
				L26.3,12.5z"/>
			<path class="st0" d="M16.8,17.7c-0.1,0-0.3,0-0.4-0.1L12,14.2c-0.3-0.2-0.4-0.6-0.2-0.9c0.2-0.3,0.6-0.4,0.9-0.2c0,0,0,0,0,0
				l4.4,3.3c0.3,0.2,0.4,0.6,0.1,0.9C17.2,17.6,17,17.7,16.8,17.7"/>
			<path class="st0" d="M16.8,17.9c-0.2,0-0.4-0.1-0.5-0.2l-4.4-3.3c-0.4-0.3-0.5-0.9-0.2-1.3c0.3-0.4,0.9-0.5,1.3-0.2c0,0,0,0,0,0
				l4.4,3.3c0.4,0.3,0.5,0.9,0.2,1.3c0,0,0,0,0,0C17.3,17.8,17.1,17.9,16.8,17.9z M12.4,13.3c-0.2,0-0.4,0.2-0.4,0.4
				c0,0.1,0.1,0.3,0.2,0.3l4.4,3.3c0.2,0.1,0.4,0.1,0.6-0.1c0.1-0.2,0.1-0.4-0.1-0.6l-4.4-3.3C12.6,13.3,12.5,13.3,12.4,13.3z"/>
			<path class="st0" d="M18.1,20.2c-1.2,0-2.2-1-2.2-2.2s1-2.2,2.2-2.2s2.2,1,2.2,2.2C20.3,19.2,19.3,20.2,18.1,20.2 M18.1,17.1
				c-0.5,0-0.9,0.4-0.9,0.9c0,0.5,0.4,0.9,0.9,0.9c0.5,0,0.9-0.4,0.9-0.9c0,0,0,0,0,0C19,17.5,18.6,17.1,18.1,17.1"/>
			<path class="st0" d="M18.1,20.5c-1.4,0-2.5-1.1-2.5-2.5c0-1.4,1.1-2.5,2.5-2.5c1.4,0,2.5,1.1,2.5,2.5v0
				C20.6,19.4,19.5,20.5,18.1,20.5z M18.1,16c-1.1,0-2,0.9-2,2c0,1.1,0.9,2,2,2c1.1,0,2-0.9,2-2c0,0,0,0,0,0
				C20.1,16.9,19.2,16,18.1,16z M18.1,19.2c-0.6,0-1.1-0.5-1.1-1.2c0-0.6,0.5-1.2,1.1-1.2c0.6,0,1.1,0.5,1.1,1.2c0,0,0,0,0,0
				C19.3,18.6,18.8,19.2,18.1,19.2z M18.1,17.4c-0.4,0-0.6,0.3-0.6,0.6c0,0.4,0.3,0.6,0.6,0.7c0.4,0,0.6-0.3,0.6-0.6c0,0,0,0,0,0
				C18.8,17.6,18.5,17.4,18.1,17.4L18.1,17.4z"/>
		</g>
	</g>
</g>
<g transform="translate(2.473 2.473)">
	<g>
		<g transform="translate(-0.473 -0.473)">
			<path class="st1" d="M18.1,76c-9.9,0-17.9-8-17.9-18s8-18,17.9-18C28,40,36,48.1,36,58C36,67.9,28,76,18.1,76 M18.1,41.4
				C9,41.4,1.6,48.8,1.6,58c0,9.2,7.4,16.6,16.5,16.6c9.1,0,16.5-7.5,16.5-16.6C34.7,48.8,27.3,41.4,18.1,41.4"/>
			<path class="st1" d="M18.1,76.2C8.1,76.2,0,68.1,0,58c0-10.1,8.1-18.2,18.1-18.2c10,0,18.1,8.2,18.1,18.2
				C36.2,68.1,28.1,76.2,18.1,76.2z M18.1,40.3C8.4,40.3,0.5,48.2,0.5,58c0,9.8,7.9,17.7,17.6,17.7c9.7,0,17.6-7.9,17.6-17.7
				C35.7,48.2,27.8,40.3,18.1,40.3z M18.1,74.9C8.9,74.9,1.3,67.3,1.3,58s7.5-16.9,16.8-16.9c9.3,0,16.8,7.6,16.8,16.9
				C34.9,67.3,27.4,74.9,18.1,74.9z M18.1,41.6c-9,0-16.3,7.3-16.3,16.4s7.3,16.4,16.3,16.4c9,0,16.3-7.3,16.3-16.4
				C34.4,49,27.1,41.6,18.1,41.6z"/>
			<path class="st1" d="M18.1,73.1c-8.3,0-15-6.8-15-15.1c0-8.3,6.7-15.1,15-15.1c8.3,0,15,6.8,15,15.1c0,0,0,0,0,0
				C33.1,66.3,26.4,73.1,18.1,73.1 M18.1,44.2c-7.6,0-13.7,6.2-13.7,13.8s6.1,13.8,13.7,13.8S31.8,65.6,31.8,58l0,0
				C31.8,50.4,25.7,44.2,18.1,44.2"/>
			<path class="st1" d="M18.1,73.4C9.7,73.4,2.9,66.5,2.9,58s6.8-15.4,15.3-15.4c8.4,0,15.3,6.9,15.3,15.4
				C33.4,66.5,26.6,73.3,18.1,73.4z M18.1,43.2C10,43.2,3.4,49.8,3.4,58S10,72.9,18.1,72.9S32.9,66.2,32.9,58c0,0,0,0,0,0
				C32.9,49.8,26.3,43.2,18.1,43.2L18.1,43.2z M18.1,72c-7.7,0-13.9-6.3-13.9-14s6.2-14,13.9-14c7.7,0,13.9,6.3,13.9,14
				C32.1,65.7,25.8,72,18.1,72L18.1,72z M18.1,44.5c-7.4,0-13.4,6.1-13.4,13.5s6,13.5,13.4,13.5S31.6,65.5,31.6,58c0,0,0,0,0,0
				C31.6,50.5,25.5,44.5,18.1,44.5L18.1,44.5z"/>
			<path class="st1" d="M18.1,49c-0.4,0-0.7-0.3-0.7-0.7c0,0,0,0,0,0v-2c0-0.4,0.3-0.7,0.7-0.6c0.3,0,0.6,0.3,0.6,0.6v2
				C18.8,48.7,18.5,49,18.1,49L18.1,49"/>
			<path class="st1" d="M18.1,49.2c-0.5,0-0.9-0.4-0.9-0.9v-2c0-0.5,0.4-0.9,0.9-0.9c0.5,0,0.9,0.4,0.9,0.9v2
				C19,48.8,18.6,49.2,18.1,49.2z M18.1,45.9c-0.2,0-0.4,0.2-0.4,0.4c0,0,0,0,0,0v2c0,0.2,0.2,0.4,0.4,0.4c0.2,0,0.4-0.2,0.4-0.4v-2
				C18.5,46.1,18.4,45.9,18.1,45.9C18.1,45.9,18.1,45.9,18.1,45.9L18.1,45.9z"/>
			<path class="st1" d="M18.1,70.3c-0.4,0-0.7-0.3-0.7-0.7v-2c0-0.4,0.3-0.7,0.7-0.6c0.3,0,0.6,0.3,0.6,0.6v2
				C18.8,70,18.5,70.3,18.1,70.3"/>
			<path class="st1" d="M18.1,70.6c-0.5,0-0.9-0.4-0.9-0.9v-2c0-0.5,0.4-0.9,0.9-0.9c0.5,0,0.9,0.4,0.9,0.9v2
				C19,70.2,18.6,70.6,18.1,70.6z M18.1,67.3c-0.2,0-0.4,0.2-0.4,0.4v2c0,0.2,0.2,0.4,0.4,0.4c0.2,0,0.4-0.2,0.4-0.4v-2
				C18.5,67.4,18.4,67.3,18.1,67.3z"/>
			<path class="st1" d="M29.7,58.7h-2c-0.4,0-0.7-0.3-0.7-0.6c0-0.4,0.3-0.7,0.6-0.7c0,0,0,0,0.1,0h2c0.4,0,0.7,0.3,0.7,0.6
				C30.4,58.3,30.1,58.7,29.7,58.7C29.8,58.7,29.7,58.7,29.7,58.7"/>
			<path class="st1" d="M29.7,58.9h-2c-0.5,0-0.9-0.4-0.9-0.9c0-0.5,0.4-0.9,0.9-0.9c0,0,0,0,0.1,0h2c0.5,0,0.9,0.4,0.9,0.9
				C30.7,58.5,30.3,58.9,29.7,58.9C29.8,58.9,29.7,58.9,29.7,58.9z M27.7,57.6c-0.2,0-0.4,0.2-0.4,0.4c0,0.2,0.2,0.4,0.4,0.4
				c0,0,0,0,0,0h2c0.2,0,0.4-0.2,0.4-0.4c0-0.2-0.2-0.4-0.4-0.4c0,0,0,0,0,0H27.7z"/>
			<path class="st1" d="M8.5,58.7h-2c-0.4,0-0.6-0.3-0.6-0.7c0-0.3,0.3-0.6,0.6-0.6h2c0.4,0,0.7,0.3,0.7,0.6
				C9.2,58.3,8.9,58.7,8.5,58.7C8.6,58.7,8.5,58.7,8.5,58.7"/>
			<path class="st1" d="M8.5,58.9h-2c-0.5,0-0.9-0.4-0.9-0.9c0-0.5,0.4-0.9,0.9-0.9h2c0.5,0,0.9,0.4,0.9,0.9
				C9.4,58.5,9,58.9,8.5,58.9z M6.5,57.6c-0.2,0-0.4,0.2-0.4,0.4c0,0.2,0.2,0.4,0.4,0.4h2c0.2,0,0.4-0.2,0.4-0.4
				c0-0.2-0.2-0.4-0.4-0.4H6.5z"/>
			<path class="st1" d="M19.6,57.8c-0.4,0-0.7-0.3-0.7-0.7c0-0.2,0.1-0.4,0.3-0.6l6.7-4.2c0.3-0.2,0.7-0.1,0.9,0.2
				c0.2,0.3,0.1,0.7-0.2,0.9c0,0,0,0,0,0l-6.7,4.2C19.8,57.7,19.7,57.8,19.6,57.8"/>
			<path class="st1" d="M19.6,58c-0.5,0-0.9-0.4-0.9-0.9c0-0.3,0.2-0.6,0.4-0.8l6.7-4.2c0.4-0.3,1-0.1,1.3,0.3
				c0.3,0.4,0.1,1-0.3,1.3c0,0,0,0,0,0L20,57.9C19.9,58,19.7,58,19.6,58z M26.3,52.5c-0.1,0-0.1,0-0.2,0.1l-6.7,4.2
				c-0.2,0.1-0.3,0.4-0.1,0.6c0.1,0.2,0.4,0.3,0.6,0.1c0,0,0,0,0,0l6.7-4.2c0.2-0.1,0.3-0.4,0.1-0.6C26.6,52.6,26.4,52.5,26.3,52.5
				L26.3,52.5z"/>
			<path class="st1" d="M16.8,57.7c-0.1,0-0.3,0-0.4-0.1L12,54.2c-0.3-0.2-0.4-0.6-0.2-0.9c0.2-0.3,0.6-0.4,0.9-0.2c0,0,0,0,0,0
				l4.4,3.3c0.3,0.2,0.4,0.6,0.1,0.9C17.2,57.6,17,57.7,16.8,57.7"/>
			<path class="st1" d="M16.8,57.9c-0.2,0-0.4-0.1-0.5-0.2l-4.4-3.3c-0.4-0.3-0.5-0.9-0.2-1.3c0.3-0.4,0.9-0.5,1.3-0.2c0,0,0,0,0,0
				l4.4,3.3c0.4,0.3,0.5,0.9,0.2,1.3c0,0,0,0,0,0C17.3,57.8,17.1,57.9,16.8,57.9z M12.4,53.3c-0.2,0-0.4,0.2-0.4,0.4
				c0,0.1,0.1,0.3,0.2,0.3l4.4,3.3c0.2,0.1,0.4,0.1,0.6-0.1c0.1-0.2,0.1-0.4-0.1-0.6l-4.4-3.3C12.6,53.3,12.5,53.3,12.4,53.3z"/>
			<path class="st1" d="M18.1,60.2c-1.2,0-2.2-1-2.2-2.2s1-2.2,2.2-2.2s2.2,1,2.2,2.2C20.3,59.2,19.3,60.2,18.1,60.2 M18.1,57.1
				c-0.5,0-0.9,0.4-0.9,0.9c0,0.5,0.4,0.9,0.9,0.9c0.5,0,0.9-0.4,0.9-0.9c0,0,0,0,0,0C19,57.5,18.6,57.1,18.1,57.1"/>
			<path class="st1" d="M18.1,60.5c-1.4,0-2.5-1.1-2.5-2.5c0-1.4,1.1-2.5,2.5-2.5c1.4,0,2.5,1.1,2.5,2.5v0
				C20.6,59.4,19.5,60.5,18.1,60.5z M18.1,56c-1.1,0-2,0.9-2,2c0,1.1,0.9,2,2,2c1.1,0,2-0.9,2-2c0,0,0,0,0,0
				C20.1,56.9,19.2,56,18.1,56z M18.1,59.2c-0.6,0-1.1-0.5-1.1-1.2c0-0.6,0.5-1.2,1.1-1.2c0.6,0,1.1,0.5,1.1,1.2c0,0,0,0,0,0
				C19.3,58.6,18.8,59.2,18.1,59.2z M18.1,57.4c-0.4,0-0.6,0.3-0.6,0.6c0,0.4,0.3,0.6,0.6,0.7c0.4,0,0.6-0.3,0.6-0.6c0,0,0,0,0,0
				C18.8,57.6,18.5,57.4,18.1,57.4L18.1,57.4z"/>
		</g>
	</g>
</g>
</svg>
