<?xml version="1.0" encoding="utf-8"?>
<!-- Generator: Adobe Illustrator 26.0.1, SVG Export Plug-In . SVG Version: 6.00 Build 0)  -->
<svg version="1.1" id="Layer_1" xmlns="http://www.w3.org/2000/svg" xmlns:xlink="http://www.w3.org/1999/xlink" x="0px" y="0px"
	 viewBox="0 0 36 80" style="enable-background:new 0 0 36 80;" xml:space="preserve">
<style type="text/css">
	.st0{fill:#333333;}
	.st1{clip-path:url(#SVGID_00000009566419168480273770000000573568482801265568_);}
	.st2{fill:#FFFFFF;}
</style>
<g transform="translate(-2.242 1.523)">
	<path class="st0" d="M28.2,34.9h-2v-32h2V34.9z"/>
	<g transform="translate(2.242 -1.556)">
		<g>
			<defs>
				<rect id="SVGID_1_" y="0" width="36" height="40"/>
			</defs>
			<clipPath id="SVGID_00000152968899745860051670000006512996679014950530_">
				<use xlink:href="#SVGID_1_"  style="overflow:visible;"/>
			</clipPath>
			<g transform="translate(0 0)" style="clip-path:url(#SVGID_00000152968899745860051670000006512996679014950530_);">
				<path class="st0" d="M28.3,37.1H4.4V4.3h4.9v2H6.4v28.8h21.9c0.8,0,1.4-0.6,1.4-1.4v-26c0-0.8-0.6-1.4-1.4-1.4H14.1v-2h14.2
					c1.9,0,3.4,1.5,3.4,3.4v26C31.6,35.5,30.1,37.1,28.3,37.1z"/>
				<path class="st0" d="M8.3,15V2.7h6.7V15l-3.4-2.2L8.3,15z M11.7,10.4l1.4,0.9V4.7h-2.7v6.6L11.7,10.4z"/>
			</g>
		</g>
	</g>
</g>
<g transform="translate(-2.242 1.523)">
	<path class="st2" d="M28.2,74.9h-2v-32h2V74.9z"/>
	<g transform="translate(2.242 -1.556)">
		<g>
			<g transform="translate(0 0)">
				<path class="st2" d="M28.3,77.1H4.4V44.3h4.9v2H6.4v28.8h21.9c0.8,0,1.4-0.6,1.4-1.4v-26c0-0.8-0.6-1.4-1.4-1.4H14.1v-2h14.2
					c1.9,0,3.4,1.5,3.4,3.4v26C31.6,75.5,30.1,77.1,28.3,77.1z"/>
				<path class="st2" d="M8.3,55V42.7h6.7V55l-3.4-2.2L8.3,55z M11.7,50.4l1.4,0.9v-6.6h-2.7v6.6L11.7,50.4z"/>
			</g>
		</g>
	</g>
</g>
</svg>
