<?xml version="1.0" encoding="utf-8"?>
<!-- Generator: Adobe Illustrator 26.0.1, SVG Export Plug-In . SVG Version: 6.00 Build 0)  -->
<svg version="1.1" id="Layer_1" xmlns="http://www.w3.org/2000/svg" xmlns:xlink="http://www.w3.org/1999/xlink" x="0px" y="0px"
	 viewBox="0 0 40 80" style="enable-background:new 0 0 40 80;" xml:space="preserve">
<style type="text/css">
	.st0{clip-path:url(#SVGID_00000094587652890585406120000011192445722953462968_);}
	.st1{fill:#333333;}
	.st2{clip-path:url(#SVGID_00000041283392472852016560000014434896676474914988_);}
	.st3{fill:#FFFFFF;}
</style>
<g>
	<defs>
		<rect id="SVGID_1_" x="0" y="0" width="40" height="40"/>
	</defs>
	<clipPath id="SVGID_00000019672138216192208340000008806284422638617786_">
		<use xlink:href="#SVGID_1_"  style="overflow:visible;"/>
	</clipPath>
	<g style="clip-path:url(#SVGID_00000019672138216192208340000008806284422638617786_);">
		<path class="st1" d="M27.8,10.5c0.6,0,1.2-0.5,1.2-1.2V5c0-0.6-0.5-1.2-1.2-1.2S26.6,4.4,26.6,5v4.3C26.6,10,27.2,10.5,27.8,10.5"
			/>
		<path class="st1" d="M32.2,6.1h-2.3v2.3h2.3c1.2,0.1,2.2,1.1,2.1,2.3v2.4H5.7v-2.4C5.6,9.5,6.6,8.5,7.8,8.4h2.3V6.1H7.8
			c-2.5,0.1-4.5,2.2-4.4,4.7v20.7C3.3,34,5.3,36,7.8,36.1h24.4c2.5-0.1,4.5-2.2,4.4-4.7V10.7C36.7,8.2,34.7,6.1,32.2,6.1 M32.2,33.8
			H7.8c-1.2-0.1-2.1-1.1-2.1-2.3v-16h28.6v16C34.4,32.7,33.4,33.7,32.2,33.8"/>
		<rect x="14.3" y="6.1" class="st1" width="11.4" height="2.3"/>
		<path class="st1" d="M12.2,10.5c0.6,0,1.2-0.5,1.2-1.2c0,0,0,0,0,0V5c0-0.6-0.5-1.2-1.2-1.2S11,4.4,11,5v4.3
			C11,10,11.6,10.5,12.2,10.5L12.2,10.5"/>
		<path class="st1" d="M22.1,17.9h-4.1c-0.5,0-1,0.4-1,1l0,0v4.1c0,0.5,0.4,1,1,1l0,0h4.1c0.5,0,1-0.4,1-1l0,0v-4.1
			C23.1,18.3,22.6,17.9,22.1,17.9L22.1,17.9 M21.1,22h-2.2v-2.1h2.2L21.1,22z"/>
		<path class="st1" d="M30.2,17.9h-4.1c-0.5,0-1,0.4-1,1l0,0v4.1c0,0.5,0.4,1,1,1l0,0h4.1c0.5,0,1-0.4,1-1l0,0v-4.1
			C31.2,18.3,30.8,17.9,30.2,17.9L30.2,17.9 M29.2,22h-2.2v-2.1h2.2V22z"/>
		<path class="st1" d="M13.9,17.9H9.8c-0.5,0-1,0.4-1,1l0,0v4.1c0,0.5,0.4,1,1,1l0,0h4.1c0.5,0,1-0.4,1-1l0,0v-4.1
			C14.9,18.3,14.5,17.9,13.9,17.9C13.9,17.9,13.9,17.9,13.9,17.9 M12.9,22h-2.2v-2.1h2.2V22z"/>
		<path class="st1" d="M22.1,25.5h-4.1c-0.5,0-1,0.4-1,1l0,0v4.1c0,0.5,0.4,1,1,1l0,0h4.1c0.5,0,1-0.4,1-1l0,0v-4.1
			C23.1,25.9,22.6,25.5,22.1,25.5L22.1,25.5 M21.1,29.6h-2.2v-2.1h2.2L21.1,29.6z"/>
		<path class="st1" d="M13.9,25.5H9.8c-0.5,0-1,0.4-1,1l0,0v4.1c0,0.5,0.4,1,1,1l0,0h4.1c0.5,0,1-0.4,1-1l0,0v-4.1
			C14.9,25.9,14.5,25.5,13.9,25.5C13.9,25.5,13.9,25.5,13.9,25.5 M12.9,29.6h-2.2v-2.1h2.2V29.6z"/>
	</g>
</g>
<g>
	<defs>
		<rect id="SVGID_00000054981795839773800390000010740284073202288310_" x="0" y="40" width="40" height="40"/>
	</defs>
	<clipPath id="SVGID_00000093862856958065017520000004582864964681297849_">
		<use xlink:href="#SVGID_00000054981795839773800390000010740284073202288310_"  style="overflow:visible;"/>
	</clipPath>
	<g style="clip-path:url(#SVGID_00000093862856958065017520000004582864964681297849_);">
		<path class="st3" d="M27.8,50.5c0.6,0,1.2-0.5,1.2-1.2V45c0-0.6-0.5-1.2-1.2-1.2s-1.2,0.5-1.2,1.2v4.3
			C26.6,50,27.2,50.5,27.8,50.5"/>
		<path class="st3" d="M32.2,46.1h-2.3v2.3h2.3c1.2,0.1,2.2,1.1,2.1,2.3v2.4H5.7v-2.4c-0.1-1.2,0.9-2.3,2.1-2.3h2.3v-2.3H7.8
			c-2.5,0.1-4.5,2.2-4.4,4.7v20.7C3.3,74,5.3,76,7.8,76.1h24.4c2.5-0.1,4.5-2.2,4.4-4.7V50.7C36.7,48.2,34.7,46.1,32.2,46.1
			 M32.2,73.8H7.8c-1.2-0.1-2.1-1.1-2.1-2.3v-16h28.6v16C34.4,72.7,33.4,73.7,32.2,73.8"/>
		<rect x="14.3" y="46.1" class="st3" width="11.4" height="2.3"/>
		<path class="st3" d="M12.2,50.5c0.6,0,1.2-0.5,1.2-1.2c0,0,0,0,0,0V45c0-0.6-0.5-1.2-1.2-1.2S11,44.4,11,45v4.3
			C11,50,11.6,50.5,12.2,50.5L12.2,50.5"/>
		<path class="st3" d="M22.1,57.9h-4.1c-0.5,0-1,0.4-1,1l0,0v4.1c0,0.5,0.4,1,1,1l0,0h4.1c0.5,0,1-0.4,1-1l0,0v-4.1
			C23.1,58.3,22.6,57.9,22.1,57.9L22.1,57.9 M21.1,62h-2.2v-2.1h2.2L21.1,62z"/>
		<path class="st3" d="M30.2,57.9h-4.1c-0.5,0-1,0.4-1,1l0,0v4.1c0,0.5,0.4,1,1,1l0,0h4.1c0.5,0,1-0.4,1-1l0,0v-4.1
			C31.2,58.3,30.8,57.9,30.2,57.9L30.2,57.9 M29.2,62h-2.2v-2.1h2.2V62z"/>
		<path class="st3" d="M13.9,57.9H9.8c-0.5,0-1,0.4-1,1l0,0v4.1c0,0.5,0.4,1,1,1l0,0h4.1c0.5,0,1-0.4,1-1l0,0v-4.1
			C14.9,58.3,14.5,57.9,13.9,57.9C13.9,57.9,13.9,57.9,13.9,57.9 M12.9,62h-2.2v-2.1h2.2V62z"/>
		<path class="st3" d="M22.1,65.5h-4.1c-0.5,0-1,0.4-1,1l0,0v4.1c0,0.5,0.4,1,1,1l0,0h4.1c0.5,0,1-0.4,1-1l0,0v-4.1
			C23.1,65.9,22.6,65.5,22.1,65.5L22.1,65.5 M21.1,69.6h-2.2v-2.1h2.2L21.1,69.6z"/>
		<path class="st3" d="M13.9,65.5H9.8c-0.5,0-1,0.4-1,1l0,0v4.1c0,0.5,0.4,1,1,1l0,0h4.1c0.5,0,1-0.4,1-1l0,0v-4.1
			C14.9,65.9,14.5,65.5,13.9,65.5C13.9,65.5,13.9,65.5,13.9,65.5 M12.9,69.6h-2.2v-2.1h2.2V69.6z"/>
	</g>
</g>
</svg>
