<?xml version="1.0" encoding="utf-8"?>
<!-- Generator: Adobe Illustrator 26.0.1, SVG Export Plug-In . SVG Version: 6.00 Build 0)  -->
<svg version="1.1" id="Layer_1" xmlns="http://www.w3.org/2000/svg" xmlns:xlink="http://www.w3.org/1999/xlink" x="0px" y="0px"
	 viewBox="0 0 40 80" style="enable-background:new 0 0 40 80;" xml:space="preserve">
<style type="text/css">
	.st0{clip-path:url(#SVGID_00000178919717509002796050000017339826423199584649_);}
	.st1{fill:#151515;}
	.st2{clip-path:url(#SVGID_00000099629661552346770340000016369687212986645145_);}
	.st3{fill:#FFFFFF;}
	.st4{fill:none;}
	.st5{clip-path:url(#SVGID_00000008143739720709702130000001304992030511718077_);}
</style>
<g transform="translate(8 5)">
	<g transform="translate(0.687 0.43)">
		<g>
			<g>
				<g>
					<defs>
						<rect id="SVGID_1_" x="-6.8" y="-3.4" width="36.5" height="35.9"/>
					</defs>
					<clipPath id="SVGID_00000027601351394110885680000014310550255465144242_">
						<use xlink:href="#SVGID_1_"  style="overflow:visible;"/>
					</clipPath>
					<g transform="translate(0 0)" style="clip-path:url(#SVGID_00000027601351394110885680000014310550255465144242_);">
						<path class="st1" d="M-5.9,32.5c-0.5,0-0.9-0.4-0.9-0.9V14.9H-5v15.5l9.3-3.2c0.2-0.1,0.3-0.1,0.5,0l12.8,3.3L28,26.6V6.3
							L17.9,9.6c-0.2,0.1-0.4,0.1-0.6,0l-5.2-1.7l0.6-1.7l4.9,1.6l11-3.6c0.5-0.2,1,0.1,1.1,0.6c0,0.1,0,0.2,0,0.3v22.1
							c0,0.4-0.2,0.7-0.6,0.8l-11.3,4.2c-0.2,0.1-0.4,0.1-0.5,0L4.6,29l-10.2,3.5C-5.7,32.5-5.8,32.5-5.9,32.5z"/>
						<path class="st1" d="M18.5,31.4h-1.8V8.8h1.8V31.4z"/>
					</g>
				</g>
			</g>
		</g>
	</g>
	<path class="st1" d="M6.1,28.4H4.4v-5.2h1.8L6.1,28.4L6.1,28.4z"/>
	<g transform="translate(-8 -5)">
		<g>
			<g>
				<g>
					<defs>
						<rect id="SVGID_00000140735680107401609080000011678365214323682945_" width="40" height="40"/>
					</defs>
					<clipPath id="SVGID_00000165217488637548859380000018432496872555378304_">
						<use xlink:href="#SVGID_00000140735680107401609080000011678365214323682945_"  style="overflow:visible;"/>
					</clipPath>
					<g style="clip-path:url(#SVGID_00000165217488637548859380000018432496872555378304_);">
						<path class="st1" d="M10.6,25.6c-0.4,0-0.7-0.3-0.8-0.6c-0.8-2.8-2.5-4.6-4.1-6.4c-1-1-1.9-2.1-2.6-3.3
							c-0.8-1.4-1.2-2.9-1.2-4.5c0-1.2,0.2-2.3,0.7-3.4c0.5-1,1.1-2,1.9-2.8C6.2,3,8.4,2.1,10.6,2c2.3,0,4.5,1,6.1,2.6
							c0.8,0.8,1.5,1.7,1.9,2.8c0.5,1.1,0.7,2.2,0.7,3.4c0,1.6-0.4,3.1-1.2,4.5c-0.8,1.2-1.6,2.3-2.6,3.3c-1.6,1.7-3.2,3.5-4.1,6.4
							C11.4,25.3,11,25.6,10.6,25.6z M10.6,3.8c-3.8,0.1-6.8,3.2-7,6.9c0,2.9,1.6,4.6,3.4,6.6c1.4,1.5,2.6,3.1,3.6,4.9
							c1-1.8,2.2-3.4,3.6-4.9c1.8-2,3.4-3.7,3.4-6.6C17.4,7,14.4,3.9,10.6,3.8L10.6,3.8z"/>
						<path class="st1" d="M10.6,7.3c1.9,0,3.5,1.6,3.5,3.5s-1.6,3.5-3.5,3.5s-3.5-1.6-3.5-3.5C7.1,8.8,8.7,7.3,10.6,7.3z
							 M10.6,12.5c0.9,0,1.7-0.8,1.7-1.7S11.5,9,10.6,9s-1.7,0.8-1.7,1.7C8.9,11.7,9.7,12.5,10.6,12.5z"/>
					</g>
				</g>
			</g>
		</g>
	</g>
</g>
<g transform="translate(8 5)">
	<g transform="translate(0.687 0.43)">
		<g>
			<g>
				<g>
					<g transform="translate(0 0)">
						<path class="st3" d="M-5.9,72.5c-0.5,0-0.9-0.4-0.9-0.9V54.9H-5v15.5l9.3-3.2c0.2-0.1,0.3-0.1,0.5,0l12.8,3.3L28,66.6V46.3
							l-10.2,3.3c-0.2,0.1-0.4,0.1-0.6,0L12,47.9l0.6-1.7l4.9,1.6l11-3.6c0.5-0.2,1,0.1,1.1,0.6c0,0.1,0,0.2,0,0.3v22.1
							c0,0.4-0.2,0.7-0.6,0.8l-11.3,4.2c-0.2,0.1-0.4,0.1-0.5,0L4.6,69l-10.2,3.5C-5.7,72.5-5.8,72.5-5.9,72.5z"/>
						<path class="st3" d="M18.5,71.4h-1.8V48.8h1.8V71.4z"/>
					</g>
				</g>
			</g>
		</g>
	</g>
	<path class="st3" d="M6.1,68.4H4.4v-5.2h1.8L6.1,68.4L6.1,68.4z"/>
	<g transform="translate(-8 -5)">
		<g>
			<g>
				<rect id="SVGID_00000057120144942728760960000007593452603575952044_" y="40" class="st4" width="40" height="40"/>
			</g>
			<g>
				<g>
					<defs>
						<rect id="SVGID_00000018926022146716400540000016855749452818505895_" y="40" width="40" height="40"/>
					</defs>
					<clipPath id="SVGID_00000067223428833529810910000007592652580360679347_">
						<use xlink:href="#SVGID_00000018926022146716400540000016855749452818505895_"  style="overflow:visible;"/>
					</clipPath>
					<g style="clip-path:url(#SVGID_00000067223428833529810910000007592652580360679347_);">
						<path class="st3" d="M10.6,65.6c-0.4,0-0.7-0.3-0.8-0.6c-0.8-2.8-2.5-4.6-4.1-6.4c-1-1-1.9-2.1-2.6-3.3
							c-0.8-1.4-1.2-2.9-1.2-4.5c0-1.2,0.2-2.3,0.7-3.4c0.5-1,1.1-2,1.9-2.8C6.1,43,8.3,42,10.6,42s4.5,1,6.1,2.6
							c0.8,0.8,1.5,1.7,1.9,2.8c0.5,1.1,0.7,2.2,0.7,3.4c0,1.6-0.4,3.1-1.2,4.5c-0.8,1.2-1.6,2.3-2.6,3.3c-1.6,1.7-3.2,3.5-4.1,6.4
							C11.4,65.3,11,65.6,10.6,65.6z M10.6,43.8c-3.8,0.1-6.8,3.2-7,6.9c0,2.9,1.6,4.6,3.4,6.6c1.4,1.5,2.6,3.1,3.6,4.9
							c1-1.8,2.2-3.4,3.6-4.9c1.8-2,3.4-3.7,3.4-6.6C17.4,47,14.4,43.9,10.6,43.8L10.6,43.8z"/>
						<path class="st3" d="M10.6,47.3c1.9,0,3.5,1.6,3.5,3.5s-1.6,3.5-3.5,3.5s-3.5-1.6-3.5-3.5C7.1,48.8,8.7,47.3,10.6,47.3z
							 M10.6,52.5c0.9,0,1.7-0.8,1.7-1.7S11.5,49,10.6,49s-1.7,0.8-1.7,1.7C8.9,51.7,9.7,52.5,10.6,52.5z"/>
					</g>
				</g>
			</g>
		</g>
	</g>
</g>
</svg>
