<?xml version="1.0" encoding="utf-8"?>
<!-- Generator: Adobe Illustrator 26.0.1, SVG Export Plug-In . SVG Version: 6.00 Build 0)  -->
<svg version="1.1" id="Layer_1" xmlns="http://www.w3.org/2000/svg" xmlns:xlink="http://www.w3.org/1999/xlink" x="0px" y="0px"
	 viewBox="0 0 16.6 38" style="enable-background:new 0 0 16.6 38;" xml:space="preserve">
<style type="text/css">
	.st0{fill:#CCCCCC;}
	.st1{fill:#333333;}
</style>
<g id="unlock" transform="translate(-3.5 -1.975)">
	<path class="st0" d="M6.1,20.2c-1.4,0-2.6-1.2-2.6-2.6v-5.7c0-1.4,1.2-2.6,2.6-2.6h11.3c1.4,0,2.6,1.2,2.6,2.6v5.7
		c0,1.4-1.2,2.6-2.6,2.6C17.4,20.2,6.1,20.2,6.1,20.2z M6.1,11.3c-0.3,0-0.6,0.3-0.6,0.6v5.7c0,0.3,0.3,0.6,0.6,0.6h11.3
		c0.2,0,0.3-0.1,0.4-0.2s0.2-0.3,0.2-0.4v-5.7c0-0.3-0.3-0.6-0.6-0.6H6.1z"/>
	<path class="st0" d="M7.7,11.3c-0.6,0-1-0.4-1-1V7c0-2.8,2.3-5,5-5l0,0c2.4,0,4.5,1.7,4.9,4c0.1,0.5-0.2,1.1-0.8,1.2
		c-0.5,0.1-1.1-0.2-1.2-0.8C14.5,5,13.2,4,11.8,4l0,0c-1.7,0-3,1.4-3,3v3.2C8.7,10.8,8.3,11.3,7.7,11.3z"/>
</g>
<g id="unlock_00000155861685096739566050000010672144689878863790_" transform="translate(-3.5 -1.975)">
	<path class="st1" d="M6.1,39.3c-1.4,0-2.6-1.2-2.6-2.6V31c0-1.4,1.2-2.6,2.6-2.6h11.3c1.4,0,2.6,1.2,2.6,2.6v5.7
		c0,0.7-0.3,1.4-0.8,1.9s-1.2,0.8-1.8,0.8H6.1V39.3z M6.1,30.4c-0.3,0-0.6,0.3-0.6,0.6v5.7c0,0.3,0.3,0.6,0.6,0.6h11.3
		c0.2,0,0.3-0.1,0.4-0.2c0.1-0.1,0.2-0.3,0.2-0.4V31c0-0.3-0.3-0.6-0.6-0.6H6.1z"/>
	<path class="st1" d="M7.7,30.4c-0.6,0-1-0.4-1-1v-3.2c0-2.8,2.3-5,5-5l0,0c2.4,0,4.5,1.7,4.9,4c0.1,0.5-0.2,1.1-0.8,1.2
		c-0.5,0.1-1.1-0.2-1.2-0.8c-0.3-1.4-1.5-2.4-3-2.4l0,0c-0.8,0-1.6,0.3-2.2,0.9c-0.6,0.6-0.9,1.3-0.9,2.2v3.2
		C8.7,29.9,8.3,30.4,7.7,30.4z"/>
</g>
</svg>
