<svg xmlns="http://www.w3.org/2000/svg" width="21.576" height="21.576" viewBox="0 0 21.576 21.576"><g transform="translate(-2.212 -2.25)"><path d="M21.8,10.027H20.3V3.75H9.75v6.277H8.25V2.25H21.8Z" transform="translate(-1.985 0)" fill="#151515"/><path d="M21.069,23.284H19.061v-1.5h2.008a1.259,1.259,0,0,0,1.258-1.258V15.508a1.259,1.259,0,0,0-1.258-1.258H5.008A1.259,1.259,0,0,0,3.75,15.508v5.019a1.259,1.259,0,0,0,1.258,1.258H7.015v1.5H5.008A2.761,2.761,0,0,1,2.25,20.527V15.508A2.761,2.761,0,0,1,5.008,12.75H21.069a2.761,2.761,0,0,1,2.758,2.758v5.019A2.761,2.761,0,0,1,21.069,23.284Z" transform="translate(-0.038 -3.473)" fill="#151515"/><path d="M8.25,20.25H21.8v9.53H8.25ZM20.3,21.75H9.75v6.53H20.3Z" transform="translate(-1.985 -5.954)" fill="#151515"/></g></svg>