<?xml version="1.0" encoding="utf-8"?>
<!-- Generator: Adobe Illustrator 26.0.1, SVG Export Plug-In . SVG Version: 6.00 Build 0)  -->
<svg version="1.1" id="Layer_1" xmlns="http://www.w3.org/2000/svg" xmlns:xlink="http://www.w3.org/1999/xlink" x="0px" y="0px"
	 viewBox="0 0 147.3 126" style="enable-background:new 0 0 147.3 126;" xml:space="preserve">
<style type="text/css">
	.st0{fill:none;}
	.st1{fill:#2E6A4D;}
	.st2{fill:#2FA444;}
	.st3{fill:#54AB34;}
	.st4{fill:#6AB451;}
	.st5{fill:#BDC21A;}
	.st6{fill:#21B8D9;}
	.st7{fill:#4EC0DB;}
	.st8{fill:#FFFFFF;}
	.st9{fill:#CECED1;}
	.st10{fill:#313133;}
	.st11{fill:#1A1818;}
</style>
<g transform="translate(-461.708 -371.291)">
	<g transform="translate(461.708 371.291)">
		<path class="st0" d="M25.8,17.3l-0.1,0L25.8,17.3L25.8,17.3L25.8,17.3z"/>
		<path class="st0" d="M60.7,20.7c-1.3-0.6-2.6-1.1-3.9-1.5C58.1,19.7,59.4,20.2,60.7,20.7z"/>
		<path class="st0" d="M27.1,6.2c1.8,0.5,3.9,1.2,6.1,2c-1.7-0.6-3.3-1.2-4.8-1.6C27.9,6.4,27.5,6.3,27.1,6.2z"/>
		<path class="st0" d="M33.9,8.4c-0.1,0-0.1,0-0.2-0.1L33.9,8.4z"/>
		<path class="st0" d="M54.6,18.5l0.3,0.1C54.9,18.6,54.8,18.6,54.6,18.5C54.7,18.5,54.7,18.5,54.6,18.5z"/>
		<path class="st1" d="M31.3,46.7c-7.6,0-14-5.6-15.1-13.2l0,0c-5.4-1-10.8-1.8-16.2-2.2c0,17.3,14,31.2,31.3,31.2
			c10,0,19.3-4.8,25.2-12.8c-4.4-3.1-9.1-5.8-14-8C39.7,44.9,35.6,46.7,31.3,46.7z"/>
		<path class="st2" d="M16.2,33.5L16.2,33.5z"/>
		<path class="st2" d="M55.8,30.9c-2.7-0.1-5.9-0.2-9.3-0.3c0,0.3,0,0.6,0,0.9c0,3.7-1.4,7.4-3.9,10.1c0,0,0,0,0,0
			c4.9,2.2,9.6,4.9,14,8c3.9-5.3,6-11.7,6-18.2C61.6,31.4,59.2,31.1,55.8,30.9z"/>
		<path class="st3" d="M25.8,17.3L25.8,17.3c-8.3-1.6-18.9-3-20.8-3.1C1.8,19.3,0,25.2,0,31.3c0,0,0,0,0,0
			c5.4,0.4,10.8,1.2,16.2,2.2l0,0c0,0,0-0.1,0-0.1c-0.1-0.6-0.1-1.2-0.1-1.9C16.1,25.2,19.9,19.5,25.8,17.3z"/>
		<path class="st3" d="M55.8,30.9c-3.6-2.9-7.5-5.4-11.6-7.5c1.3,2.1,2.1,4.6,2.3,7.1c0,0,0,0.1,0,0.1
			C49.9,30.7,53.1,30.8,55.8,30.9C55.8,30.9,55.8,30.9,55.8,30.9z"/>
		<path class="st3" d="M16.2,33.5L16.2,33.5z"/>
		<path class="st4" d="M25.8,17.3L25.8,17.3L25.8,17.3L25.8,17.3z"/>
		<path class="st4" d="M55.8,30.9c3.4,0.2,5.8,0.5,6.7,0.6C61.6,31.4,59.1,31.1,55.8,30.9C55.8,30.9,55.8,30.9,55.8,30.9z"/>
		<path class="st4" d="M55.8,30.9C55.8,30.9,55.8,30.9,55.8,30.9L55.8,30.9C55.8,30.9,55.8,30.9,55.8,30.9z"/>
		<path class="st5" d="M33.9,8.4l-0.2-0.1l-0.6-0.2c-2.2-0.8-4.2-1.4-6.1-2c-3.7-1.1-7.5-1.8-11.3-2.1c-4.3,2.5-8,5.9-10.7,10.1
			c1.9,0.1,12.4,1.5,20.7,3.1l0.1,0h0c1.7-0.7,3.6-1,5.4-1c0.2,0,0.8,0,0.8,0c7.6-0.7,15.2,0.1,22.6,2.2c0,0,0,0,0.1,0
			C48.1,14.5,41.1,11.1,33.9,8.4z"/>
		<path class="st5" d="M25.8,17.3L25.8,17.3L25.8,17.3z"/>
		<path class="st6" d="M28.3,6.5c9.8-2,20.3,0.3,23.4,1.1c-10-8.7-24.4-10.1-36-3.6c3.8,0.3,7.6,1,11.3,2.1
			C27.5,6.3,27.9,6.4,28.3,6.5z"/>
		<path class="st6" d="M15.8,4.1c3.8,0.3,7.6,1,11.3,2.1C23.4,5.1,19.6,4.4,15.8,4.1z"/>
		<path class="st7" d="M56.8,19.2c-0.6-0.2-1.2-0.4-1.8-0.6C55.6,18.8,56.2,19,56.8,19.2z"/>
		<path class="st7" d="M33.7,8.3l-0.6-0.2L33.7,8.3z"/>
		<path class="st7" d="M54.7,18.6c-6.6-4-13.6-7.5-20.8-10.2C41.1,11.1,48.1,14.5,54.7,18.6z"/>
		<path class="st8" d="M16.2,33.5"/>
		<line class="st0" x1="16.2" y1="33.5" x2="16.2" y2="33.5"/>
		<g transform="translate(28.338 5.722)">
			<path class="st0" d="M32.4,15c-0.3-0.1-0.8-0.4-1.4-0.6C31.4,14.6,31.9,14.8,32.4,15z"/>
			<path class="st7" d="M28.4,13.5c0.8,0.3,1.6,0.6,2.5,0.9c0.6,0.2,1.1,0.4,1.4,0.6c-1.8-5-4.9-9.5-9-13.1C20.3,1.1,9.8-1.2,0,0.8
				c1.5,0.4,5.5,1.8,5.5,1.9c7.2,2.7,14.2,6.1,20.8,10.2l0.1,0l0.1,0C27.2,13.1,27.8,13.3,28.4,13.5z"/>
			<path class="st4" d="M32.4,15c-0.5-0.2-1-0.4-1.4-0.6c-0.8-0.3-1.6-0.6-2.5-0.9c-0.6-0.2-1.2-0.4-1.8-0.6l-0.1,0l-0.2-0.1
				c-7.3-2.1-15-2.9-22.6-2.2c4.9,0.3,9.4,2.9,12,7l0,0c4.1,2.1,8,4.6,11.6,7.5l0,0c3.4,0.2,5.8,0.5,6.8,0.6c0-0.1,0-0.1,0-0.2
				C34.2,21.9,33.6,18.4,32.4,15z"/>
		</g>
	</g>
	<g transform="translate(534.014 391.017)">
		<g transform="translate(0 17.612)">
			<g transform="translate(24.797 0.225)">
				<path class="st9" d="M1.9,2.8C2,2.9,2.2,2.9,2.3,3c0.1,0.1,0.2,0.2,0.2,0.3c0.1,0.1,0.1,0.3,0.1,0.4c0,0.2,0,0.3,0,0.5
					c0,0.2,0,0.4,0,0.6c0,0.2-0.1,0.4-0.2,0.5C2.3,5.5,2.2,5.6,2,5.7c-0.4,0.2-0.9,0.2-1.4,0C0.5,5.6,0.4,5.5,0.3,5.3
					C0.2,5.2,0.1,5,0.1,4.8c0-0.2,0-0.4,0-0.6c0-0.2,0-0.3,0-0.5c0-0.1,0.1-0.3,0.1-0.4C0.2,3.2,0.3,3.1,0.4,3
					c0.1-0.1,0.3-0.2,0.4-0.2l0,0c-0.1,0-0.3-0.1-0.4-0.2C0.4,2.5,0.3,2.4,0.2,2.3C0.2,2.2,0.1,2.1,0.1,1.9c0-0.2,0-0.3,0-0.5
					c0-0.1,0-0.3,0-0.4c0-0.2,0.1-0.3,0.2-0.5c0.1-0.2,0.2-0.3,0.4-0.4C0.9,0.1,1.1,0,1.4,0.1c0.2,0,0.5,0,0.7,0.1
					c0.2,0.1,0.3,0.2,0.4,0.4C2.5,0.7,2.6,0.9,2.6,1c0,0.1,0,0.3,0,0.4c0,0.2,0,0.3,0,0.5c0,0.1-0.1,0.3-0.1,0.4
					C2.4,2.4,2.4,2.5,2.3,2.6C2.1,2.7,2,2.8,1.9,2.8L1.9,2.8z M1.4,5.5c0.1,0,0.3,0,0.4-0.1C1.9,5.3,2,5.2,2,5.1
					C2.1,5,2.1,4.9,2.2,4.8c0-0.2,0-0.3,0-0.5c0-0.1,0-0.3,0-0.5c0-0.1,0-0.3-0.1-0.4C2,3.3,1.9,3.2,1.8,3.1C1.5,3,1.2,3,0.9,3.1
					C0.8,3.2,0.7,3.3,0.6,3.4C0.6,3.6,0.5,3.7,0.5,3.9c0,0.2,0,0.3,0,0.5c0,0.2,0,0.3,0,0.5c0,0.1,0.1,0.3,0.1,0.4
					c0.1,0.1,0.2,0.2,0.3,0.2C1.1,5.5,1.2,5.5,1.4,5.5L1.4,5.5z M1.4,2.6c0.1,0,0.3,0,0.4-0.1C1.8,2.5,1.9,2.4,2,2.3
					C2,2.2,2.1,2.1,2.1,2c0-0.1,0-0.3,0-0.4c0-0.2,0-0.3,0-0.5C2.1,1,2.1,0.8,2,0.7C1.9,0.6,1.9,0.6,1.8,0.5C1.5,0.4,1.2,0.4,1,0.5
					C0.9,0.6,0.8,0.6,0.7,0.7C0.7,0.8,0.6,1,0.6,1.1c0,0.1,0,0.3,0,0.5c0,0.2,0,0.3,0,0.4c0,0.1,0.1,0.2,0.1,0.3
					C0.8,2.4,0.9,2.5,1,2.6C1.1,2.6,1.2,2.6,1.4,2.6L1.4,2.6z"/>
				<path class="st9" d="M1.4,5.9c-0.2,0-0.5,0-0.7-0.2C0.5,5.7,0.3,5.5,0.2,5.4C0.1,5.2,0.1,5,0,4.8c0-0.2,0-0.4,0-0.6
					c0-0.2,0-0.3,0-0.5c0-0.1,0.1-0.3,0.1-0.4C0.2,3.2,0.3,3.1,0.4,3c0.1-0.1,0.2-0.1,0.3-0.2c-0.1,0-0.2-0.1-0.3-0.2
					C0.3,2.6,0.2,2.5,0.2,2.3C0.1,2.2,0.1,2.1,0.1,1.9c0-0.2,0-0.3,0-0.5c0-0.1,0-0.3,0-0.4c0-0.2,0.1-0.3,0.2-0.5
					c0.1-0.2,0.2-0.3,0.4-0.4c0.5-0.2,1-0.2,1.5,0c0.2,0.1,0.3,0.2,0.4,0.4C2.6,0.7,2.6,0.9,2.6,1c0,0.2,0,0.3,0,0.4
					c0,0.2,0,0.3,0,0.5c0,0.1-0.1,0.3-0.1,0.4C2.5,2.5,2.4,2.6,2.3,2.7c-0.1,0-0.2,0-0.3,0.1C2,2.9,2,3,2.1,3c0.1,0,0.1,0,0.2,0
					c0.1,0.1,0.2,0.2,0.3,0.3c0.1,0.1,0.1,0.3,0.1,0.4c0,0.2,0,0.3,0,0.5c0,0.2,0,0.4,0,0.6c0,0.2-0.1,0.4-0.2,0.5
					C2.4,5.5,2.2,5.7,2.1,5.8C1.8,5.9,1.6,5.9,1.4,5.9z M1.4,0.1c-0.2,0-0.5,0-0.7,0.1C0.5,0.3,0.4,0.4,0.3,0.6
					C0.2,0.7,0.2,0.9,0.2,1c0,0.2,0,0.3,0,0.4c0,0.2,0,0.3,0,0.5c0,0.1,0,0.3,0.1,0.4c0,0.1,0.1,0.2,0.2,0.3
					c0.1,0.1,0.2,0.1,0.3,0.2h0l0.1,0.1l-0.1,0C0.7,2.9,0.6,3,0.5,3.1C0.4,3.1,0.3,3.2,0.2,3.4C0.2,3.5,0.1,3.6,0.1,3.8
					c0,0.2,0,0.3,0,0.5c0,0.2,0,0.4,0,0.6c0,0.2,0.1,0.3,0.2,0.5c0.1,0.2,0.2,0.3,0.4,0.4c0.2,0.1,0.4,0.2,0.7,0.1
					c0.2,0,0.5,0,0.7-0.1c0.2-0.1,0.3-0.2,0.4-0.4C2.5,5.1,2.5,5,2.6,4.8c0-0.2,0-0.4,0-0.6c0-0.2,0-0.3,0-0.5
					c0-0.1-0.1-0.3-0.1-0.4C2.4,3.2,2.4,3.1,2.3,3.1C2.1,3,2,2.9,1.9,2.9l0,0V2.8l0,0c0.1,0,0.3-0.1,0.4-0.2
					c0.1-0.1,0.2-0.2,0.2-0.3C2.5,2.2,2.5,2,2.5,1.9c0-0.2,0-0.3,0-0.5c0-0.1,0-0.3,0-0.4c0-0.2-0.1-0.3-0.1-0.4
					C2.3,0.4,2.2,0.3,2,0.2C1.8,0.1,1.6,0.1,1.4,0.1L1.4,0.1z M1.4,5.5c-0.2,0-0.3,0-0.4-0.1C0.8,5.4,0.7,5.3,0.6,5.2
					C0.6,5.1,0.5,4.9,0.5,4.8c0-0.2,0-0.3,0-0.5c0-0.2,0-0.3,0-0.5c0-0.1,0.1-0.3,0.1-0.4c0.1-0.1,0.2-0.2,0.3-0.3C1,3,1.2,3,1.4,3
					c0.2,0,0.3,0,0.5,0.1C2,3.2,2.1,3.3,2.1,3.4c0.1,0.1,0.1,0.3,0.1,0.4c0,0.2,0,0.3,0,0.5c0,0.2,0,0.3,0,0.5
					c0,0.1-0.1,0.3-0.1,0.4C2,5.3,1.9,5.4,1.8,5.4C1.7,5.5,1.5,5.5,1.4,5.5L1.4,5.5z M1.4,3.1c-0.2,0-0.3,0-0.4,0.1
					C0.8,3.3,0.7,3.4,0.7,3.5C0.6,3.6,0.6,3.7,0.6,3.9c0,0.2,0,0.3,0,0.5c0,0.2,0,0.3,0,0.4c0,0.1,0.1,0.2,0.1,0.4
					C0.8,5.2,0.9,5.3,1,5.3c0.2,0.1,0.5,0.1,0.8,0C1.8,5.3,1.9,5.2,2,5.1C2,5,2.1,4.9,2.1,4.8c0-0.1,0-0.3,0-0.4c0-0.1,0-0.3,0-0.5
					c0-0.1,0-0.3-0.1-0.4C2,3.4,1.9,3.3,1.8,3.2C1.7,3.1,1.5,3.1,1.4,3.1L1.4,3.1z M1.4,2.7c-0.1,0-0.3,0-0.4-0.1
					C0.8,2.5,0.8,2.5,0.7,2.4C0.6,2.2,0.6,2.1,0.5,2c0-0.2,0-0.3,0-0.5c0-0.2,0-0.3,0-0.5c0-0.1,0.1-0.3,0.1-0.4
					c0.1-0.1,0.2-0.2,0.3-0.2c0.1-0.1,0.3-0.1,0.4-0.1c0.1,0,0.3,0,0.4,0.1C1.9,0.5,2,0.6,2,0.7c0.1,0.1,0.1,0.2,0.1,0.4
					c0,0.2,0,0.3,0,0.5c0,0.2,0,0.3,0,0.5c0,0.1-0.1,0.3-0.1,0.4C2,2.5,1.9,2.5,1.8,2.6C1.6,2.7,1.5,2.7,1.4,2.7L1.4,2.7z M1.4,0.5
					c-0.1,0-0.3,0-0.4,0.1c-0.1,0-0.2,0.1-0.2,0.2C0.7,0.9,0.7,1,0.6,1.1c0,0.1,0,0.3,0,0.4c0,0.1,0,0.3,0,0.4
					c0,0.1,0.1,0.2,0.1,0.3C0.8,2.4,0.9,2.5,1,2.5c0.1,0.1,0.2,0.1,0.4,0.1c0.1,0,0.2,0,0.4-0.1c0.1,0,0.2-0.1,0.2-0.2
					C2,2.2,2,2.1,2.1,2c0-0.1,0-0.3,0-0.4c0-0.1,0-0.3,0-0.4C2.1,1,2,0.9,2,0.8C1.9,0.7,1.8,0.6,1.7,0.6C1.6,0.5,1.5,0.5,1.4,0.5
					L1.4,0.5z"/>
			</g>
			<path class="st9" d="M2.4,1.6c0-0.2,0-0.3,0-0.5c0-0.1-0.1-0.3-0.1-0.4C2.1,0.7,2,0.6,1.9,0.6C1.8,0.5,1.6,0.5,1.5,0.5
				C1.3,0.5,1,0.5,0.8,0.7C0.6,0.9,0.6,1.1,0.6,1.4c0,0.2,0,0.3,0.1,0.5c0,0.1,0.1,0.2,0.2,0.3C0.9,2.3,1,2.4,1.2,2.5
				c0.1,0.1,0.3,0.2,0.4,0.3C1.7,2.9,1.9,3,2,3.1c0.2,0.1,0.3,0.2,0.4,0.3c0.1,0.1,0.2,0.3,0.3,0.4c0.1,0.2,0.1,0.5,0.1,0.7
				c0,0.4-0.1,0.8-0.3,1.2C1.9,6.3,1,6.2,0.4,5.7C0.1,5.3,0,4.8,0,4.4h0.5c0,0.2,0,0.3,0,0.5c0,0.1,0.1,0.3,0.1,0.4
				C0.7,5.4,0.8,5.5,1,5.6c0.2,0.1,0.4,0.1,0.5,0.1c0.3,0,0.5-0.1,0.7-0.3c0.2-0.2,0.2-0.5,0.2-0.8c0-0.2,0-0.3-0.1-0.5
				C2.3,4,2.2,3.9,2.1,3.8C2,3.7,1.8,3.5,1.7,3.5C1.5,3.4,1.4,3.2,1.2,3.1C1,3,0.8,2.8,0.6,2.6C0.5,2.5,0.4,2.4,0.3,2.2
				C0.2,2.1,0.2,2,0.1,1.9c0-0.1,0-0.3,0-0.4c0-0.2,0-0.4,0.1-0.6c0.1-0.2,0.2-0.3,0.3-0.4C0.6,0.3,0.8,0.2,1,0.1
				C1.1,0.1,1.3,0,1.5,0c0.2,0,0.5,0,0.7,0.1c0.2,0.1,0.3,0.2,0.4,0.4C2.7,0.7,2.8,0.9,2.8,1c0,0.2,0.1,0.4,0.1,0.6L2.4,1.6z"/>
			<path class="st9" d="M1.5,6.2C1,6.2,0.6,6,0.3,5.7C0.1,5.3,0,4.8,0,4.4v0h0.6v0c0,0.2,0,0.3,0,0.5c0,0.1,0,0.3,0.1,0.4
				C0.8,5.4,0.9,5.5,1,5.5c0.2,0.1,0.3,0.1,0.5,0.1c0.2,0,0.5-0.1,0.6-0.2c0.2-0.2,0.2-0.5,0.2-0.7c0-0.2,0-0.3-0.1-0.5
				C2.2,4,2.1,3.9,2,3.8C1.9,3.7,1.8,3.6,1.7,3.5C1.5,3.4,1.3,3.3,1.2,3.1C0.9,3,0.7,2.9,0.6,2.7C0.4,2.6,0.3,2.4,0.2,2.3
				C0.2,2.2,0.1,2,0.1,1.9c0-0.1,0-0.3,0-0.4c0-0.2,0-0.5,0.1-0.7c0.1-0.4,0.4-0.6,0.8-0.7C1.1,0,1.3,0,1.5,0C1.8,0,2,0,2.2,0.1
				c0.2,0.1,0.3,0.2,0.4,0.4C2.7,0.7,2.8,0.8,2.8,1c0,0.2,0.1,0.4,0.1,0.6v0.1H2.3v0c0-0.2,0-0.3,0-0.5c0-0.1-0.1-0.2-0.1-0.3
				C2.1,0.7,2,0.7,1.9,0.6C1.8,0.6,1.6,0.5,1.5,0.5C1.3,0.5,1,0.6,0.9,0.7C0.7,0.9,0.6,1.1,0.6,1.4c0,0.2,0,0.3,0.1,0.5
				c0,0.1,0.1,0.2,0.2,0.3C1,2.3,1.1,2.4,1.2,2.4c0.1,0.1,0.3,0.2,0.4,0.3C1.8,2.8,1.9,3,2.1,3.1c0.2,0.1,0.3,0.2,0.4,0.3
				c0.1,0.1,0.2,0.3,0.3,0.5c0.1,0.2,0.1,0.5,0.1,0.7c0,0.4-0.1,0.9-0.4,1.2C2.3,6,1.9,6.2,1.5,6.2z M0.1,4.4c0,0.4,0.1,0.9,0.3,1.2
				C1,6.2,1.9,6.2,2.5,5.7C2.7,5.4,2.8,5,2.8,4.6c0-0.2,0-0.5-0.1-0.7C2.6,3.7,2.5,3.6,2.4,3.5C2.3,3.3,2.2,3.2,2,3.2
				C1.8,3,1.7,2.9,1.5,2.8C1.4,2.7,1.3,2.6,1.1,2.5C1,2.4,0.9,2.4,0.8,2.3C0.7,2.2,0.6,2.1,0.6,1.9C0.5,1.8,0.5,1.6,0.5,1.4
				c0-0.3,0.1-0.6,0.3-0.7C1,0.5,1.2,0.4,1.5,0.4c0.2,0,0.3,0,0.5,0.1c0.1,0.1,0.2,0.1,0.3,0.2C2.3,0.9,2.4,1,2.4,1.2
				c0,0.1,0,0.3,0,0.4h0.4c0-0.2,0-0.4-0.1-0.5c0-0.2-0.1-0.3-0.2-0.5C2.4,0.4,2.3,0.3,2.2,0.2C2,0.1,1.7,0.1,1.5,0.1
				c-0.2,0-0.4,0-0.6,0.1c-0.2,0-0.3,0.1-0.4,0.2C0.4,0.5,0.3,0.7,0.3,0.9C0.2,1.1,0.2,1.3,0.2,1.5c0,0.1,0,0.3,0,0.4
				c0,0.1,0.1,0.2,0.1,0.3c0.1,0.1,0.2,0.3,0.3,0.4C0.8,2.8,1,2.9,1.2,3.1c0.2,0.1,0.4,0.2,0.5,0.3C1.8,3.5,2,3.6,2.1,3.7
				C2.2,3.9,2.3,4,2.3,4.1c0.1,0.2,0.1,0.3,0.1,0.5c0,0.3-0.1,0.6-0.2,0.8C2,5.6,1.8,5.7,1.5,5.7c-0.2,0-0.4,0-0.6-0.1
				C0.8,5.5,0.7,5.4,0.6,5.3C0.5,5.1,0.5,5,0.5,4.8c0-0.1,0-0.3,0-0.4L0.1,4.4z"/>
			<g transform="translate(3.745 0.113)">
				<path class="st9" d="M2.4,0.1v0.4H0.5v2.2h1.8v0.4H0.5v2.3h1.9v0.4H0V0.1L2.4,0.1z"/>
				<path class="st9" d="M2.5,5.9H0V0h2.5v0.5H0.6v2.1h1.8v0.5H0.6v2.2h1.9V5.9z M0.1,5.8h2.3V5.5H0.5V3.1h1.8V2.7H0.5V0.4h1.9V0.1
					H0.1L0.1,5.8z"/>
			</g>
			<g transform="translate(6.83)">
				<path class="st9" d="M0,3.1c0-0.3,0-0.5,0-0.8c0-0.2,0-0.5,0.1-0.7c0-0.2,0.1-0.4,0.1-0.6c0.1-0.2,0.1-0.3,0.3-0.5
					C0.6,0.3,0.8,0.2,1,0.2C1.2,0.1,1.4,0,1.6,0.1c0.2,0,0.4,0,0.7,0.1c0.2,0.1,0.3,0.2,0.4,0.3C2.8,0.6,2.9,0.8,3,1
					C3,1.2,3.1,1.4,3.1,1.6c0,0.2,0,0.5,0.1,0.7c0,0.3,0,0.5,0,0.8s0,0.5,0,0.8c0,0.2,0,0.5-0.1,0.7C3.1,4.8,3,5,3,5.2
					C2.9,5.4,2.8,5.5,2.7,5.7C2.6,5.8,2.4,5.9,2.3,6C2.1,6.1,1.8,6.1,1.6,6.1C1.4,6.1,1.2,6.1,1,6C0.8,5.9,0.6,5.8,0.5,5.7
					C0.4,5.5,0.3,5.4,0.2,5.2C0.2,5,0.1,4.8,0.1,4.6c0-0.2,0-0.5-0.1-0.7C0,3.6,0,3.3,0,3.1z M0.5,3.1c0,0.4,0,0.7,0,1.1
					c0,0.3,0,0.6,0.1,0.8C0.7,5.2,0.8,5.4,1,5.5c0.4,0.2,0.9,0.2,1.3,0C2.4,5.4,2.5,5.2,2.6,5c0.1-0.3,0.1-0.5,0.1-0.8
					c0-0.3,0-0.7,0-1.1s0-0.7,0-1.1c0-0.3,0-0.6-0.1-0.8C2.5,1,2.4,0.8,2.2,0.7C1.9,0.4,1.4,0.4,1,0.7C0.8,0.8,0.7,1,0.6,1.2
					C0.6,1.5,0.5,1.7,0.5,2C0.5,2.3,0.5,2.7,0.5,3.1L0.5,3.1z"/>
				<path class="st9" d="M1.6,6.2c-0.2,0-0.5,0-0.7-0.1C0.8,6,0.6,5.9,0.5,5.7C0.4,5.6,0.3,5.4,0.2,5.2C0.1,5,0.1,4.8,0.1,4.6
					C0,4.3,0,4.1,0,3.9c0-0.2,0-0.5,0-0.8s0-0.5,0-0.8c0-0.2,0-0.5,0.1-0.7c0-0.2,0.1-0.4,0.1-0.6c0.1-0.2,0.2-0.4,0.3-0.5
					c0.1-0.1,0.3-0.3,0.5-0.3C1.4,0,1.9,0,2.3,0.1c0.2,0.1,0.3,0.2,0.5,0.3C2.9,0.6,3,0.8,3,1c0.1,0.2,0.1,0.4,0.1,0.6
					c0,0.2,0.1,0.5,0.1,0.7c0,0.3,0,0.5,0,0.8s0,0.5,0,0.8c0,0.2,0,0.5-0.1,0.7C3.1,4.8,3.1,5,3,5.2C3,5.4,2.9,5.6,2.8,5.7
					C2.6,5.9,2.5,6,2.3,6.1C2.1,6.1,1.8,6.2,1.6,6.2z M1.6,0.1c-0.2,0-0.4,0-0.6,0.1C0.8,0.3,0.7,0.4,0.6,0.5C0.4,0.7,0.4,0.8,0.3,1
					C0.2,1.2,0.2,1.4,0.2,1.6c0,0.2-0.1,0.5-0.1,0.7c0,0.2,0,0.5,0,0.8s0,0.5,0,0.8c0,0.2,0,0.5,0.1,0.7c0,0.2,0.1,0.4,0.1,0.6
					c0.1,0.2,0.1,0.3,0.3,0.5C0.7,5.8,0.8,5.9,1,6c0.4,0.1,0.9,0.1,1.3,0c0.2-0.1,0.3-0.2,0.4-0.3c0.1-0.1,0.2-0.3,0.3-0.5
					C3,5,3,4.8,3.1,4.6c0-0.2,0.1-0.5,0.1-0.7c0-0.2,0-0.5,0-0.8s0-0.5,0-0.8c0-0.2,0-0.5-0.1-0.7C3,1.4,3,1.2,2.9,1
					C2.9,0.8,2.8,0.7,2.7,0.5C2.6,0.4,2.4,0.3,2.3,0.2C2.1,0.1,1.8,0.1,1.6,0.1L1.6,0.1z M1.6,5.7C1.4,5.7,1.1,5.7,1,5.5
					C0.8,5.4,0.7,5.2,0.6,5C0.5,4.7,0.5,4.4,0.5,4.1c0-0.3,0-0.7,0-1.1s0-0.7,0-1.1c0-0.3,0-0.6,0.1-0.8C0.7,1,0.8,0.8,1,0.6
					c0.2-0.1,0.4-0.2,0.7-0.2c0.2,0,0.5,0.1,0.7,0.2C2.5,0.8,2.6,1,2.6,1.2C2.7,1.5,2.8,1.7,2.8,2c0,0.3,0,0.7,0,1.1s0,0.7,0,1.1
					c0,0.3,0,0.6-0.1,0.8C2.6,5.2,2.5,5.4,2.3,5.5C2.1,5.7,1.9,5.7,1.6,5.7L1.6,5.7z M1.6,0.5c-0.2,0-0.4,0-0.6,0.2
					C0.9,0.9,0.8,1,0.7,1.2C0.6,1.5,0.6,1.8,0.6,2c0,0.3,0,0.7,0,1.1s0,0.7,0,1.1c0,0.3,0,0.5,0.1,0.8C0.8,5.1,0.9,5.3,1,5.5
					c0.4,0.2,0.8,0.2,1.2,0C2.4,5.3,2.5,5.1,2.5,5c0.1-0.3,0.1-0.5,0.1-0.8c0-0.3,0-0.7,0-1.1s0-0.7,0-1.1c0-0.3,0-0.5-0.1-0.8
					C2.5,1,2.4,0.9,2.2,0.7C2,0.6,1.8,0.5,1.6,0.5L1.6,0.5z"/>
			</g>
			<g transform="translate(10.881 0.113)">
				<path class="st9" d="M0.5,3.7c0,0.2,0,0.4,0,0.6c0,0.2,0,0.4,0.1,0.6C0.7,5.1,0.8,5.3,1,5.4c0.4,0.2,0.9,0.2,1.2,0
					c0.1-0.1,0.3-0.3,0.3-0.5c0.1-0.2,0.1-0.4,0.1-0.6c0-0.2,0-0.4,0-0.6V0.1h0.5v4c0,0.3,0,0.6-0.1,0.9C2.9,5.3,2.8,5.5,2.6,5.6
					C2.5,5.8,2.3,5.9,2.1,5.9C2,6,1.8,6,1.6,6C1.4,6,1.2,6,1,5.9C0.8,5.9,0.6,5.8,0.5,5.6C0.3,5.5,0.2,5.3,0.2,5
					C0.1,4.7,0,4.4,0,4.1v-4h0.5L0.5,3.7z"/>
				<path class="st9" d="M1.6,6.1C1.4,6.1,1.2,6,1,6C0.8,5.9,0.6,5.8,0.5,5.7C0.3,5.5,0.2,5.3,0.1,5.1C0,4.7,0,4.4,0,4.1V0h0.6v3.7
					c0,0.2,0,0.4,0,0.6c0,0.2,0,0.4,0.1,0.6C0.7,5.1,0.9,5.2,1,5.3c0.4,0.2,0.8,0.2,1.2,0c0.1-0.1,0.2-0.3,0.3-0.4
					c0.1-0.2,0.1-0.4,0.1-0.6c0-0.2,0-0.4,0-0.6V0h0.6v4.1c0,0.3,0,0.6-0.1,0.9C2.9,5.3,2.8,5.5,2.7,5.7C2.5,5.8,2.4,5.9,2.2,6
					C2,6,1.8,6.1,1.6,6.1z M0.1,0.1v4c0,0.3,0,0.6,0.1,0.9c0.1,0.2,0.2,0.4,0.3,0.6C0.7,5.7,0.8,5.8,1,5.9C1.2,5.9,1.4,6,1.6,6
					c0.2,0,0.4,0,0.6-0.1c0.2-0.1,0.3-0.2,0.5-0.3C2.7,5.4,2.9,5.2,2.9,5C3,4.7,3,4.4,3,4.1v-4H2.7v3.6c0,0.2,0,0.4,0,0.6
					c0,0.2,0,0.4-0.1,0.6C2.5,5.1,2.4,5.3,2.2,5.4C2,5.6,1.8,5.6,1.6,5.6c-0.2,0-0.5-0.1-0.6-0.2C0.8,5.3,0.7,5.1,0.6,4.9
					C0.5,4.7,0.5,4.5,0.5,4.3c0-0.2,0-0.4,0-0.6V0.1L0.1,0.1z"/>
			</g>
			<g transform="translate(14.883 0.113)">
				<path class="st9" d="M0.1,5.9V0.1h0.5v5.4h1.7v0.4H0.1z"/>
				<path class="st9" d="M2.3,5.9H0V0h0.6v5.4h1.7V5.9z M0.1,5.8h2.1V5.5H0.5V0.1H0.1L0.1,5.8z"/>
			</g>
			<g transform="translate(18.734 0.313)">
				<path class="st9" d="M0.1,0.9c0.2-0.1,0.3-0.3,0.5-0.4C0.7,0.4,0.8,0.2,1,0.1h0.4v5.6H0.9v-5C0.8,0.8,0.6,1,0.5,1.1
					C0.4,1.2,0.2,1.4,0.1,1.5L0.1,0.9z"/>
				<path class="st9" d="M1.4,5.7H0.9V0.8C0.8,0.9,0.7,1.1,0.5,1.2C0.4,1.3,0.2,1.4,0.1,1.5L0,1.6V0.9l0,0c0.2-0.1,0.3-0.3,0.5-0.4
					C0.7,0.3,0.8,0.2,0.9,0l0,0h0.5L1.4,5.7z M1,5.6h0.3V0.1H1C0.9,0.3,0.7,0.4,0.6,0.6C0.4,0.7,0.3,0.8,0.1,1v0.4
					c0.1-0.1,0.3-0.2,0.4-0.3c0.1-0.1,0.3-0.3,0.4-0.4L1,0.6L1,5.6z"/>
			</g>
			<g transform="translate(21.6 0.225)">
				<path class="st9" d="M1.3,3.6c-0.4,0-0.7-0.1-0.9-0.4C0.1,2.7,0,2.2,0,1.8c0-0.2,0-0.5,0.1-0.7c0-0.2,0.1-0.4,0.2-0.5
					c0.1-0.2,0.2-0.3,0.4-0.4C0.9,0.1,1.1,0,1.3,0.1c0.3,0,0.5,0,0.7,0.1c0.2,0.1,0.3,0.2,0.4,0.4c0.1,0.2,0.1,0.5,0.2,0.7
					c0,0.3,0,0.6,0,0.9v0.7c0,0.5,0,1,0,1.3c0,0.3-0.1,0.6-0.1,0.9C2.4,5.4,2.2,5.6,2.1,5.7C1.8,5.8,1.6,5.9,1.3,5.9
					C1,5.9,0.7,5.8,0.4,5.6c-0.2-0.3-0.3-0.7-0.3-1h0.5c0,0.2,0,0.5,0.2,0.7c0.1,0.2,0.3,0.3,0.6,0.2c0.2,0,0.4,0,0.5-0.1
					C1.9,5.2,2,5.1,2.1,4.9c0.1-0.2,0.1-0.5,0.1-0.7c0-0.3,0-0.7,0-1.1h0C2.1,3.2,1.9,3.4,1.8,3.4C1.6,3.5,1.4,3.6,1.3,3.6z
					 M1.3,3.1c0.2,0,0.3,0,0.5-0.1C1.9,2.9,2,2.8,2,2.6c0.1-0.1,0.1-0.3,0.1-0.4c0-0.1,0-0.3,0-0.4c0-0.2,0-0.3,0-0.5
					c0-0.1,0-0.3-0.1-0.4C2,0.8,1.9,0.7,1.8,0.6C1.7,0.5,1.5,0.5,1.3,0.5C1,0.5,0.8,0.6,0.6,0.9C0.6,1,0.5,1.2,0.5,1.3
					c0,0.2,0,0.3,0,0.5s0,0.3,0,0.5c0,0.1,0,0.3,0.1,0.4C0.7,2.8,0.8,2.9,0.9,3C1,3.1,1.1,3.1,1.3,3.1L1.3,3.1z"/>
				<path class="st9" d="M1.3,5.9c-0.4,0-0.7-0.1-1-0.3C0.1,5.3,0,4.9,0.1,4.5V4.5h0.6v0.1c0,0.2,0,0.4,0.1,0.6
					c0.1,0.2,0.3,0.2,0.5,0.2c0.2,0,0.3,0,0.5-0.1C1.9,5.2,2,5,2,4.9c0.1-0.2,0.1-0.5,0.1-0.7c0-0.3,0-0.6,0-1
					C2,3.3,1.9,3.4,1.8,3.5C1.6,3.6,1.4,3.6,1.2,3.6c-0.4,0-0.8-0.1-1-0.5C0.1,2.7,0,2.3,0,1.8c0-0.2,0-0.5,0.1-0.7
					c0-0.2,0.1-0.4,0.2-0.6c0.1-0.2,0.2-0.3,0.4-0.4C0.9,0,1.1,0,1.3,0c0.3,0,0.5,0,0.8,0.2c0.2,0.1,0.3,0.3,0.4,0.5
					c0.1,0.2,0.2,0.5,0.2,0.7c0,0.3,0,0.6,0,0.9v0.7c0,0.5,0,1,0,1.3c0,0.3-0.1,0.6-0.2,0.9C2.4,5.4,2.3,5.6,2.1,5.7
					C1.9,5.9,1.6,5.9,1.3,5.9z M0.2,4.6c0,0.3,0.1,0.7,0.3,0.9C0.7,5.7,1,5.8,1.3,5.8c0.2,0,0.5,0,0.7-0.2c0.2-0.1,0.3-0.3,0.4-0.5
					c0.1-0.3,0.1-0.6,0.1-0.9c0-0.4,0-0.8,0-1.3V2.2c0-0.3,0-0.6,0-0.9c0-0.2-0.1-0.5-0.1-0.7C2.3,0.5,2.2,0.3,2,0.2
					C1.8,0.1,1.6,0.1,1.3,0.1c-0.2,0-0.4,0-0.6,0.1C0.6,0.3,0.4,0.4,0.3,0.6C0.2,0.7,0.2,0.9,0.2,1.1c0,0.2-0.1,0.5-0.1,0.7
					c0,0.5,0.1,0.9,0.3,1.3c0.2,0.3,0.5,0.4,0.9,0.4c0.2,0,0.3,0,0.5-0.1C1.9,3.3,2,3.2,2.1,3l0,0h0.1v0.1c0,0.4,0,0.8,0,1.1
					c0,0.3,0,0.5-0.1,0.7c0,0.2-0.1,0.3-0.3,0.4C1.7,5.4,1.5,5.5,1.3,5.5c-0.2,0-0.5-0.1-0.6-0.3C0.6,5,0.5,4.8,0.5,4.6L0.2,4.6z
					 M1.3,3.2C1.1,3.2,1,3.1,0.8,3C0.7,3,0.6,2.8,0.6,2.7C0.5,2.6,0.5,2.4,0.5,2.3c0-0.2,0-0.3,0-0.5s0-0.3,0-0.5
					c0-0.1,0.1-0.3,0.1-0.4c0.1-0.1,0.2-0.2,0.3-0.3C1,0.5,1.2,0.4,1.3,0.4c0.2,0,0.4,0,0.5,0.1C2,0.6,2,0.8,2.1,0.9
					C2.2,1,2.2,1.2,2.2,1.3c0,0.2,0,0.3,0,0.5c0,0.1,0,0.2,0,0.4c0,0.1,0,0.3-0.1,0.4C2,2.8,1.9,2.9,1.8,3C1.7,3.1,1.5,3.2,1.3,3.2
					L1.3,3.2z M1.3,0.5c-0.1,0-0.3,0-0.4,0.1C0.8,0.7,0.7,0.8,0.7,0.9C0.6,1,0.6,1.2,0.6,1.3c0,0.2,0,0.3,0,0.5c0,0.2,0,0.3,0,0.5
					c0,0.1,0,0.3,0.1,0.4c0,0.1,0.1,0.2,0.2,0.3C1,3,1.2,3.1,1.3,3.1c0.2,0,0.3,0,0.5-0.1C1.9,2.8,1.9,2.7,2,2.6
					C2,2.5,2.1,2.3,2.1,2.2c0-0.1,0-0.3,0-0.4c0-0.2,0-0.3,0-0.5c0-0.1,0-0.3-0.1-0.4c0-0.1-0.1-0.2-0.2-0.3
					C1.6,0.6,1.5,0.5,1.3,0.5L1.3,0.5z"/>
			</g>
			<g transform="translate(27.967 0.225)">
				<path class="st9" d="M1.9,2.8C2,2.9,2.2,2.9,2.3,3c0.1,0.1,0.2,0.2,0.2,0.3c0.1,0.1,0.1,0.3,0.1,0.4c0,0.2,0,0.3,0,0.5
					c0,0.2,0,0.4,0,0.6c0,0.2-0.1,0.4-0.2,0.5C2.3,5.5,2.2,5.6,2,5.7c-0.4,0.2-0.9,0.2-1.4,0C0.5,5.6,0.4,5.5,0.3,5.3
					C0.2,5.2,0.1,5,0.1,4.8c0-0.3-0.1-0.7,0-1c0-0.1,0.1-0.3,0.1-0.4C0.2,3.2,0.3,3.1,0.4,3c0.1-0.1,0.3-0.2,0.4-0.2l0,0
					c-0.1,0-0.3-0.1-0.4-0.2C0.4,2.5,0.3,2.4,0.2,2.3C0.2,2.2,0.2,2.1,0.1,1.9c0-0.2,0-0.3,0-0.5c0-0.1,0-0.3,0-0.4
					c0-0.2,0.1-0.3,0.1-0.5c0.1-0.2,0.2-0.3,0.4-0.4c0.5-0.2,1-0.2,1.4,0c0.2,0.1,0.3,0.2,0.4,0.4C2.5,0.7,2.6,0.9,2.6,1
					c0,0.1,0,0.3,0,0.4c0,0.2,0,0.3,0,0.5c0,0.1-0.1,0.3-0.1,0.4c0,0.1-0.1,0.2-0.2,0.3C2.2,2.7,2,2.8,1.9,2.8L1.9,2.8z M1.4,5.5
					c0.1,0,0.3,0,0.4-0.1C1.9,5.3,2,5.2,2,5.1C2.1,5,2.1,4.9,2.2,4.8c0-0.2,0-0.3,0-0.5c0-0.1,0-0.3,0-0.5c0-0.1,0-0.3-0.1-0.4
					C2,3.3,1.9,3.2,1.8,3.1C1.5,3,1.2,3,0.9,3.1C0.8,3.2,0.7,3.3,0.6,3.4C0.6,3.6,0.5,3.7,0.5,3.9c0,0.2,0,0.3,0,0.5
					c0,0.2,0,0.3,0,0.5c0,0.1,0.1,0.3,0.1,0.4c0.1,0.1,0.2,0.2,0.3,0.2C1.1,5.5,1.2,5.5,1.4,5.5L1.4,5.5z M1.4,2.6
					c0.1,0,0.3,0,0.4-0.1C1.8,2.5,1.9,2.4,2,2.3C2.1,2.2,2.1,2.1,2.1,2c0-0.1,0-0.3,0-0.4c0-0.2,0-0.3,0-0.5C2.1,1,2.1,0.8,2,0.7
					C1.9,0.6,1.9,0.6,1.8,0.5C1.6,0.5,1.5,0.4,1.4,0.4c-0.1,0-0.3,0-0.4,0.1c-0.1,0-0.2,0.1-0.2,0.2C0.7,0.8,0.6,1,0.6,1.1
					c0,0.1,0,0.3,0,0.5c0,0.2,0,0.3,0,0.4c0,0.1,0.1,0.2,0.1,0.3C0.8,2.4,0.9,2.5,1,2.6C1.1,2.6,1.2,2.6,1.4,2.6L1.4,2.6z"/>
				<path class="st9" d="M1.4,5.9c-0.2,0-0.5,0-0.7-0.2C0.5,5.7,0.3,5.5,0.2,5.4C0.1,5.2,0.1,5,0,4.8c0-0.2,0-0.4,0-0.6
					c0-0.2,0-0.3,0-0.5c0-0.1,0.1-0.3,0.1-0.4C0.2,3.2,0.3,3.1,0.4,3c0.1-0.1,0.2-0.1,0.3-0.2c-0.1,0-0.2-0.1-0.3-0.2
					C0.3,2.6,0.2,2.5,0.2,2.3C0.1,2.2,0.1,2.1,0.1,1.9c0-0.2,0-0.3,0-0.5c0-0.1,0-0.3,0-0.4c0-0.2,0.1-0.3,0.2-0.5
					c0.1-0.2,0.2-0.3,0.4-0.4C0.8,0,1.1,0,1.4,0c0.3,0,0.5,0,0.7,0.2c0.2,0.1,0.3,0.2,0.4,0.4C2.6,0.7,2.6,0.9,2.6,1
					c0,0.2,0,0.3,0,0.4c0,0.2,0,0.3,0,0.5c0,0.1-0.1,0.3-0.1,0.4C2.5,2.5,2.4,2.6,2.3,2.7C2.2,2.7,2.1,2.8,2,2.8
					c0.1,0,0.2,0.1,0.3,0.2c0.1,0.1,0.2,0.2,0.3,0.3c0.1,0.1,0.1,0.3,0.1,0.4c0,0.2,0,0.3,0,0.5c0,0.2,0,0.4,0,0.6
					c0,0.2-0.1,0.4-0.2,0.5C2.4,5.5,2.2,5.7,2.1,5.8C1.9,5.9,1.6,5.9,1.4,5.9z M1.4,0.1c-0.2,0-0.5,0-0.7,0.1
					C0.5,0.3,0.4,0.4,0.3,0.6C0.2,0.7,0.2,0.9,0.2,1c0,0.1,0,0.3,0,0.4c0,0.2,0,0.3,0,0.5c0,0.1,0.1,0.3,0.1,0.4
					c0,0.1,0.1,0.2,0.2,0.3c0.1,0.1,0.2,0.1,0.3,0.2h0l0.1,0.1l-0.1,0C0.7,2.9,0.6,3,0.5,3.1C0.4,3.1,0.3,3.2,0.2,3.4
					C0.2,3.5,0.2,3.6,0.1,3.8c0,0.2,0,0.3,0,0.5c0,0.2,0,0.4,0,0.6c0,0.2,0.1,0.3,0.2,0.5c0.1,0.2,0.2,0.3,0.4,0.4
					c0.4,0.2,0.9,0.2,1.3,0c0.2-0.1,0.3-0.2,0.4-0.4C2.5,5.1,2.6,5,2.6,4.8c0-0.2,0-0.4,0-0.6c0-0.2,0-0.3,0-0.5
					c0-0.1-0.1-0.3-0.1-0.4C2.4,3.2,2.4,3.1,2.3,3.1C2.1,3,2,2.9,1.9,2.9l0,0V2.8l0,0c0.1,0,0.3-0.1,0.4-0.2
					c0.1-0.1,0.2-0.2,0.2-0.3C2.5,2.2,2.5,2,2.5,1.9c0-0.2,0-0.3,0-0.5c0-0.1,0-0.3,0-0.4c0-0.2-0.1-0.3-0.1-0.4
					C2.3,0.4,2.2,0.3,2,0.2C1.8,0.1,1.6,0.1,1.4,0.1L1.4,0.1z M1.4,5.5c-0.1,0-0.3,0-0.4-0.1C0.8,5.4,0.7,5.3,0.7,5.2
					C0.6,5.1,0.5,4.9,0.5,4.8c0-0.2,0-0.3,0-0.5c0-0.2,0-0.3,0-0.5c0-0.1,0-0.3,0.1-0.4c0.1-0.1,0.2-0.2,0.3-0.3C1,3,1.2,3,1.4,3
					c0.2,0,0.3,0,0.5,0.1C2,3.2,2.1,3.3,2.1,3.4c0.1,0.1,0.1,0.3,0.1,0.4c0,0.2,0,0.3,0,0.5c0,0.2,0,0.3,0,0.5
					c0,0.1-0.1,0.3-0.1,0.4C2,5.3,1.9,5.4,1.8,5.4C1.7,5.5,1.5,5.5,1.4,5.5L1.4,5.5z M1.4,3.1c-0.2,0-0.3,0-0.4,0.1
					C0.8,3.3,0.7,3.4,0.7,3.5C0.6,3.6,0.6,3.7,0.6,3.9c0,0.2,0,0.3,0,0.5c0,0.2,0,0.3,0,0.4c0,0.1,0.1,0.2,0.1,0.4
					C0.8,5.2,0.9,5.3,1,5.3c0.2,0.1,0.5,0.1,0.8,0C1.8,5.3,1.9,5.2,2,5.1C2.1,5,2.1,4.9,2.1,4.8c0-0.1,0-0.3,0-0.4
					c0-0.2,0-0.3,0-0.5c0-0.1,0-0.3-0.1-0.4C2,3.4,1.9,3.3,1.8,3.2C1.7,3.1,1.5,3.1,1.4,3.1L1.4,3.1z M1.4,2.7c-0.1,0-0.3,0-0.4-0.1
					C0.8,2.5,0.8,2.5,0.7,2.4C0.6,2.2,0.6,2.1,0.6,2c0-0.2,0-0.3,0-0.5c0-0.2,0-0.3,0-0.5c0-0.1,0.1-0.3,0.1-0.4
					c0.1-0.1,0.2-0.2,0.3-0.2c0.1-0.1,0.3-0.1,0.4-0.1c0.1,0,0.3,0,0.4,0.1C1.9,0.5,2,0.6,2,0.7c0.1,0.1,0.1,0.2,0.1,0.4
					c0,0.2,0,0.3,0,0.5c0,0.2,0,0.3,0,0.5c0,0.1-0.1,0.3-0.1,0.4C2,2.5,1.9,2.5,1.8,2.6C1.6,2.7,1.5,2.7,1.4,2.7L1.4,2.7z M1.4,0.5
					c-0.1,0-0.3,0-0.4,0.1c-0.1,0-0.2,0.1-0.2,0.2C0.7,0.9,0.7,1,0.6,1.1c0,0.1,0,0.3,0,0.4c0,0.1,0,0.3,0,0.4
					c0,0.1,0.1,0.2,0.1,0.3C0.8,2.4,0.9,2.5,1,2.5c0.2,0.1,0.5,0.1,0.7,0c0.1,0,0.2-0.1,0.2-0.2C2,2.2,2,2.1,2.1,2
					c0-0.1,0-0.3,0-0.4c0-0.1,0-0.3,0-0.4C2.1,1,2,0.9,2,0.8C1.9,0.7,1.8,0.6,1.7,0.6C1.6,0.5,1.5,0.5,1.4,0.5L1.4,0.5z"/>
			</g>
		</g>
		<path class="st8" d="M2.9,0C1,0,0,1,0,3v5.8c-0.1,0.7,0.2,1.5,0.6,2.1c0.6,0.6,1.5,0.8,2.3,0.8c2,0,3-1,3-3V2.8
			C6,2.1,5.7,1.3,5.2,0.7C4.6,0.2,3.8-0.1,2.9,0z M4.1,8.9c0,1-0.4,1.5-1.2,1.5S1.7,9.9,1.7,8.9v-6c0-1.1,0.4-1.6,1.2-1.6
			s1.2,0.5,1.2,1.6V8.9z"/>
		<path class="st8" d="M9,0.1H7.3v11.4h4.7v-1.3H9V0.1z"/>
		<path class="st8" d="M13.9,4.9L13.9,4.9l-1.5-4.8h-1.7L13,6.8v4.7h1.7V6.8l2.4-6.7h-1.5L13.9,4.9z"/>
		<path class="st8" d="M22.7,8.8L22.7,8.8L21,0.1h-2.8v11.4h1.5V1.2l2,10.3h1.8l1.8-10.3v10.3h1.6V0.1h-2.7L22.7,8.8z"/>
		<path class="st8" d="M31.3,0.1h-2.9v11.4h1.7v-5h1.1c0.8,0.1,1.6-0.1,2.3-0.6c0.7-1.7,0.7-3.5,0-5.2C32.9,0.2,32.1,0,31.3,0.1z
			 M32.1,4.9C32,5.1,31.6,5.2,31,5.2h-0.9V1.4H31c0.6,0,1,0.1,1.1,0.3C32.4,2.8,32.4,3.9,32.1,4.9L32.1,4.9z"/>
		<rect x="35.3" y="0.1" class="st8" width="1.7" height="11.4"/>
		<path class="st8" d="M41.2,0c-2,0-2.9,1-2.9,3v5.8c-0.1,0.7,0.2,1.5,0.6,2.1c0.6,0.6,1.4,0.8,2.3,0.8c1.7,0,2.6-0.7,2.5-2.1V8.2
			h-1.6V9c0,0.9-0.4,1.4-1.1,1.4c-0.7,0-1-0.5-1-1.6V3.2c0-0.4,0-0.9,0.1-1.3c0.1-0.4,0.5-0.7,1-0.7c0.7,0,1,0.4,1,1.2v0.8h1.6V2.1
			C43.7,0.7,42.8,0,41.2,0z"/>
		<path class="st8" d="M53.3,0.7C52.6,0.2,51.8,0,51,0.1h-2.9v11.4h1.7v-5H51c0.8,0.1,1.6-0.1,2.3-0.6C54,4.3,54,2.4,53.3,0.7
			L53.3,0.7z M51.8,4.9c-0.1,0.2-0.5,0.3-1.1,0.3h-0.9V1.4h0.9c0.6,0,1,0.1,1.1,0.3C52.1,2.8,52.1,3.9,51.8,4.9L51.8,4.9z"/>
		<path class="st8" d="M56.1,0.1l-2.8,11.4H55l0.6-2.9h2.7l0.6,2.9h1.7L58.1,0.1H56.1z M55.9,7.3L57,1.8h0l1.1,5.5H55.9z"/>
		<path class="st8" d="M66.8,4.9c0.2-0.5,0.3-1.1,0.3-1.7c0.1-0.9-0.1-1.7-0.5-2.5c-0.3-0.4-1.1-0.6-2.3-0.6h-2.7v11.4h1.7v-5H64
			c0.4,0,0.8,0,1.1,0.3c0.2,0.3,0.3,0.7,0.2,1.1v2.6c0,0.4,0.1,0.7,0.2,1h1.6c-0.1-0.5-0.1-1-0.1-1.5V7.6c0-0.4-0.1-0.9-0.4-1.2
			c-0.3-0.3-0.8-0.5-1.2-0.5v0C66,5.7,66.5,5.4,66.8,4.9z M65.1,4.9c-0.2,0.2-0.6,0.3-1.3,0.3h-0.5V1.4h0.8c0.5,0,0.9,0.1,1,0.3
			c0.2,0.5,0.2,1,0.2,1.6C65.5,3.8,65.4,4.4,65.1,4.9L65.1,4.9z"/>
		<path class="st8" d="M71.9,5.4l2.9-5.4h-1.8l-2.8,5.2V0.1h-1.7v11.4h1.7V5.8l2.8,5.7h2L71.9,5.4z"/>
	</g>
</g>
<g transform="translate(-461.708 -371.291)">
	<g transform="translate(461.708 371.291)">
		<path class="st0" d="M25.9,80.4l-0.1,0L25.9,80.4L25.9,80.4L25.9,80.4z"/>
		<path class="st0" d="M60.8,83.8c-1.3-0.6-2.6-1.1-3.9-1.5C58.2,82.8,59.5,83.3,60.8,83.8z"/>
		<path class="st0" d="M27.2,69.3c1.8,0.5,3.9,1.2,6.1,2c-1.7-0.6-3.3-1.2-4.8-1.6C28,69.5,27.6,69.4,27.2,69.3z"/>
		<path class="st0" d="M34,71.5c-0.1,0-0.1,0-0.2-0.1L34,71.5z"/>
		<path class="st0" d="M54.7,81.6l0.3,0.1C55,81.7,54.9,81.7,54.7,81.6C54.8,81.6,54.7,81.6,54.7,81.6z"/>
		<path class="st1" d="M31.3,109.8c-7.6,0-14-5.6-15.1-13.2l0,0c-5.4-1-10.8-1.8-16.2-2.2c0,17.3,14,31.2,31.3,31.2
			c10,0,19.3-4.8,25.2-12.8c-4.4-3.1-9.1-5.8-14-8C39.7,108,35.6,109.8,31.3,109.8z"/>
		<path class="st2" d="M16.3,96.6L16.3,96.6z"/>
		<path class="st2" d="M55.9,94c-2.7-0.1-5.9-0.2-9.3-0.3c0,0.3,0,0.6,0,0.9c0,3.7-1.4,7.4-3.9,10.1c0,0,0,0,0,0
			c4.9,2.2,9.6,4.9,14,8c3.9-5.3,6-11.7,6-18.2C61.7,94.5,59.2,94.2,55.9,94z"/>
		<path class="st3" d="M25.9,80.4L25.9,80.4c-8.3-1.6-18.9-3-20.8-3.1c-3.3,5.1-5.1,11-5.1,17.1c0,0,0,0,0,0
			c5.4,0.4,10.8,1.2,16.2,2.2l0,0c0,0,0-0.1,0-0.1c-0.1-0.6-0.1-1.2-0.1-1.9C16.1,88.3,20,82.6,25.9,80.4z"/>
		<path class="st3" d="M55.8,94c-3.6-2.9-7.5-5.4-11.6-7.5c1.3,2.1,2.1,4.6,2.3,7.1c0,0,0,0.1,0,0.1C50,93.7,53.2,93.9,55.8,94
			C55.8,94,55.8,94,55.8,94z"/>
		<path class="st3" d="M16.3,96.6L16.3,96.6z"/>
		<path class="st4" d="M25.9,80.4L25.9,80.4L25.9,80.4L25.9,80.4z"/>
		<path class="st4" d="M55.9,94c3.4,0.2,5.8,0.5,6.7,0.6C61.7,94.5,59.2,94.2,55.9,94C55.8,94,55.8,94,55.9,94z"/>
		<path class="st4" d="M55.9,94C55.8,94,55.8,94,55.9,94L55.9,94C55.8,94,55.8,94,55.9,94z"/>
		<path class="st5" d="M34,71.5l-0.2-0.1l-0.6-0.2c-2.2-0.8-4.2-1.4-6.1-2c-3.7-1.1-7.5-1.8-11.3-2.1c-4.3,2.5-8,5.9-10.7,10.1
			c1.9,0.1,12.4,1.5,20.7,3.1l0.1,0h0c1.7-0.7,3.6-1,5.4-1c0.2,0,0.8,0,0.8,0c7.6-0.7,15.2,0.1,22.6,2.2c0,0,0,0,0.1,0
			C48.2,77.6,41.2,74.2,34,71.5z"/>
		<path class="st5" d="M25.9,80.4L25.9,80.4L25.9,80.4z"/>
		<path class="st6" d="M28.4,69.6c9.8-2,20.3,0.3,23.4,1.1c-10-8.7-24.4-10.1-36-3.6c3.8,0.3,7.6,1,11.3,2.1
			C27.6,69.4,28,69.5,28.4,69.6z"/>
		<path class="st6" d="M15.9,67.2c3.8,0.3,7.6,1,11.3,2.1C23.5,68.2,19.7,67.5,15.9,67.2z"/>
		<path class="st7" d="M56.9,82.3c-0.6-0.2-1.2-0.4-1.8-0.6C55.7,81.9,56.3,82.1,56.9,82.3z"/>
		<path class="st7" d="M33.8,71.4l-0.6-0.2L33.8,71.4z"/>
		<path class="st7" d="M54.8,81.6c-6.6-4-13.6-7.5-20.8-10.2C41.2,74.2,48.2,77.6,54.8,81.6z"/>
		<path class="st8" d="M16.3,96.6"/>
		<line class="st0" x1="16.3" y1="96.6" x2="16.3" y2="96.6"/>
		<g transform="translate(28.338 5.722)">
			<path class="st0" d="M32.4,78.1c-0.3-0.1-0.8-0.4-1.4-0.6C31.5,77.7,32,77.9,32.4,78.1z"/>
			<path class="st7" d="M28.5,76.6c0.8,0.3,1.6,0.6,2.5,0.9c0.6,0.2,1.1,0.4,1.4,0.6c-1.8-5-4.9-9.5-9-13.1
				c-3.1-0.8-13.6-3.2-23.4-1.1c1.5,0.4,5.5,1.8,5.5,1.9c7.2,2.7,14.2,6.1,20.8,10.2l0.1,0l0.1,0C27.3,76.2,27.9,76.4,28.5,76.6z"/>
			<path class="st4" d="M32.4,78.1c-0.5-0.2-1-0.4-1.4-0.6c-0.8-0.3-1.6-0.6-2.5-0.9c-0.6-0.2-1.2-0.4-1.8-0.6l-0.1,0l-0.2-0.1
				c-7.3-2.1-15-2.9-22.6-2.2c4.9,0.3,9.4,2.9,12,7l0,0c4.1,2.1,8,4.6,11.6,7.5l0,0c3.4,0.2,5.8,0.5,6.8,0.6c0-0.1,0-0.1,0-0.2
				C34.3,85,33.7,81.5,32.4,78.1z"/>
		</g>
	</g>
	<g transform="translate(534.014 391.017)">
		<g transform="translate(0 17.612)">
			<g transform="translate(24.797 0.225)">
				<path class="st10" d="M2,65.9c0.2,0,0.3,0.1,0.4,0.2c0.1,0.1,0.2,0.2,0.2,0.3c0.1,0.1,0.1,0.3,0.1,0.4c0,0.2,0,0.3,0,0.5
					c0,0.2,0,0.4,0,0.6c0,0.2-0.1,0.4-0.2,0.5c-0.1,0.2-0.2,0.3-0.4,0.4c-0.4,0.2-0.9,0.2-1.4,0c-0.2-0.1-0.3-0.2-0.4-0.4
					c-0.1-0.2-0.2-0.3-0.2-0.5c0-0.2,0-0.4,0-0.6c0-0.2,0-0.3,0-0.5c0-0.1,0.1-0.3,0.1-0.4c0.1-0.1,0.1-0.2,0.2-0.3
					C0.6,66,0.8,66,0.9,65.9l0,0c-0.1,0-0.3-0.1-0.4-0.2c-0.1-0.1-0.2-0.2-0.2-0.3c-0.1-0.1-0.1-0.3-0.1-0.4c0-0.2,0-0.3,0-0.5
					c0-0.1,0-0.3,0-0.4c0-0.2,0.1-0.3,0.2-0.5c0.1-0.2,0.2-0.3,0.4-0.4c0.2-0.1,0.5-0.2,0.7-0.1c0.2,0,0.5,0,0.7,0.1
					c0.2,0.1,0.3,0.2,0.4,0.4c0.1,0.1,0.1,0.3,0.1,0.5c0,0.1,0,0.3,0,0.4c0,0.2,0,0.3,0,0.5c0,0.1-0.1,0.3-0.1,0.4
					c-0.1,0.1-0.1,0.2-0.2,0.3C2.2,65.8,2.1,65.9,2,65.9L2,65.9z M1.4,68.6c0.1,0,0.3,0,0.4-0.1C2,68.4,2,68.3,2.1,68.2
					c0.1-0.1,0.1-0.2,0.1-0.4c0-0.2,0-0.3,0-0.5c0-0.1,0-0.3,0-0.5c0-0.1,0-0.3-0.1-0.4c-0.1-0.1-0.1-0.2-0.3-0.3
					c-0.3-0.2-0.6-0.2-0.9,0c-0.1,0.1-0.2,0.2-0.3,0.3c-0.1,0.1-0.1,0.3-0.1,0.4c0,0.2,0,0.3,0,0.5c0,0.2,0,0.3,0,0.5
					c0,0.1,0.1,0.3,0.1,0.4c0.1,0.1,0.2,0.2,0.3,0.2C1.2,68.5,1.3,68.6,1.4,68.6L1.4,68.6z M1.4,65.7c0.1,0,0.3,0,0.4-0.1
					c0.1-0.1,0.2-0.1,0.2-0.2c0.1-0.1,0.1-0.2,0.1-0.3c0-0.1,0-0.3,0-0.4c0-0.2,0-0.3,0-0.5c0-0.1-0.1-0.2-0.1-0.3
					c-0.1-0.1-0.1-0.2-0.2-0.2c-0.3-0.1-0.5-0.1-0.8,0c-0.1,0.1-0.2,0.1-0.2,0.2c-0.1,0.1-0.1,0.2-0.1,0.3c0,0.1,0,0.3,0,0.5
					c0,0.2,0,0.3,0,0.4c0,0.1,0.1,0.2,0.1,0.3c0.1,0.1,0.1,0.2,0.2,0.2C1.2,65.7,1.3,65.7,1.4,65.7L1.4,65.7z"/>
				<path class="st10" d="M1.4,69c-0.2,0-0.5,0-0.7-0.2c-0.2-0.1-0.3-0.2-0.4-0.4c-0.1-0.2-0.2-0.3-0.2-0.5c0-0.2,0-0.4,0-0.6
					c0-0.2,0-0.3,0-0.5c0-0.1,0.1-0.3,0.1-0.4c0.1-0.1,0.1-0.2,0.3-0.3C0.6,66,0.7,66,0.8,65.9c-0.1,0-0.2-0.1-0.3-0.2
					c-0.1-0.1-0.2-0.2-0.2-0.3c-0.1-0.1-0.1-0.3-0.1-0.4c0-0.2,0-0.3,0-0.5c0-0.1,0-0.3,0-0.4c0-0.2,0.1-0.3,0.2-0.5
					c0.1-0.2,0.2-0.3,0.4-0.4c0.5-0.2,1-0.2,1.5,0c0.2,0.1,0.3,0.2,0.4,0.4c0.1,0.1,0.1,0.3,0.2,0.5c0,0.2,0,0.3,0,0.4
					c0,0.2,0,0.3,0,0.5c0,0.1-0.1,0.3-0.1,0.4c-0.1,0.1-0.1,0.2-0.2,0.3c-0.1,0-0.2,0-0.3,0.1c0,0.1,0,0.2,0.1,0.3
					c0.1,0,0.1,0,0.2,0c0.1,0.1,0.2,0.2,0.3,0.3c0.1,0.1,0.1,0.3,0.1,0.4c0,0.2,0,0.3,0,0.5c0,0.2,0,0.4,0,0.6
					c0,0.2-0.1,0.4-0.2,0.5c-0.1,0.2-0.2,0.3-0.4,0.4C1.9,69,1.7,69,1.4,69z M1.4,63.2c-0.2,0-0.5,0-0.7,0.1
					c-0.1,0.1-0.3,0.2-0.4,0.3c-0.1,0.1-0.1,0.3-0.1,0.4c0,0.2,0,0.3,0,0.4c0,0.2,0,0.3,0,0.5c0,0.1,0,0.3,0.1,0.4
					c0,0.1,0.1,0.2,0.2,0.3c0.1,0.1,0.2,0.1,0.3,0.2h0L1,65.9l-0.1,0c-0.1,0-0.3,0.1-0.4,0.2c-0.1,0.1-0.2,0.2-0.2,0.3
					c-0.1,0.1-0.1,0.3-0.1,0.4c0,0.2,0,0.3,0,0.5c0,0.2,0,0.4,0,0.6c0,0.2,0.1,0.3,0.2,0.5c0.1,0.2,0.2,0.3,0.4,0.4
					c0.2,0.1,0.4,0.2,0.7,0.1c0.2,0,0.5,0,0.7-0.1c0.2-0.1,0.3-0.2,0.4-0.4c0.1-0.2,0.1-0.3,0.2-0.5c0-0.2,0-0.4,0-0.6
					c0-0.2,0-0.3,0-0.5c0-0.1-0.1-0.3-0.1-0.4c-0.1-0.1-0.1-0.2-0.2-0.3C2.2,66.1,2.1,66,1.9,66l0,0v-0.1l0,0c0.1,0,0.3-0.1,0.4-0.2
					c0.1-0.1,0.2-0.2,0.2-0.3c0.1-0.1,0.1-0.3,0.1-0.4c0-0.2,0-0.3,0-0.5c0-0.1,0-0.3,0-0.4c0-0.2-0.1-0.3-0.1-0.4
					c-0.1-0.1-0.2-0.3-0.4-0.3C1.9,63.2,1.7,63.2,1.4,63.2L1.4,63.2z M1.4,68.6c-0.2,0-0.3,0-0.4-0.1c-0.1-0.1-0.2-0.2-0.3-0.3
					c-0.1-0.1-0.1-0.3-0.1-0.4c0-0.2,0-0.3,0-0.5c0-0.2,0-0.3,0-0.5c0-0.1,0.1-0.3,0.1-0.4c0.1-0.1,0.2-0.2,0.3-0.3
					c0.1-0.1,0.3-0.1,0.5-0.1c0.2,0,0.3,0,0.5,0.1c0.1,0.1,0.2,0.2,0.3,0.3c0.1,0.1,0.1,0.3,0.1,0.4c0,0.2,0,0.3,0,0.5
					c0,0.2,0,0.3,0,0.5c0,0.1-0.1,0.3-0.1,0.4c-0.1,0.1-0.2,0.2-0.3,0.3C1.7,68.6,1.6,68.6,1.4,68.6L1.4,68.6z M1.4,66.2
					c-0.2,0-0.3,0-0.4,0.1c-0.1,0.1-0.2,0.2-0.2,0.3c-0.1,0.1-0.1,0.3-0.1,0.4c0,0.2,0,0.3,0,0.5c0,0.2,0,0.3,0,0.4
					c0,0.1,0.1,0.2,0.1,0.4c0.1,0.1,0.1,0.2,0.2,0.2c0.2,0.1,0.5,0.1,0.8,0c0.1-0.1,0.2-0.1,0.2-0.2c0.1-0.1,0.1-0.2,0.1-0.4
					c0-0.1,0-0.3,0-0.4c0-0.1,0-0.3,0-0.5c0-0.1,0-0.3-0.1-0.4c-0.1-0.1-0.1-0.2-0.2-0.3C1.8,66.2,1.6,66.2,1.4,66.2L1.4,66.2z
					 M1.4,65.8c-0.1,0-0.3,0-0.4-0.1c-0.1-0.1-0.2-0.1-0.3-0.2c-0.1-0.1-0.1-0.2-0.1-0.4c0-0.2,0-0.3,0-0.5c0-0.2,0-0.3,0-0.5
					c0-0.1,0.1-0.3,0.1-0.4c0.1-0.1,0.2-0.2,0.3-0.2c0.1-0.1,0.3-0.1,0.4-0.1c0.1,0,0.3,0,0.4,0.1c0.1,0.1,0.2,0.1,0.3,0.2
					c0.1,0.1,0.1,0.2,0.1,0.4c0,0.2,0,0.3,0,0.5c0,0.2,0,0.3,0,0.5c0,0.1-0.1,0.3-0.1,0.4C2,65.6,2,65.6,1.8,65.7
					C1.7,65.8,1.6,65.8,1.4,65.8L1.4,65.8z M1.4,63.6c-0.1,0-0.3,0-0.4,0.1c-0.1,0-0.2,0.1-0.2,0.2c-0.1,0.1-0.1,0.2-0.1,0.3
					c0,0.1,0,0.3,0,0.4c0,0.1,0,0.3,0,0.4c0,0.1,0.1,0.2,0.1,0.3c0.1,0.1,0.1,0.2,0.2,0.2c0.1,0.1,0.2,0.1,0.4,0.1
					c0.1,0,0.2,0,0.4-0.1c0.1,0,0.2-0.1,0.2-0.2c0.1-0.1,0.1-0.2,0.1-0.3c0-0.1,0-0.3,0-0.4c0-0.1,0-0.3,0-0.4
					c0-0.1-0.1-0.2-0.1-0.3c-0.1-0.1-0.1-0.2-0.2-0.2C1.7,63.6,1.6,63.6,1.4,63.6L1.4,63.6z"/>
			</g>
			<path class="st10" d="M2.5,64.7c0-0.2,0-0.3,0-0.5c0-0.1-0.1-0.3-0.1-0.4c-0.1-0.1-0.2-0.2-0.3-0.2c-0.1-0.1-0.3-0.1-0.4-0.1
				c-0.2,0-0.5,0.1-0.7,0.2c-0.2,0.2-0.3,0.4-0.2,0.7c0,0.2,0,0.3,0.1,0.5c0,0.1,0.1,0.2,0.2,0.3c0.1,0.1,0.2,0.2,0.3,0.2
				c0.1,0.1,0.3,0.2,0.4,0.3C1.8,66,2,66.1,2.1,66.2c0.2,0.1,0.3,0.2,0.4,0.3c0.1,0.1,0.2,0.3,0.3,0.4c0.1,0.2,0.1,0.5,0.1,0.7
				c0,0.4-0.1,0.8-0.3,1.2C2,69.4,1,69.3,0.4,68.8c-0.3-0.4-0.4-0.8-0.3-1.3h0.5c0,0.2,0,0.3,0,0.5c0,0.1,0.1,0.3,0.1,0.4
				c0.1,0.1,0.2,0.2,0.3,0.3c0.2,0.1,0.4,0.1,0.5,0.1c0.3,0,0.5-0.1,0.7-0.3c0.2-0.2,0.2-0.5,0.2-0.8c0-0.2,0-0.3-0.1-0.5
				c-0.1-0.1-0.1-0.3-0.2-0.4c-0.1-0.1-0.2-0.2-0.4-0.3c-0.1-0.1-0.3-0.2-0.5-0.3c-0.2-0.1-0.4-0.3-0.6-0.5
				c-0.1-0.1-0.2-0.2-0.3-0.4c-0.1-0.1-0.1-0.2-0.1-0.4c0-0.1,0-0.3,0-0.4c0-0.2,0-0.4,0.1-0.6c0.1-0.2,0.2-0.3,0.3-0.4
				c0.1-0.1,0.3-0.2,0.4-0.3c0.2-0.1,0.4-0.1,0.6-0.1c0.2,0,0.5,0,0.7,0.1c0.2,0.1,0.3,0.2,0.4,0.4c0.1,0.2,0.2,0.3,0.2,0.5
				c0,0.2,0.1,0.4,0.1,0.6L2.5,64.7z"/>
			<path class="st10" d="M1.6,69.3c-0.4,0-0.9-0.1-1.2-0.5c-0.3-0.4-0.4-0.9-0.3-1.3v0h0.6v0c0,0.2,0,0.3,0,0.5c0,0.1,0,0.3,0.1,0.4
				c0.1,0.1,0.2,0.2,0.3,0.3c0.2,0.1,0.3,0.1,0.5,0.1c0.2,0,0.5-0.1,0.6-0.2c0.2-0.2,0.2-0.5,0.2-0.7c0-0.2,0-0.3-0.1-0.5
				c-0.1-0.1-0.1-0.2-0.2-0.4c-0.1-0.1-0.2-0.2-0.4-0.3c-0.1-0.1-0.3-0.2-0.5-0.3c-0.2-0.1-0.4-0.3-0.6-0.5
				c-0.1-0.1-0.2-0.3-0.3-0.4c-0.1-0.1-0.1-0.3-0.1-0.4c0-0.1,0-0.3,0-0.4c0-0.2,0-0.5,0.1-0.7c0.1-0.4,0.4-0.6,0.8-0.7
				c0.2-0.1,0.4-0.1,0.6-0.1c0.2,0,0.5,0,0.7,0.1c0.2,0.1,0.3,0.2,0.4,0.4c0.1,0.2,0.2,0.3,0.2,0.5C3,64.3,3,64.5,3,64.7v0.1H2.4v0
				c0-0.2,0-0.3,0-0.5c0-0.1-0.1-0.2-0.1-0.3c-0.1-0.1-0.1-0.2-0.2-0.2c-0.1-0.1-0.3-0.1-0.4-0.1c-0.2,0-0.5,0.1-0.6,0.2
				c-0.2,0.2-0.3,0.4-0.2,0.7c0,0.2,0,0.3,0.1,0.5c0,0.1,0.1,0.2,0.2,0.3c0.1,0.1,0.2,0.2,0.3,0.2c0.1,0.1,0.3,0.2,0.4,0.3
				c0.2,0.1,0.3,0.2,0.5,0.3c0.2,0.1,0.3,0.2,0.4,0.3c0.1,0.1,0.2,0.3,0.3,0.5C3,67.2,3,67.4,3,67.7c0,0.4-0.1,0.9-0.4,1.2
				C2.3,69.1,2,69.3,1.6,69.3z M0.2,67.5c0,0.4,0.1,0.9,0.3,1.2c0.6,0.5,1.5,0.6,2.1,0.1c0.2-0.3,0.4-0.7,0.3-1.1
				c0-0.2,0-0.5-0.1-0.7c-0.1-0.2-0.2-0.3-0.3-0.4c-0.1-0.1-0.3-0.2-0.4-0.3c-0.2-0.1-0.3-0.2-0.5-0.3c-0.1-0.1-0.3-0.2-0.4-0.3
				c-0.1-0.1-0.2-0.2-0.3-0.3c-0.1-0.1-0.2-0.2-0.2-0.3c-0.1-0.2-0.1-0.3-0.1-0.5c0-0.3,0.1-0.6,0.3-0.7c0.2-0.1,0.5-0.2,0.7-0.2
				c0.2,0,0.3,0,0.5,0.1c0.1,0.1,0.2,0.1,0.3,0.2c0.1,0.1,0.1,0.2,0.1,0.4c0,0.1,0,0.3,0,0.4h0.4c0-0.2,0-0.4-0.1-0.5
				c0-0.2-0.1-0.3-0.2-0.5c-0.1-0.1-0.2-0.3-0.4-0.3c-0.2-0.1-0.4-0.1-0.6-0.1c-0.2,0-0.4,0-0.6,0.1c-0.2,0-0.3,0.1-0.4,0.2
				c-0.1,0.1-0.2,0.3-0.3,0.4c-0.1,0.2-0.1,0.4-0.1,0.6c0,0.1,0,0.3,0,0.4c0,0.1,0.1,0.2,0.1,0.3c0.1,0.1,0.2,0.3,0.3,0.4
				c0.2,0.2,0.4,0.3,0.6,0.5c0.2,0.1,0.4,0.2,0.5,0.3c0.1,0.1,0.3,0.2,0.4,0.3c0.1,0.1,0.2,0.2,0.2,0.4c0.1,0.2,0.1,0.3,0.1,0.5
				c0,0.3-0.1,0.6-0.2,0.8c-0.2,0.2-0.4,0.3-0.7,0.3c-0.2,0-0.4,0-0.6-0.1c-0.1-0.1-0.2-0.2-0.3-0.3c-0.1-0.1-0.1-0.3-0.1-0.4
				c0-0.1,0-0.3,0-0.4L0.2,67.5z"/>
			<g transform="translate(3.745 0.113)">
				<path class="st10" d="M2.5,63.1v0.4H0.6v2.2h1.8v0.4H0.6v2.3h1.9V69H0.1v-5.8L2.5,63.1z"/>
				<path class="st10" d="M2.6,69H0.1v-5.9h2.5v0.5H0.6v2.1h1.8v0.5H0.6v2.2h1.9V69z M0.2,68.9h2.3v-0.3H0.5v-2.5h1.8v-0.3H0.5v-2.3
					h1.9v-0.3H0.2L0.2,68.9z"/>
			</g>
			<g transform="translate(6.83)">
				<path class="st10" d="M0.1,66.2c0-0.3,0-0.5,0-0.8c0-0.2,0-0.5,0.1-0.7c0-0.2,0.1-0.4,0.1-0.6c0.1-0.2,0.1-0.3,0.3-0.5
					c0.1-0.1,0.3-0.2,0.4-0.3c0.2-0.1,0.4-0.1,0.7-0.1c0.2,0,0.4,0,0.7,0.1c0.2,0.1,0.3,0.2,0.4,0.3c0.1,0.1,0.2,0.3,0.3,0.5
					c0.1,0.2,0.1,0.4,0.1,0.6c0,0.2,0,0.5,0.1,0.7c0,0.3,0,0.5,0,0.8s0,0.5,0,0.8c0,0.2,0,0.5-0.1,0.7c0,0.2-0.1,0.4-0.1,0.6
					c-0.1,0.2-0.1,0.3-0.3,0.5c-0.1,0.1-0.3,0.2-0.4,0.3c-0.2,0.1-0.4,0.1-0.7,0.1c-0.2,0-0.4,0-0.7-0.1c-0.2-0.1-0.3-0.2-0.4-0.3
					c-0.1-0.1-0.2-0.3-0.3-0.5c-0.1-0.2-0.1-0.4-0.1-0.6c0-0.2,0-0.5-0.1-0.7C0.1,66.7,0.1,66.4,0.1,66.2z M0.6,66.2
					c0,0.4,0,0.7,0,1.1c0,0.3,0,0.6,0.1,0.8c0.1,0.2,0.2,0.4,0.3,0.5c0.4,0.2,0.9,0.2,1.3,0c0.2-0.1,0.3-0.3,0.3-0.5
					c0.1-0.3,0.1-0.5,0.1-0.8c0-0.3,0-0.7,0-1.1s0-0.7,0-1.1c0-0.3,0-0.6-0.1-0.8c-0.1-0.2-0.2-0.4-0.3-0.5c-0.4-0.2-0.9-0.2-1.3,0
					c-0.2,0.1-0.3,0.3-0.3,0.5c-0.1,0.3-0.1,0.5-0.1,0.8C0.6,65.4,0.6,65.8,0.6,66.2L0.6,66.2z"/>
				<path class="st10" d="M1.7,69.3c-0.2,0-0.5,0-0.7-0.1c-0.2-0.1-0.3-0.2-0.5-0.3c-0.1-0.1-0.2-0.3-0.3-0.5
					c-0.1-0.2-0.1-0.4-0.1-0.6c0-0.2-0.1-0.5-0.1-0.7c0-0.2,0-0.5,0-0.8s0-0.5,0-0.8c0-0.2,0-0.5,0.1-0.7c0-0.2,0.1-0.4,0.1-0.6
					c0.1-0.2,0.2-0.4,0.3-0.5c0.1-0.1,0.3-0.3,0.5-0.3c0.4-0.2,0.9-0.2,1.3,0c0.2,0.1,0.3,0.2,0.5,0.3c0.1,0.1,0.2,0.3,0.3,0.5
					c0.1,0.2,0.1,0.4,0.1,0.6c0,0.2,0.1,0.5,0.1,0.7c0,0.3,0,0.5,0,0.8s0,0.5,0,0.8c0,0.2,0,0.5-0.1,0.7c0,0.2-0.1,0.4-0.1,0.6
					c-0.1,0.2-0.2,0.4-0.3,0.5c-0.1,0.1-0.3,0.3-0.5,0.3C2.2,69.2,1.9,69.3,1.7,69.3z M1.7,63.2c-0.2,0-0.4,0-0.6,0.1
					c-0.2,0.1-0.3,0.2-0.4,0.3c-0.1,0.1-0.2,0.3-0.3,0.5c-0.1,0.2-0.1,0.4-0.1,0.6c0,0.2-0.1,0.5-0.1,0.7c0,0.2,0,0.5,0,0.8
					s0,0.5,0,0.8c0,0.2,0,0.5,0.1,0.7c0,0.2,0.1,0.4,0.1,0.6c0.1,0.2,0.1,0.3,0.3,0.5c0.1,0.1,0.3,0.2,0.4,0.3
					c0.4,0.1,0.9,0.1,1.3,0c0.2-0.1,0.3-0.2,0.4-0.3C2.9,68.6,3,68.5,3,68.3c0.1-0.2,0.1-0.4,0.1-0.6c0-0.2,0.1-0.5,0.1-0.7
					c0-0.2,0-0.5,0-0.8s0-0.5,0-0.8c0-0.2,0-0.5-0.1-0.7c0-0.2-0.1-0.4-0.1-0.6c-0.1-0.2-0.1-0.3-0.3-0.5c-0.1-0.1-0.3-0.2-0.4-0.3
					C2.1,63.2,1.9,63.2,1.7,63.2L1.7,63.2z M1.7,68.8c-0.2,0-0.5-0.1-0.7-0.2c-0.2-0.1-0.3-0.3-0.3-0.6c-0.1-0.3-0.1-0.6-0.1-0.8
					c0-0.3,0-0.7,0-1.1s0-0.7,0-1.1c0-0.3,0-0.6,0.1-0.8c0.1-0.2,0.2-0.4,0.3-0.6c0.2-0.1,0.4-0.2,0.7-0.2c0.2,0,0.5,0.1,0.7,0.2
					c0.2,0.1,0.3,0.3,0.3,0.6c0.1,0.3,0.1,0.6,0.1,0.8c0,0.3,0,0.7,0,1.1s0,0.7,0,1.1c0,0.3,0,0.6-0.1,0.8c-0.1,0.2-0.2,0.4-0.3,0.6
					C2.2,68.8,1.9,68.8,1.7,68.8L1.7,68.8z M1.7,63.6c-0.2,0-0.4,0-0.6,0.2c-0.2,0.1-0.3,0.3-0.3,0.5c-0.1,0.3-0.1,0.5-0.1,0.8
					c0,0.3,0,0.7,0,1.1s0,0.7,0,1.1c0,0.3,0,0.5,0.1,0.8c0.1,0.2,0.2,0.4,0.3,0.5c0.4,0.2,0.8,0.2,1.2,0c0.2-0.1,0.3-0.3,0.3-0.5
					c0.1-0.3,0.1-0.5,0.1-0.8c0-0.3,0-0.7,0-1.1s0-0.7,0-1.1c0-0.3,0-0.5-0.1-0.8c-0.1-0.2-0.2-0.4-0.3-0.5
					C2.1,63.7,1.9,63.6,1.7,63.6L1.7,63.6z"/>
			</g>
			<g transform="translate(10.881 0.113)">
				<path class="st10" d="M0.6,66.8c0,0.2,0,0.4,0,0.6c0,0.2,0,0.4,0.1,0.6c0.1,0.2,0.2,0.3,0.3,0.5c0.4,0.2,0.9,0.2,1.2,0
					c0.1-0.1,0.3-0.3,0.3-0.5c0.1-0.2,0.1-0.4,0.1-0.6c0-0.2,0-0.4,0-0.6v-3.7h0.5v4c0,0.3,0,0.6-0.1,0.9c-0.1,0.2-0.2,0.4-0.3,0.6
					C2.6,68.9,2.4,69,2.2,69c-0.2,0.1-0.4,0.1-0.6,0.1c-0.2,0-0.4,0-0.6-0.1c-0.2-0.1-0.4-0.2-0.5-0.3c-0.2-0.2-0.3-0.4-0.3-0.6
					c-0.1-0.3-0.1-0.6-0.1-0.9v-4h0.5L0.6,66.8z"/>
				<path class="st10" d="M1.7,69.1c-0.2,0-0.4,0-0.6-0.1c-0.2-0.1-0.4-0.2-0.5-0.3c-0.2-0.2-0.3-0.4-0.3-0.6
					c-0.1-0.3-0.1-0.6-0.1-0.9v-4.1h0.6v3.7c0,0.2,0,0.4,0,0.6c0,0.2,0,0.4,0.1,0.6c0.1,0.2,0.2,0.3,0.3,0.4c0.4,0.2,0.8,0.2,1.2,0
					c0.1-0.1,0.2-0.3,0.3-0.4c0.1-0.2,0.1-0.4,0.1-0.6c0-0.2,0-0.4,0-0.6v-3.7h0.6v4.1c0,0.3,0,0.6-0.1,0.9
					c-0.1,0.2-0.2,0.4-0.3,0.6c-0.1,0.1-0.3,0.3-0.5,0.3C2.1,69.1,1.9,69.1,1.7,69.1z M0.2,63.2v4c0,0.3,0,0.6,0.1,0.9
					c0.1,0.2,0.2,0.4,0.3,0.6c0.1,0.1,0.3,0.2,0.5,0.3C1.3,69,1.5,69.1,1.7,69c0.2,0,0.4,0,0.6-0.1c0.2-0.1,0.3-0.2,0.5-0.3
					c0.1-0.2,0.3-0.4,0.3-0.6c0.1-0.3,0.1-0.6,0.1-0.9v-4H2.8v3.6c0,0.2,0,0.4,0,0.6c0,0.2,0,0.4-0.1,0.6c-0.1,0.2-0.2,0.4-0.3,0.5
					c-0.2,0.1-0.4,0.2-0.6,0.2c-0.2,0-0.5-0.1-0.6-0.2c-0.2-0.1-0.3-0.3-0.3-0.5c-0.1-0.2-0.1-0.4-0.1-0.6c0-0.2,0-0.4,0-0.6v-3.6
					L0.2,63.2z"/>
			</g>
			<g transform="translate(14.883 0.113)">
				<path class="st10" d="M0.1,69v-5.8h0.5v5.4h1.7V69H0.1z"/>
				<path class="st10" d="M2.4,69H0.1v-5.9h0.6v5.4h1.7V69z M0.2,68.9h2.1v-0.3H0.5v-5.4H0.2L0.2,68.9z"/>
			</g>
			<g transform="translate(18.734 0.313)">
				<path class="st10" d="M0.1,64c0.2-0.1,0.3-0.3,0.5-0.4c0.2-0.1,0.3-0.3,0.4-0.5h0.4v5.6H1v-5c-0.1,0.1-0.3,0.3-0.4,0.4
					c-0.1,0.1-0.3,0.3-0.5,0.4L0.1,64z"/>
				<path class="st10" d="M1.5,68.8H1v-4.9c-0.1,0.1-0.2,0.2-0.3,0.3c-0.1,0.1-0.3,0.3-0.5,0.4l-0.1,0.1V64l0,0
					c0.2-0.1,0.3-0.3,0.5-0.4c0.2-0.1,0.3-0.3,0.4-0.5l0,0h0.5L1.5,68.8z M1.1,68.7h0.3v-5.5H1.1c-0.1,0.2-0.3,0.3-0.4,0.5
					c-0.1,0.1-0.3,0.3-0.5,0.4v0.4c0.1-0.1,0.3-0.2,0.4-0.3C0.7,64,0.8,63.9,1,63.8l0.1-0.1L1.1,68.7z"/>
			</g>
			<g transform="translate(21.6 0.225)">
				<path class="st10" d="M1.3,66.7c-0.4,0-0.7-0.1-0.9-0.4c-0.2-0.4-0.3-0.9-0.3-1.3c0-0.2,0-0.5,0.1-0.7c0-0.2,0.1-0.4,0.2-0.5
					c0.1-0.2,0.2-0.3,0.4-0.4c0.2-0.1,0.4-0.1,0.6-0.1c0.3,0,0.5,0,0.7,0.1c0.2,0.1,0.3,0.2,0.4,0.4c0.1,0.2,0.1,0.5,0.2,0.7
					c0,0.3,0,0.6,0,0.9V66c0,0.5,0,1,0,1.3c0,0.3-0.1,0.6-0.1,0.9c-0.1,0.2-0.2,0.4-0.4,0.5C1.9,68.9,1.7,69,1.4,69
					c-0.3,0-0.7-0.1-0.9-0.3c-0.2-0.3-0.3-0.7-0.3-1h0.5c0,0.2,0,0.5,0.2,0.7c0.1,0.2,0.3,0.3,0.6,0.2c0.2,0,0.4,0,0.5-0.1
					C2,68.3,2.1,68.2,2.1,68c0.1-0.2,0.1-0.5,0.1-0.7c0-0.3,0-0.7,0-1.1h0c-0.1,0.2-0.2,0.3-0.4,0.4C1.7,66.6,1.5,66.7,1.3,66.7z
					 M1.4,66.2c0.2,0,0.3,0,0.5-0.1C2,66,2.1,65.9,2.1,65.7c0.1-0.1,0.1-0.3,0.1-0.4c0-0.1,0-0.3,0-0.4c0-0.2,0-0.3,0-0.5
					c0-0.1,0-0.3-0.1-0.4c-0.1-0.1-0.1-0.2-0.3-0.3c-0.1-0.1-0.3-0.1-0.5-0.1c-0.3,0-0.6,0.1-0.7,0.4c-0.1,0.1-0.1,0.3-0.1,0.4
					c0,0.2,0,0.3,0,0.5s0,0.3,0,0.5c0,0.1,0,0.3,0.1,0.4C0.8,65.9,0.9,66,1,66.1C1.1,66.2,1.2,66.2,1.4,66.2L1.4,66.2z"/>
				<path class="st10" d="M1.4,69c-0.4,0-0.7-0.1-1-0.3c-0.2-0.3-0.3-0.7-0.3-1.1v-0.1h0.6v0.1c0,0.2,0,0.4,0.1,0.6
					c0.1,0.2,0.3,0.2,0.5,0.2c0.2,0,0.3,0,0.5-0.1C2,68.3,2.1,68.1,2.1,68c0.1-0.2,0.1-0.5,0.1-0.7c0-0.3,0-0.6,0-1
					c-0.1,0.1-0.2,0.2-0.3,0.3c-0.2,0.1-0.4,0.1-0.5,0.1c-0.4,0-0.8-0.1-1-0.5c-0.2-0.4-0.3-0.9-0.3-1.4c0-0.2,0-0.5,0.1-0.7
					c0-0.2,0.1-0.4,0.2-0.6c0.1-0.2,0.2-0.3,0.4-0.4c0.2-0.1,0.4-0.1,0.6-0.1c0.3,0,0.5,0,0.8,0.2c0.2,0.1,0.3,0.3,0.4,0.5
					c0.1,0.2,0.2,0.5,0.2,0.7c0,0.3,0,0.6,0,0.9V66c0,0.5,0,1,0,1.3c0,0.3-0.1,0.6-0.2,0.9c-0.1,0.2-0.2,0.4-0.4,0.6
					C2,69,1.7,69,1.4,69z M0.2,67.7c0,0.3,0.1,0.7,0.3,0.9c0.2,0.2,0.6,0.3,0.9,0.3c0.2,0,0.5,0,0.7-0.2c0.2-0.1,0.3-0.3,0.4-0.5
					c0.1-0.3,0.1-0.6,0.1-0.9c0-0.4,0-0.8,0-1.3v-0.7c0-0.3,0-0.6,0-0.9c0-0.2-0.1-0.5-0.1-0.7c-0.1-0.2-0.2-0.3-0.4-0.4
					c-0.2-0.1-0.5-0.2-0.7-0.1c-0.2,0-0.4,0-0.6,0.1c-0.1,0.1-0.3,0.2-0.4,0.3c-0.1,0.2-0.2,0.3-0.2,0.5c0,0.2-0.1,0.5-0.1,0.7
					c0,0.5,0.1,0.9,0.3,1.3c0.2,0.3,0.5,0.4,0.9,0.4c0.2,0,0.3,0,0.5-0.1c0.2-0.1,0.3-0.2,0.4-0.4l0,0h0.1v0.1c0,0.4,0,0.8,0,1.1
					c0,0.3,0,0.5-0.1,0.7c0,0.2-0.1,0.3-0.3,0.4c-0.2,0.1-0.4,0.1-0.6,0.1c-0.2,0-0.5-0.1-0.6-0.3c-0.1-0.2-0.2-0.4-0.2-0.6
					L0.2,67.7z M1.4,66.3c-0.2,0-0.3,0-0.4-0.1c-0.1-0.1-0.2-0.2-0.3-0.3c-0.1-0.1-0.1-0.3-0.1-0.4c0-0.2,0-0.3,0-0.5s0-0.3,0-0.5
					c0-0.1,0.1-0.3,0.1-0.4c0.1-0.1,0.2-0.2,0.3-0.3c0.1-0.1,0.3-0.1,0.5-0.1c0.2,0,0.4,0,0.5,0.1C2,63.7,2.1,63.9,2.2,64
					c0.1,0.1,0.1,0.3,0.1,0.4c0,0.2,0,0.3,0,0.5c0,0.1,0,0.2,0,0.4c0,0.1,0,0.3-0.1,0.4C2.1,65.9,2,66,1.9,66.1
					C1.8,66.2,1.6,66.3,1.4,66.3L1.4,66.3z M1.4,63.6c-0.1,0-0.3,0-0.4,0.1c-0.1,0.1-0.2,0.2-0.2,0.3c-0.1,0.1-0.1,0.3-0.1,0.4
					c0,0.2,0,0.3,0,0.5c0,0.2,0,0.3,0,0.5c0,0.1,0,0.3,0.1,0.4C0.8,65.9,0.9,66,1,66c0.1,0.1,0.2,0.1,0.4,0.1c0.2,0,0.3,0,0.5-0.1
					c0.1-0.1,0.2-0.2,0.2-0.3c0.1-0.1,0.1-0.3,0.1-0.4c0-0.1,0-0.3,0-0.4c0-0.2,0-0.3,0-0.5c0-0.1,0-0.3-0.1-0.4
					c0-0.1-0.1-0.2-0.2-0.3C1.7,63.7,1.6,63.6,1.4,63.6L1.4,63.6z"/>
			</g>
			<g transform="translate(27.967 0.225)">
				<path class="st10" d="M2,65.9c0.2,0,0.3,0.1,0.4,0.2c0.1,0.1,0.2,0.2,0.2,0.3c0.1,0.1,0.1,0.3,0.1,0.4c0,0.2,0,0.3,0,0.5
					c0,0.2,0,0.4,0,0.6c0,0.2-0.1,0.4-0.2,0.5c-0.1,0.2-0.2,0.3-0.4,0.4c-0.4,0.2-0.9,0.2-1.4,0c-0.2-0.1-0.3-0.2-0.4-0.4
					c-0.1-0.2-0.2-0.3-0.2-0.5c0-0.3-0.1-0.7,0-1c0-0.1,0.1-0.3,0.1-0.4c0.1-0.1,0.1-0.2,0.2-0.3C0.6,66,0.8,66,0.9,65.9l0,0
					c-0.1,0-0.3-0.1-0.4-0.2c-0.1-0.1-0.2-0.2-0.2-0.3c-0.1-0.1-0.1-0.3-0.1-0.4c0-0.2,0-0.3,0-0.5c0-0.1,0-0.3,0-0.4
					c0-0.2,0.1-0.3,0.1-0.5c0.1-0.2,0.2-0.3,0.4-0.4c0.5-0.2,1-0.2,1.4,0c0.2,0.1,0.3,0.2,0.4,0.4c0.1,0.1,0.1,0.3,0.1,0.5
					c0,0.1,0,0.3,0,0.4c0,0.2,0,0.3,0,0.5c0,0.1-0.1,0.3-0.1,0.4c0,0.1-0.1,0.2-0.2,0.3C2.2,65.8,2.1,65.9,2,65.9L2,65.9z M1.4,68.6
					c0.1,0,0.3,0,0.4-0.1C2,68.4,2,68.3,2.1,68.2c0.1-0.1,0.1-0.2,0.1-0.4c0-0.2,0-0.3,0-0.5c0-0.1,0-0.3,0-0.5c0-0.1,0-0.3-0.1-0.4
					c-0.1-0.1-0.1-0.2-0.3-0.3c-0.3-0.2-0.6-0.2-0.9,0c-0.1,0.1-0.2,0.2-0.3,0.3c-0.1,0.1-0.1,0.3-0.1,0.4c0,0.2,0,0.3,0,0.5
					c0,0.2,0,0.3,0,0.5c0,0.1,0.1,0.3,0.1,0.4c0.1,0.1,0.2,0.2,0.3,0.2C1.2,68.5,1.3,68.6,1.4,68.6L1.4,68.6z M1.4,65.7
					c0.1,0,0.3,0,0.4-0.1c0.1-0.1,0.2-0.1,0.2-0.2c0.1-0.1,0.1-0.2,0.1-0.3c0-0.1,0-0.3,0-0.4c0-0.2,0-0.3,0-0.5
					c0-0.1-0.1-0.2-0.1-0.3c-0.1-0.1-0.1-0.2-0.2-0.2c-0.1-0.1-0.3-0.1-0.4-0.1c-0.1,0-0.3,0-0.4,0.1c-0.1,0-0.2,0.1-0.2,0.2
					c-0.1,0.1-0.1,0.2-0.1,0.3c0,0.1,0,0.3,0,0.5c0,0.2,0,0.3,0,0.4c0,0.1,0.1,0.2,0.1,0.3c0.1,0.1,0.1,0.2,0.2,0.2
					C1.2,65.7,1.3,65.7,1.4,65.7L1.4,65.7z"/>
				<path class="st10" d="M1.4,69c-0.2,0-0.5,0-0.7-0.2c-0.2-0.1-0.3-0.2-0.4-0.4c-0.1-0.2-0.2-0.3-0.2-0.5c0-0.2,0-0.4,0-0.6
					c0-0.2,0-0.3,0-0.5c0-0.1,0.1-0.3,0.1-0.4c0.1-0.1,0.1-0.2,0.3-0.3C0.6,66,0.7,66,0.8,65.9c-0.1,0-0.2-0.1-0.3-0.2
					c-0.1-0.1-0.2-0.2-0.2-0.3c-0.1-0.1-0.1-0.3-0.1-0.4c0-0.2,0-0.3,0-0.5c0-0.1,0-0.3,0-0.4c0-0.2,0.1-0.3,0.2-0.5
					c0.1-0.2,0.2-0.3,0.4-0.4c0.2-0.1,0.5-0.2,0.7-0.2c0.3,0,0.5,0,0.7,0.2c0.2,0.1,0.3,0.2,0.4,0.4c0.1,0.1,0.1,0.3,0.2,0.5
					c0,0.2,0,0.3,0,0.4c0,0.2,0,0.3,0,0.5c0,0.1-0.1,0.3-0.1,0.4c-0.1,0.1-0.1,0.2-0.2,0.3c-0.1,0.1-0.2,0.1-0.3,0.2
					c0.1,0,0.2,0.1,0.3,0.2c0.1,0.1,0.2,0.2,0.3,0.3c0.1,0.1,0.1,0.3,0.1,0.4c0,0.2,0,0.3,0,0.5c0,0.2,0,0.4,0,0.6
					c0,0.2-0.1,0.4-0.2,0.5c-0.1,0.2-0.2,0.3-0.4,0.4C1.9,69,1.7,69,1.4,69z M1.4,63.2c-0.2,0-0.5,0-0.7,0.1
					c-0.1,0.1-0.3,0.2-0.4,0.3c-0.1,0.1-0.1,0.3-0.1,0.4c0,0.1,0,0.3,0,0.4c0,0.2,0,0.3,0,0.5c0,0.1,0.1,0.3,0.1,0.4
					c0,0.1,0.1,0.2,0.2,0.3c0.1,0.1,0.2,0.1,0.3,0.2h0L1,65.9l-0.1,0c-0.1,0-0.3,0.1-0.4,0.2c-0.1,0.1-0.2,0.2-0.2,0.3
					c-0.1,0.1-0.1,0.3-0.1,0.4c0,0.2,0,0.3,0,0.5c0,0.2,0,0.4,0,0.6c0,0.2,0.1,0.3,0.2,0.5c0.1,0.2,0.2,0.3,0.4,0.4
					c0.4,0.2,0.9,0.2,1.3,0c0.2-0.1,0.3-0.2,0.4-0.4c0.1-0.2,0.2-0.3,0.2-0.5c0-0.2,0-0.4,0-0.6c0-0.2,0-0.3,0-0.5
					c0-0.1-0.1-0.3-0.1-0.4c-0.1-0.1-0.1-0.2-0.2-0.3C2.2,66.1,2.1,66,2,66l0,0v-0.1l0,0c0.1,0,0.3-0.1,0.4-0.2
					c0.1-0.1,0.2-0.2,0.2-0.3c0.1-0.1,0.1-0.3,0.1-0.4c0-0.2,0-0.3,0-0.5c0-0.1,0-0.3,0-0.4c0-0.2-0.1-0.3-0.1-0.4
					c-0.1-0.1-0.2-0.3-0.4-0.3C1.9,63.2,1.7,63.2,1.4,63.2L1.4,63.2z M1.4,68.6c-0.1,0-0.3,0-0.4-0.1c-0.1-0.1-0.2-0.2-0.3-0.3
					c-0.1-0.1-0.1-0.3-0.1-0.4c0-0.2,0-0.3,0-0.5c0-0.2,0-0.3,0-0.5c0-0.1,0-0.3,0.1-0.4c0.1-0.1,0.2-0.2,0.3-0.3
					c0.1-0.1,0.3-0.1,0.5-0.1c0.2,0,0.3,0,0.5,0.1c0.1,0.1,0.2,0.2,0.3,0.3c0.1,0.1,0.1,0.3,0.1,0.4c0,0.2,0,0.3,0,0.5
					c0,0.2,0,0.3,0,0.5c0,0.1-0.1,0.3-0.1,0.4c-0.1,0.1-0.2,0.2-0.3,0.3C1.7,68.6,1.6,68.6,1.4,68.6L1.4,68.6z M1.4,66.2
					c-0.2,0-0.3,0-0.4,0.1c-0.1,0.1-0.2,0.2-0.2,0.3c-0.1,0.1-0.1,0.3-0.1,0.4c0,0.2,0,0.3,0,0.5c0,0.2,0,0.3,0,0.4
					c0,0.1,0.1,0.2,0.1,0.4c0.1,0.1,0.1,0.2,0.2,0.2c0.2,0.1,0.5,0.1,0.8,0c0.1-0.1,0.2-0.1,0.2-0.2c0.1-0.1,0.1-0.2,0.1-0.4
					c0-0.1,0-0.3,0-0.4c0-0.2,0-0.3,0-0.5c0-0.1,0-0.3-0.1-0.4c-0.1-0.1-0.1-0.2-0.2-0.3C1.8,66.2,1.6,66.2,1.4,66.2L1.4,66.2z
					 M1.4,65.8c-0.1,0-0.3,0-0.4-0.1c-0.1-0.1-0.2-0.1-0.3-0.2c-0.1-0.1-0.1-0.2-0.1-0.4c0-0.2,0-0.3,0-0.5c0-0.2,0-0.3,0-0.5
					c0-0.1,0.1-0.3,0.1-0.4c0.1-0.1,0.2-0.2,0.3-0.2c0.1-0.1,0.3-0.1,0.4-0.1c0.1,0,0.3,0,0.4,0.1c0.1,0.1,0.2,0.1,0.3,0.2
					c0.1,0.1,0.1,0.2,0.1,0.4c0,0.2,0,0.3,0,0.5c0,0.2,0,0.3,0,0.5c0,0.1-0.1,0.3-0.1,0.4C2,65.6,2,65.6,1.8,65.7
					C1.7,65.8,1.6,65.8,1.4,65.8L1.4,65.8z M1.4,63.6c-0.1,0-0.3,0-0.4,0.1c-0.1,0-0.2,0.1-0.2,0.2c-0.1,0.1-0.1,0.2-0.1,0.3
					c0,0.1,0,0.3,0,0.4c0,0.1,0,0.3,0,0.4c0,0.1,0.1,0.2,0.1,0.3c0.1,0.1,0.1,0.2,0.2,0.2c0.2,0.1,0.5,0.1,0.7,0
					c0.1,0,0.2-0.1,0.2-0.2c0.1-0.1,0.1-0.2,0.1-0.3c0-0.1,0-0.3,0-0.4c0-0.1,0-0.3,0-0.4c0-0.1-0.1-0.2-0.1-0.3
					c-0.1-0.1-0.1-0.2-0.2-0.2C1.7,63.6,1.6,63.6,1.4,63.6L1.4,63.6z"/>
			</g>
		</g>
		<path class="st11" d="M3,63.1c-2,0-2.9,1-2.9,3v5.8c-0.1,0.7,0.2,1.5,0.6,2.1c0.6,0.6,1.5,0.8,2.3,0.8c2,0,3-1,3-3v-5.8
			c0.1-0.8-0.2-1.5-0.6-2.1C4.7,63.3,3.9,63,3,63.1z M4.2,72c0,1-0.4,1.5-1.2,1.5S1.8,73,1.8,72v-6c0-1.1,0.4-1.6,1.2-1.6
			s1.2,0.5,1.2,1.6V72z"/>
		<path class="st11" d="M9.1,63.2H7.4v11.4H12v-1.3H9.1V63.2z"/>
		<path class="st11" d="M14,68L14,68l-1.5-4.8h-1.7l2.4,6.7v4.7h1.7v-4.7l2.4-6.7h-1.5L14,68z"/>
		<path class="st11" d="M22.7,71.9L22.7,71.9l-1.6-8.7h-2.8v11.4h1.5V64.3l2,10.3h1.8l1.8-10.3v10.3H27V63.2h-2.7L22.7,71.9z"/>
		<path class="st11" d="M31.3,63.2h-2.9v11.4h1.7v-5h1.1c0.8,0.1,1.6-0.1,2.3-0.6c0.7-1.7,0.7-3.5,0-5.2
			C33,63.3,32.2,63.1,31.3,63.2z M32.2,68c-0.1,0.2-0.5,0.3-1.1,0.3h-0.9v-3.8h0.9c0.6,0,1,0.1,1.1,0.3C32.5,65.9,32.5,67,32.2,68
			L32.2,68z"/>
		<rect x="35.4" y="63.2" class="st11" width="1.7" height="11.4"/>
		<path class="st11" d="M41.2,63.1c-2,0-2.9,1-2.9,3v5.8c-0.1,0.7,0.2,1.5,0.6,2.1c0.6,0.6,1.4,0.8,2.3,0.8c1.7,0,2.6-0.7,2.5-2.1
			v-1.3h-1.6v0.8c0,0.9-0.4,1.4-1.1,1.4c-0.7,0-1-0.5-1-1.6v-5.6c0-0.4,0-0.9,0.1-1.3c0.1-0.4,0.5-0.7,1-0.7c0.7,0,1,0.4,1,1.2v0.8
			h1.6v-1.1C43.8,63.8,42.9,63.1,41.2,63.1z"/>
		<path class="st11" d="M53.3,63.8c-0.6-0.5-1.5-0.7-2.3-0.6h-2.9v11.4h1.7v-5h1.1c0.8,0.1,1.6-0.1,2.3-0.6
			C54.1,67.4,54.1,65.5,53.3,63.8L53.3,63.8z M51.9,68c-0.1,0.2-0.5,0.3-1.1,0.3h-0.9v-3.8h0.9c0.6,0,1,0.1,1.1,0.3
			C52.2,65.9,52.2,67,51.9,68L51.9,68z"/>
		<path class="st11" d="M56.2,63.2l-2.8,11.4h1.7l0.6-2.9h2.7l0.6,2.9h1.7l-2.6-11.4H56.2z M56,70.4l1.1-5.5h0l1.1,5.5H56z"/>
		<path class="st11" d="M66.9,68c0.2-0.5,0.3-1.1,0.3-1.7c0.1-0.9-0.1-1.7-0.5-2.5c-0.3-0.4-1.1-0.6-2.3-0.6h-2.7v11.4h1.7v-5h0.6
			c0.4,0,0.8,0,1.1,0.3c0.2,0.3,0.3,0.7,0.2,1.1v2.6c0,0.4,0.1,0.7,0.2,1h1.6c-0.1-0.5-0.1-1-0.1-1.5v-2.5c0-0.4-0.1-0.9-0.4-1.2
			c-0.3-0.3-0.8-0.5-1.2-0.5v0C66.1,68.8,66.6,68.5,66.9,68z M65.2,68c-0.2,0.2-0.6,0.3-1.3,0.3h-0.5v-3.8h0.8c0.5,0,0.9,0.1,1,0.3
			c0.2,0.5,0.2,1,0.2,1.6C65.5,66.9,65.4,67.5,65.2,68L65.2,68z"/>
		<path class="st11" d="M72,68.5l2.9-5.4h-1.8l-2.8,5.2v-5.2h-1.7v11.4h1.7v-5.7l2.8,5.7h2L72,68.5z"/>
	</g>
</g>
</svg>
