<svg xmlns="http://www.w3.org/2000/svg" width="24" height="24" viewBox="0 0 24 24"><path d="M0,0H24V24H0Z" fill="none"/><path d="M8,14a1,1,0,0,1-1-1V4.5a2.5,2.5,0,0,1,5,0V12a1,1,0,0,1-2,0V4.5a.5.5,0,0,0-1,0V13A1,1,0,0,1,8,14Z" fill="#fff"/><path d="M14,13a1,1,0,0,1-1-1V9.5a.5.5,0,0,0-1,0v2a1,1,0,0,1-2,0v-2a2.5,2.5,0,0,1,5,0V12A1,1,0,0,1,14,13Z" fill="#fff"/><path d="M17,13a1,1,0,0,1-1-1V10.5a.5.5,0,0,0-1,0,1,1,0,0,1-2,0,2.5,2.5,0,0,1,5,0V12A1,1,0,0,1,17,13Z" fill="#fff"/><path d="M14,23H12a1.011,1.011,0,0,1-.126-.008A6.98,6.98,0,0,1,6.36,19.849l-.2-.3c-.325-.5-1.411-2.391-3.319-5.782a2.5,2.5,0,0,1,.893-3.37,2.863,2.863,0,0,1,3.5.43l1.47,1.47a1,1,0,0,1-1.414,1.414l-1.47-1.47a.866.866,0,0,0-1.058-.13.5.5,0,0,0-.179.674C6.446,16.089,7.54,18,7.838,18.454l.193.3A4.987,4.987,0,0,0,12.208,21H14a5.006,5.006,0,0,0,5-5V11.5a.5.5,0,0,0-1,0,1,1,0,0,1-2,0,2.5,2.5,0,0,1,5,0V16A7.008,7.008,0,0,1,14,23Z" fill="#fff"/></svg>