<?xml version="1.0" encoding="utf-8"?>
<!-- Generator: Adobe Illustrator 26.0.1, SVG Export Plug-In . SVG Version: 6.00 Build 0)  -->
<svg version="1.1" id="Layer_1" xmlns="http://www.w3.org/2000/svg" xmlns:xlink="http://www.w3.org/1999/xlink" x="0px" y="0px"
	 viewBox="0 0 24 24" style="enable-background:new 0 0 24 24;" xml:space="preserve">
<style type="text/css">
	.st0{fill:none;}
	.st1{fill:#FFFFFF;}
</style>
<path class="st0" d="M0,0h24v24H0V0z"/>
<path class="st1" d="M12,22H8c-0.6,0-1-0.4-1-1s0.4-1,1-1h4c0.6,0,1,0.4,1,1S12.6,22,12,22z"/>
<path class="st1" d="M10,22c-0.6,0-1-0.4-1-1V3c0-0.6,0.4-1,1-1s1,0.4,1,1v18C11,21.6,10.6,22,10,22z"/>
<path class="st1" d="M10,13c-0.6,0-1-0.4-1-1c0-0.4,0.2-0.8,0.6-0.9L16.5,8L9.6,4.9C9.1,4.7,8.9,4.1,9.1,3.6
	c0.2-0.5,0.8-0.7,1.3-0.5l9,4c0.5,0.2,0.7,0.8,0.5,1.3c-0.1,0.2-0.3,0.4-0.5,0.5l-9,4C10.3,13,10.1,13,10,13z"/>
</svg>
