<svg xmlns="http://www.w3.org/2000/svg" width="24" height="24" viewBox="0 0 24 24"><path d="M0,0H24V24H0Z" fill="none"/><path d="M2-1A3,3,0,1,1-1,2,3,3,0,0,1,2-1ZM2,3A1,1,0,1,0,1,2,1,1,0,0,0,2,3Z" transform="translate(5 15)" fill="#fff"/><path d="M2-1A3,3,0,1,1-1,2,3,3,0,0,1,2-1ZM2,3A1,1,0,1,0,1,2,1,1,0,0,0,2,3Z" transform="translate(15 15)" fill="#fff"/><path d="M21,18H3a1,1,0,0,1-1-1V11a1,1,0,0,1,.072-.371l2-5A1,1,0,0,1,5,5h9a1,1,0,0,1,.781.375L18.481,10H19a3,3,0,0,1,3,3v4A1,1,0,0,1,21,18ZM4,16H20V13a1,1,0,0,0-1-1H18a1,1,0,0,1-.781-.375L13.519,7H13v4a1,1,0,0,1-2,0V7H5.677L4,11.193Z" fill="#fff"/></svg>