<svg xmlns="http://www.w3.org/2000/svg" width="24" height="24" viewBox="0 0 24 24"><path d="M0,0H24V24H0Z" fill="none"/><path d="M6,18.6a1,1,0,0,1-.481-.124l-2-1.1A1,1,0,0,1,3,16.5V14a1,1,0,0,1,2,0v1.909l1.482.815A1,1,0,0,1,6,18.6Z" fill="#fff"/><path d="M4,11a1,1,0,0,1-1-1V7.5a1,1,0,0,1,.518-.876l2-1.1a1,1,0,1,1,.964,1.752L5,8.091V10A1,1,0,0,1,4,11Z" fill="#fff"/><path d="M14,5.1a1,1,0,0,1-.481-.124L12,4.141l-1.518.835a1,1,0,0,1-.964-1.752l2-1.1a1,1,0,0,1,.964,0l2,1.1A1,1,0,0,1,14,5.1Z" fill="#fff"/><path d="M20,11a1,1,0,0,1-1-1V8.091l-1.482-.815a1,1,0,1,1,.964-1.752l2,1.1A1,1,0,0,1,21,7.5V10A1,1,0,0,1,20,11Z" fill="#fff"/><path d="M18,18.62a1,1,0,0,1-.49-1.873L19,15.914V14a1,1,0,0,1,2,0v2.5a1,1,0,0,1-.511.873l-2,1.12A1,1,0,0,1,18,18.62Z" fill="#fff"/><path d="M12,22a1,1,0,0,1-.482-.124l-2-1.1a1,1,0,1,1,.964-1.752L12,19.859l1.518-.835a1,1,0,1,1,.964,1.752l-2,1.1A1,1,0,0,1,12,22Z" fill="#fff"/><path d="M0,2.1a1,1,0,0,1-.877-.518A1,1,0,0,1-.482.224l2-1.1a1,1,0,0,1,1.358.394A1,1,0,0,1,2.482.876l-2,1.1A1,1,0,0,1,0,2.1Z" transform="translate(12 10.9)" fill="#fff"/><path d="M0,2.1a1,1,0,0,1-.877-.518A1,1,0,0,1-.482.224l2-1.1a1,1,0,0,1,1.358.394A1,1,0,0,1,2.482.876l-2,1.1A1,1,0,0,1,0,2.1Z" transform="translate(18 7.5)" fill="#fff"/><path d="M0,3.5a1,1,0,0,1-1-1V0A1,1,0,0,1,0-1,1,1,0,0,1,1,0V2.5A1,1,0,0,1,0,3.5Z" transform="translate(12 12)" fill="#fff"/><path d="M0,3.5a1,1,0,0,1-1-1V0A1,1,0,0,1,0-1,1,1,0,0,1,1,0V2.5A1,1,0,0,1,0,3.5Z" transform="translate(12 18.5)" fill="#fff"/><path d="M12,13a1,1,0,0,1-.488-.128l-2-1.12a1,1,0,0,1,.977-1.745l2,1.12A1,1,0,0,1,12,13Z" fill="#fff"/><path d="M2,2.1a1,1,0,0,1-.481-.124l-2-1.1A1,1,0,0,1-.876-.482,1,1,0,0,1,.482-.876l2,1.1A1,1,0,0,1,2,2.1Z" transform="translate(4 7.5)" fill="#fff"/></svg>