<svg xmlns="http://www.w3.org/2000/svg" width="24" height="24" viewBox="0 0 24 24"><path d="M0,0H24V24H0Z" fill="none"/><path d="M3,21a1,1,0,0,1-1-1V7a1,1,0,0,1,.553-.894l6-3a1,1,0,0,1,.894,0L15,5.882l5.553-2.776A1,1,0,0,1,22,4V17a1,1,0,0,1-.553.894l-6,3a1,1,0,0,1-.894,0L9,18.118,3.447,20.894A1,1,0,0,1,3,21Zm6-5a1,1,0,0,1,.447.106L15,18.882l5-2.5V5.618L15.447,7.894a1,1,0,0,1-.894,0L9,5.118l-5,2.5V18.382l4.553-2.276A1,1,0,0,1,9,16Z" fill="#fff"/><path d="M0,14a1,1,0,0,1-1-1V0A1,1,0,0,1,0-1,1,1,0,0,1,1,0V13A1,1,0,0,1,0,14Z" transform="translate(9 4)" fill="#fff"/><path d="M0,14a1,1,0,0,1-1-1V0A1,1,0,0,1,0-1,1,1,0,0,1,1,0V13A1,1,0,0,1,0,14Z" transform="translate(15 7)" fill="#fff"/></svg>