<svg xmlns="http://www.w3.org/2000/svg" width="24" height="24" viewBox="0 0 24 24"><g opacity="0.25" style="mix-blend-mode:luminosity;isolation:isolate"><path d="M0,0H24V24H0Z" fill="none"/><path d="M5,22a1.011,1.011,0,0,1-.112-.006,1,1,0,0,1-.883-1.1,14.017,14.017,0,0,1,2.162-6.382,12.408,12.408,0,0,1,5.426-4.422,1,1,0,1,1,.812,1.828c-3.869,1.719-5.906,4.642-6.412,9.2A1,1,0,0,1,5,22Z" fill="#fff"/><path d="M9,19H5.986a1,1,0,0,1-.707-.293A7.5,7.5,0,0,1,2.986,13,9.012,9.012,0,0,1,5.961,5.87C8.156,3.965,11.529,3,15.986,3H20a1,1,0,0,1,1,1V6q0,.029,0,.057c-.253,4.413-1.48,7.749-3.647,9.917C15.344,17.982,12.535,19,9,19ZM6.416,17H9a9.423,9.423,0,0,0,6.937-2.44c1.8-1.806,2.835-4.7,3.063-8.589V5H15.986c-3.962,0-6.894.8-8.714,2.38A7.1,7.1,0,0,0,4.986,13,5.479,5.479,0,0,0,6.416,17Z" fill="#fff"/></g></svg>