<svg xmlns="http://www.w3.org/2000/svg" width="24" height="24" viewBox="0 0 24 24"><path d="M0,0H24V24H0Z" fill="none"/><path d="M6-1A7,7,0,1,1-1,6,7.008,7.008,0,0,1,6-1ZM6,11A5,5,0,1,0,1,6,5.006,5.006,0,0,0,6,11Z" transform="translate(6 6)" fill="#fff"/><path d="M2-1A3,3,0,1,1-1,2,3,3,0,0,1,2-1ZM2,3A1,1,0,1,0,1,2,1,1,0,0,0,2,3Z" transform="translate(3 6)" fill="#fff"/><path d="M2-1A3,3,0,1,1-1,2,3,3,0,0,1,2-1ZM2,3A1,1,0,1,0,1,2,1,1,0,0,0,2,3Z" transform="translate(10 2)" fill="#fff"/><path d="M2-1A3,3,0,1,1-1,2,3,3,0,0,1,2-1ZM2,3A1,1,0,1,0,1,2,1,1,0,0,0,2,3Z" transform="translate(17 6)" fill="#fff"/><path d="M2-1A3,3,0,1,1-1,2,3,3,0,0,1,2-1ZM2,3A1,1,0,1,0,1,2,1,1,0,0,0,2,3Z" transform="translate(3 14)" fill="#fff"/><path d="M2-1A3,3,0,1,1-1,2,3,3,0,0,1,2-1ZM2,3A1,1,0,1,0,1,2,1,1,0,0,0,2,3Z" transform="translate(17 14)" fill="#fff"/><path d="M16,23a1,1,0,0,1-.929-.629L12,14.693,8.928,22.371a1,1,0,1,1-1.857-.743l4-10a1,1,0,0,1,1.857,0l4,10A1,1,0,0,1,16,23Z" fill="#fff"/></svg>