<svg xmlns="http://www.w3.org/2000/svg" width="24" height="24" viewBox="0 0 24 24"><path d="M0,0H24V24H0Z" fill="none"/><path d="M6.594,16H6.406a6.574,6.574,0,0,1-4.018-1.21,1,1,0,1,1,1.224-1.582A4.71,4.71,0,0,0,6.488,14h.024a4.71,4.71,0,0,0,2.876-.791A6.616,6.616,0,0,1,13.5,12a6.616,6.616,0,0,1,4.112,1.209,1,1,0,1,1-1.224,1.582A4.71,4.71,0,0,0,13.512,14h-.024a4.71,4.71,0,0,0-2.876.791A6.575,6.575,0,0,1,6.594,16Z" fill="#fff"/><path d="M8,8a1,1,0,0,1-.582-.188A3.4,3.4,0,0,1,6,5,3.4,3.4,0,0,1,7.417,2.188,1,1,0,0,1,8.583,3.812,1.4,1.4,0,0,0,8,4.979Q8,5,8,5.021a1.4,1.4,0,0,0,.583,1.167A1,1,0,0,1,8,8Z" fill="#fff"/><path d="M12,8a1,1,0,0,1-.582-.188A3.4,3.4,0,0,1,10,5a3.4,3.4,0,0,1,1.417-2.812,1,1,0,0,1,1.166,1.625A1.4,1.4,0,0,0,12,4.979Q12,5,12,5.021a1.4,1.4,0,0,0,.583,1.167A1,1,0,0,1,12,8Z" fill="#fff"/><path d="M3,9H17a1,1,0,0,1,1,1v5a7.008,7.008,0,0,1-7,7H9a7.008,7.008,0,0,1-7-7V10A1,1,0,0,1,3,9Zm13,2H4v4a5.006,5.006,0,0,0,5,5h2a5.006,5.006,0,0,0,5-5Z" fill="#fff"/><path d="M17.992,18a3.98,3.98,0,0,1-1.663-.363,1,1,0,1,1,.834-1.818,2,2,0,1,0,.168-3.7,1,1,0,1,1-.666-1.886A4,4,0,1,1,17.992,18Z" fill="#fff"/></svg>