<svg xmlns="http://www.w3.org/2000/svg" xmlns:xlink="http://www.w3.org/1999/xlink" width="655" height="655" viewBox="0 0 655 655"><defs><linearGradient id="a" x1="0.252" y1="0.018" x2="0.594" y2="0.816" gradientUnits="objectBoundingBox"><stop offset="0" stop-color="#f2f2d0"/><stop offset="1" stop-color="#4fbe64" stop-opacity="0"/></linearGradient></defs><path d="M-2812.5-2772a332.69,332.69,0,0,1-33.485-1.691,328.307,328.307,0,0,1-32.518-4.963,325.873,325.873,0,0,1-61.475-19.083,327.545,327.545,0,0,1-55.631-30.2,329.859,329.859,0,0,1-48.469-39.99,329.861,329.861,0,0,1-39.991-48.469,327.557,327.557,0,0,1-30.2-55.631,325.837,325.837,0,0,1-19.083-61.475,328.136,328.136,0,0,1-4.963-32.518A332.719,332.719,0,0,1-3140-3099.5a332.711,332.711,0,0,1,1.691-33.485,328.2,328.2,0,0,1,4.963-32.518,325.84,325.84,0,0,1,19.083-61.475,327.559,327.559,0,0,1,30.2-55.631,329.861,329.861,0,0,1,39.991-48.469,329.846,329.846,0,0,1,48.469-39.99,327.541,327.541,0,0,1,55.631-30.2,325.833,325.833,0,0,1,61.475-19.083,328.235,328.235,0,0,1,32.518-4.963A332.719,332.719,0,0,1-2812.5-3427a332.711,332.711,0,0,1,33.485,1.691,328.257,328.257,0,0,1,32.518,4.963,325.847,325.847,0,0,1,61.475,19.083,327.526,327.526,0,0,1,55.63,30.2,329.835,329.835,0,0,1,48.469,39.99,329.875,329.875,0,0,1,39.991,48.469,327.54,327.54,0,0,1,30.2,55.631,325.838,325.838,0,0,1,19.083,61.475,328.273,328.273,0,0,1,4.963,32.518A332.69,332.69,0,0,1-2485-3099.5a332.69,332.69,0,0,1-1.691,33.485,328.209,328.209,0,0,1-4.963,32.518,325.84,325.84,0,0,1-19.083,61.475,327.528,327.528,0,0,1-30.2,55.631,329.875,329.875,0,0,1-39.991,48.469,329.874,329.874,0,0,1-48.469,39.99,327.537,327.537,0,0,1-55.63,30.2,325.858,325.858,0,0,1-61.475,19.083,328.329,328.329,0,0,1-32.518,4.963A332.69,332.69,0,0,1-2812.5-2772Zm0-501.939a175.719,175.719,0,0,0-35.155,3.544,173.544,173.544,0,0,0-32.744,10.165,174.45,174.45,0,0,0-29.631,16.083,175.707,175.707,0,0,0-25.816,21.3,175.69,175.69,0,0,0-21.3,25.817,174.443,174.443,0,0,0-16.083,29.631,173.574,173.574,0,0,0-10.164,32.744,175.742,175.742,0,0,0-3.544,35.156,175.733,175.733,0,0,0,3.544,35.155,173.564,173.564,0,0,0,10.164,32.744,174.449,174.449,0,0,0,16.083,29.631,175.7,175.7,0,0,0,21.3,25.817,175.709,175.709,0,0,0,25.816,21.3,174.459,174.459,0,0,0,29.631,16.083,173.55,173.55,0,0,0,32.744,10.164,175.721,175.721,0,0,0,35.155,3.544,175.721,175.721,0,0,0,35.155-3.544,173.556,173.556,0,0,0,32.744-10.164,174.471,174.471,0,0,0,29.631-16.083,175.717,175.717,0,0,0,25.816-21.3,175.719,175.719,0,0,0,21.3-25.817,174.473,174.473,0,0,0,16.083-29.631,173.528,173.528,0,0,0,10.164-32.744,175.7,175.7,0,0,0,3.544-35.155,175.711,175.711,0,0,0-3.544-35.156,173.538,173.538,0,0,0-10.164-32.744,174.441,174.441,0,0,0-16.083-29.631,175.706,175.706,0,0,0-21.3-25.817,175.73,175.73,0,0,0-25.816-21.3,174.462,174.462,0,0,0-29.631-16.083,173.545,173.545,0,0,0-32.744-10.165A175.719,175.719,0,0,0-2812.5-3273.939Z" transform="translate(3427 -2485) rotate(-90)" opacity="0.3" fill="url(#a)"/></svg>