<svg xmlns="http://www.w3.org/2000/svg" xmlns:xlink="http://www.w3.org/1999/xlink" width="649.097" height="649.097" viewBox="0 0 649.097 649.097"><defs><linearGradient id="a" x1="0.197" y1="0.029" x2="0.744" y2="0.119" gradientUnits="objectBoundingBox"><stop offset="0" stop-color="#ccf3fa"/><stop offset="1" stop-color="#f8e54e" stop-opacity="0"/></linearGradient></defs><path d="M-2875.007-2897.015a269.25,269.25,0,0,1-27.094-1.368,265.62,265.62,0,0,1-26.312-4.016,263.679,263.679,0,0,1-49.742-15.441,265.039,265.039,0,0,1-45.013-24.432,266.947,266.947,0,0,1-39.218-32.358,266.916,266.916,0,0,1-32.358-39.218,265.009,265.009,0,0,1-24.432-45.013,263.644,263.644,0,0,1-15.441-49.742,265.6,265.6,0,0,1-4.015-26.311,269.2,269.2,0,0,1-1.368-27.094,269.2,269.2,0,0,1,1.368-27.094,265.631,265.631,0,0,1,4.015-26.312,263.648,263.648,0,0,1,15.441-49.742,265,265,0,0,1,24.432-45.013,266.916,266.916,0,0,1,32.358-39.218,266.921,266.921,0,0,1,39.218-32.358,265.037,265.037,0,0,1,45.013-24.432,263.64,263.64,0,0,1,49.742-15.441,265.547,265.547,0,0,1,26.312-4.015,269.129,269.129,0,0,1,27.094-1.369,269.124,269.124,0,0,1,27.094,1.369,265.542,265.542,0,0,1,26.311,4.015,263.659,263.659,0,0,1,49.742,15.441,265.014,265.014,0,0,1,45.013,24.432,266.921,266.921,0,0,1,39.218,32.358,266.936,266.936,0,0,1,32.358,39.218,265.027,265.027,0,0,1,24.432,45.013,263.656,263.656,0,0,1,15.441,49.742,265.631,265.631,0,0,1,4.016,26.312,269.249,269.249,0,0,1,1.368,27.094,269.259,269.259,0,0,1-1.368,27.094,265.6,265.6,0,0,1-4.016,26.311,263.653,263.653,0,0,1-15.441,49.742,265,265,0,0,1-24.432,45.013,266.936,266.936,0,0,1-32.358,39.218,266.96,266.96,0,0,1-39.218,32.358,265.033,265.033,0,0,1-45.013,24.432A263.682,263.682,0,0,1-2821.6-2902.4a265.616,265.616,0,0,1-26.311,4.016A269.249,269.249,0,0,1-2875.007-2897.015Zm0-406.138a142.174,142.174,0,0,0-28.446,2.867,140.42,140.42,0,0,0-26.495,8.225,141.186,141.186,0,0,0-23.976,13.013,142.161,142.161,0,0,0-20.889,17.235,142.167,142.167,0,0,0-17.235,20.889,141.159,141.159,0,0,0-13.013,23.976,140.427,140.427,0,0,0-8.224,26.494,142.193,142.193,0,0,0-2.868,28.446,142.189,142.189,0,0,0,2.868,28.446,140.427,140.427,0,0,0,8.224,26.494,141.141,141.141,0,0,0,13.013,23.976,142.162,142.162,0,0,0,17.235,20.889,142.166,142.166,0,0,0,20.889,17.235,141.177,141.177,0,0,0,23.976,13.013,140.409,140.409,0,0,0,26.495,8.225,142.192,142.192,0,0,0,28.446,2.867,142.191,142.191,0,0,0,28.445-2.867,140.423,140.423,0,0,0,26.494-8.225,141.177,141.177,0,0,0,23.976-13.013A142.163,142.163,0,0,0-2775.2-3062.2a142.191,142.191,0,0,0,17.235-20.889,141.141,141.141,0,0,0,13.013-23.976,140.409,140.409,0,0,0,8.225-26.494,142.178,142.178,0,0,0,2.867-28.446,142.185,142.185,0,0,0-2.867-28.446,140.409,140.409,0,0,0-8.225-26.494,141.133,141.133,0,0,0-13.013-23.976,142.165,142.165,0,0,0-17.235-20.889,142.187,142.187,0,0,0-20.889-17.235,141.186,141.186,0,0,0-23.976-13.013,140.428,140.428,0,0,0-26.494-8.225A142.171,142.171,0,0,0-2875.007-3303.152Z" transform="matrix(0.259, 0.966, -0.966, 0.259, -1985.609, 3919.98)" opacity="0.35" fill="url(#a)"/></svg>